<svg width="300" height="300" viewBox="0 0 300 300" fill="none" xmlns="http://www.w3.org/2000/svg">
<path d="M80.02 153.678C80.02 153.543 79.9663 153.413 79.8706 153.318C79.775 153.222 79.6453 153.168 79.51 153.168C79.3747 153.168 79.245 153.222 79.1494 153.318C79.0537 153.413 79 153.543 79 153.678V162.333C79.339 162.243 79.678 162.149 80.02 162.065C80.02 159.353 80.065 156.335 80.02 153.678Z" fill="#B881FF"/>
<path d="M79.0006 249.9C79.0006 250.035 79.0543 250.165 79.15 250.261C79.2456 250.356 79.3753 250.41 79.5106 250.41C79.6458 250.41 79.7756 250.356 79.8712 250.261C79.9669 250.165 80.0206 250.035 80.0206 249.9V219.3C79.6816 219.4 79.3416 219.495 79.0006 219.584C79.0006 230.04 78.8191 239.4 79.0006 249.9Z" fill="#B881FF"/>
<path d="M71.3149 224.088C69.1889 222.994 66.974 222.081 64.6939 221.361C59.4293 221.533 54.171 220.86 49.1194 219.368C43.7014 219.633 38.3835 220.929 33.4504 223.185C32.9659 223.407 33.2389 224.124 33.7084 224.136L71.0584 225.036C71.1691 225.034 71.276 224.996 71.3633 224.928C71.4505 224.86 71.5133 224.765 71.5422 224.658C71.5711 224.552 71.5646 224.438 71.5236 224.335C71.4826 224.233 71.4094 224.146 71.3149 224.088Z" fill="#CFAAFF"/>
<path d="M32.6445 228.033C32.9955 227.477 32.1135 226.965 31.764 227.519L17.79 249.638C17.439 250.194 18.321 250.706 18.6705 250.152L32.6445 228.033Z" fill="#CFAAFF"/>
<path d="M71.5662 227.777C71.5452 227.121 70.5252 227.118 70.5462 227.777L71.2662 249.894C71.2872 250.55 72.3072 250.553 72.2862 249.894L71.5662 227.777Z" fill="#CFAAFF"/>
<path d="M248.664 110.582C247.575 108.573 245.027 108.861 243.774 106.901C243.35 106.235 243.078 105.488 242.702 104.801C241.137 101.922 237.741 101.37 234.752 101.487C232.845 101.72 230.917 101.705 229.014 101.441C228.671 101.385 228.343 101.256 228.053 101.064C227.763 100.873 227.516 100.622 227.33 100.328C226.388 98.5143 226.989 96.4983 225.843 94.6098C225.085 93.4077 223.947 92.4925 222.611 92.0088C219.2 90.7008 215.612 91.7538 212.1 91.4598C207.413 91.0668 208.986 85.2513 204.996 82.6698C200.834 80.3238 196.146 82.8588 191.862 84.3948C186.473 86.3298 184.731 83.5683 181.562 83.9553C180.006 84.2353 178.6 85.0568 177.593 86.2743C176.461 87.3482 175.668 88.7301 175.312 90.2494C174.955 91.7687 175.052 93.3591 175.589 94.8243C177.308 98.0493 178.841 98.1573 180.008 101.021C180.861 103.776 177.597 106.133 178.572 108.869C179.6 111.749 183.222 111.485 185.598 112.43C186.421 111.333 187.341 110.311 188.345 109.377L188.366 109.34C191.3 106.697 194.864 104.852 198.716 103.982C206.516 102.137 216.803 103.413 224.636 105.894C226.309 106.152 227.968 106.494 229.607 106.919C236.198 108.379 242.689 110.264 249.036 112.563C249.122 111.88 248.992 111.187 248.664 110.582ZM194.262 98.0283C194.001 98.9532 193.517 99.7999 192.852 100.494C192.188 101.189 191.363 101.71 190.451 102.012C189.223 102.441 187.876 102.369 186.701 101.81C185.526 101.251 184.62 100.252 184.178 99.0288C183.801 97.8676 183.82 96.6144 184.231 95.4649C184.642 94.3154 185.422 93.3343 186.449 92.6748C187.293 92.0874 188.295 91.7708 189.323 91.767C190.351 91.7632 191.356 92.0724 192.204 92.6535C193.052 93.2346 193.703 94.06 194.071 95.0201C194.439 95.9801 194.505 97.0294 194.262 98.0283Z" fill="black"/>
<path d="M55.8239 152.513C56.0339 150.713 54.0239 148.722 52.5554 147.764C51.9232 147.481 51.2421 147.324 50.5499 147.3C48.0769 146.926 45.5618 146.926 43.0889 147.3C47.4134 149.505 49.2629 154.559 53.8634 154.289C54.3469 154.271 54.8085 154.083 55.1671 153.758C55.5256 153.433 55.7582 152.992 55.8239 152.513Z" fill="white"/>
<path d="M60.6487 150.26C57.845 148.333 54.6694 147.013 51.3257 146.386C47.982 145.759 44.5441 145.838 41.2327 146.618C41.203 146.627 41.1743 146.639 41.1472 146.654C39.6742 146.995 38.2401 147.487 36.8677 148.122C32.1238 150.419 27.976 153.783 24.7492 157.95C23.8069 159.144 22.9151 160.377 22.0762 161.646C21.4422 162.579 20.9111 163.577 20.4922 164.624C21.3392 163.078 22.4823 161.715 23.8562 160.611C25.2302 159.508 26.808 158.686 28.4996 158.192C30.1913 157.698 31.9636 157.542 33.7155 157.734C35.4673 157.925 37.1644 158.459 38.7097 159.306C40.255 160.153 41.6184 161.296 42.7219 162.67C43.8255 164.044 44.6476 165.622 45.1414 167.314C45.6352 169.005 45.7909 170.778 45.5997 172.529C45.4086 174.281 44.8742 175.978 44.0272 177.524C43.1527 179.093 40.7377 183.641 39.8197 185.933C42.5197 186.603 47.3902 180.714 51.2782 177.323C57.1386 172.183 63.7987 168.035 70.9957 165.042C68.4457 159.726 65.7517 154.05 60.6487 150.26ZM43.0897 147.3C45.5626 146.926 48.0778 146.926 50.5507 147.3C51.2423 147.323 51.9229 147.48 52.5547 147.762C54.0067 148.712 56.0347 150.693 55.8232 152.511C55.7576 152.99 55.5252 153.431 55.167 153.756C54.8087 154.081 54.3474 154.269 53.8642 154.287C49.2847 154.557 47.3797 149.487 43.0897 147.3Z" fill="#FFF0B3"/>
<path d="M85.0026 186.377C76.0596 196.4 69.8991 203.721 55.9836 209.627C50.6138 211.906 44.964 213.459 39.1836 214.244C43.2247 217.371 47.9625 219.474 52.9926 220.373C59.4349 221.539 66.019 221.7 72.5106 220.85C78.2823 220.265 83.851 218.4 88.8111 215.391C88.6686 214.29 85.1586 187.56 85.0026 186.377Z" fill="#FFC431"/>
<path d="M220.148 185.337C214.577 184.649 210.903 187.025 206.379 186.215C204.981 185.966 203.114 185.333 202.641 183.815C202.485 183.011 202.643 182.178 203.083 181.487C203.523 180.796 204.212 180.301 205.007 180.104C206.364 179.677 207.751 179.348 209.156 179.12C207.596 179.142 206.156 179.138 204.542 179.007C203.463 178.989 202.409 178.678 201.492 178.107C201.048 177.824 200.689 177.426 200.453 176.954C200.217 176.483 200.114 175.957 200.154 175.431C200.228 174.98 200.413 174.555 200.691 174.192C200.969 173.83 201.332 173.542 201.749 173.354C204.378 172.359 207.064 171.522 209.793 170.847L205.166 171.215C203.277 171.365 200.438 171.684 199.595 169.443C198.854 167.475 200.84 166.239 202.365 165.605C204.832 164.592 207.412 163.881 210.048 163.485C206.1 159.546 202.14 155.618 198.227 151.646C193.727 157.583 188.151 163.449 181.016 165.596C167.231 169.725 151.538 162.896 143.273 152.648C141.346 150.166 139.885 147.355 138.963 144.351H120.063C119.658 147.624 118.928 150.848 117.885 153.977C117.849 154.092 117.773 154.191 117.671 154.256C117.569 154.321 117.447 154.347 117.327 154.331C117.208 154.315 117.097 154.257 117.016 154.167C116.935 154.078 116.888 153.963 116.883 153.842C116.673 149.792 116.918 147.593 116.822 144.351H80.0598C79.9248 144.352 79.7955 144.406 79.7 144.501C79.6046 144.597 79.5506 144.726 79.5498 144.861L81.7578 161.676C86.8054 160.559 91.9892 160.186 97.1448 160.568C100.326 160.812 103.941 161.124 106.65 162.975C109.95 165.225 108.584 167.81 105.339 168.356C102.694 168.711 100.028 168.895 97.3593 168.908C98.4678 169.235 99.5688 169.586 100.659 169.968C102.077 170.463 104.004 170.904 104.921 172.218C105.335 172.899 105.476 173.712 105.313 174.492C105.15 175.272 104.696 175.961 104.043 176.418C101.772 178.046 99.3498 177.107 96.9198 176.309C98.2252 177.072 99.4627 177.946 100.619 178.92C101.199 179.346 101.674 179.899 102.006 180.537C102.256 181.249 102.249 182.026 101.987 182.734C101.725 183.441 101.223 184.035 100.569 184.412C99.7745 184.794 98.9049 184.995 98.023 185.001C97.1411 185.006 96.269 184.817 95.4693 184.445C93.7983 183.557 91.985 182.968 90.1113 182.705C87.9408 182.682 86.6613 184.527 84.9963 186.386L90.7848 230.462C90.7879 230.596 90.8426 230.724 90.9376 230.819C91.0325 230.914 91.1605 230.969 91.2948 230.972H96.8238C94.0191 223.327 92.6432 215.231 92.7648 207.089C92.9058 198.53 95.1648 191.393 102.266 186.089C108.791 181.444 116.606 178.958 124.616 178.98C124.648 178.982 124.679 178.986 124.71 178.994C125.228 178.844 130.583 178.944 132.041 178.994C135.791 179.144 144.08 179.829 144.255 179.841C150.627 180.66 156.869 182.288 162.828 184.686C165.777 185.683 168.524 187.199 170.94 189.162C175.092 191.613 177.324 196.542 177.867 201.089C178.017 202.304 179.918 225.674 179.931 225.824C180.784 218.429 181.132 210.985 180.972 203.543C180.879 199.109 180.372 197.61 181.391 195.269C181.664 194.747 182.073 194.308 182.575 193.998C183.076 193.688 183.652 193.519 184.241 193.508C184.732 193.534 185.208 193.687 185.623 193.952C186.038 194.217 186.378 194.584 186.609 195.018C187.421 196.52 187.885 198.185 187.968 199.89C188.548 199.215 189.294 198.703 190.131 198.402C190.969 198.102 191.87 198.023 192.747 198.176C193.623 198.328 194.446 198.705 195.133 199.27C195.82 199.835 196.349 200.568 196.668 201.399C199.466 199.694 202.097 202.164 202.652 205.418C203.529 205.432 204.372 205.765 205.023 206.353C205.673 206.942 206.088 207.747 206.19 208.619C207.599 215.998 207.644 223.573 206.322 230.969H225.566C225.701 230.968 225.83 230.914 225.926 230.818C226.021 230.723 226.075 230.594 226.076 230.459C224.526 218.681 221.163 193.064 220.148 185.337ZM138.587 171.614C137.455 172.863 135.885 173.628 134.204 173.748C132.523 173.869 130.86 173.336 129.561 172.262C128.553 171.271 127.864 170.001 127.583 168.615C127.302 167.229 127.442 165.791 127.985 164.486C130.248 158.309 137.354 159.288 139.535 164.357C140.059 165.537 140.248 166.838 140.081 168.118C139.914 169.399 139.397 170.608 138.587 171.614ZM142.469 156.116C142.07 157.599 140.288 157.538 139.058 157.602C137.858 157.667 131.796 158.003 129.957 158.039C129.879 158.038 129.801 158.02 129.731 157.985C129.661 157.95 129.599 157.899 129.552 157.837C129.504 157.774 129.472 157.702 129.457 157.625C129.442 157.548 129.445 157.468 129.465 157.392C130.665 153.878 132.304 150.529 134.342 147.425C134.503 147.104 134.729 146.821 135.005 146.592C135.282 146.364 135.603 146.196 135.948 146.099C136.123 146.062 136.302 146.059 136.478 146.092C136.653 146.125 136.82 146.192 136.969 146.29C137.118 146.387 137.246 146.514 137.346 146.661C137.446 146.808 137.516 146.974 137.552 147.149C137.706 148.17 137.529 149.214 137.046 150.128C137.455 149.904 137.884 149.718 138.327 149.574C138.786 149.36 139.304 149.31 139.795 149.431C140.286 149.553 140.721 149.839 141.027 150.242C141.25 150.727 141.306 151.272 141.189 151.793C141.072 152.314 140.788 152.782 140.379 153.126C139.943 153.564 139.481 153.975 138.995 154.358C139.557 154.3 140.123 154.291 140.687 154.329C141.207 154.314 141.716 154.479 142.128 154.797C142.297 154.967 142.417 155.179 142.477 155.41C142.537 155.642 142.534 155.885 142.469 156.116ZM181.44 188.183C181.317 187.766 179.385 180.983 178.616 177.983C178.59 177.856 178.613 177.723 178.681 177.612C178.748 177.502 178.856 177.421 178.981 177.386C179.106 177.352 179.239 177.366 179.354 177.427C179.469 177.487 179.557 177.589 179.6 177.711C179.723 178.128 181.65 184.911 182.424 187.911C182.442 187.976 182.447 188.043 182.439 188.11C182.431 188.176 182.409 188.241 182.376 188.299C182.343 188.357 182.299 188.408 182.246 188.45C182.193 188.491 182.133 188.521 182.068 188.539C182.003 188.557 181.936 188.562 181.869 188.553C181.803 188.545 181.739 188.524 181.68 188.491C181.622 188.458 181.571 188.414 181.53 188.361C181.489 188.308 181.458 188.247 181.44 188.183ZM184.767 189.362C184.467 189.948 183.59 189.431 183.887 188.847L189.555 177.654C189.855 177.068 190.731 177.585 190.436 178.17L184.767 189.362ZM194.804 188.267L186.864 191.087C186.243 191.307 185.978 190.322 186.593 190.103L194.532 187.283C195.149 187.062 195.419 188.048 194.804 188.267Z" fill="#B881FF"/>
<path d="M192.822 93.1202C191.954 92.3611 190.862 91.9064 189.711 91.8252C188.561 91.7439 187.415 92.0407 186.449 92.6702C185.433 93.3241 184.658 94.2924 184.244 95.4274C183.83 96.5625 183.798 97.802 184.154 98.9567C184.359 99.5763 184.687 100.148 185.117 100.639C185.547 101.13 186.071 101.529 186.659 101.814C187.246 102.098 187.885 102.262 188.537 102.295C189.189 102.329 189.84 102.231 190.454 102.008C194.412 100.668 195.836 95.7677 192.822 93.1202Z" fill="#FFDB7F"/>
<path d="M184.209 135.323C180.963 130.523 180.416 126.443 181.079 122.883C179.702 127.142 179.003 129.504 176.766 132.539C175.681 134.05 174.225 135.256 172.539 136.043C170.997 136.539 169.332 136.5 167.814 135.933C166.297 135.366 165.014 134.304 164.175 132.918C163.232 130.955 162.769 128.796 162.825 126.618C162.712 124.556 162.666 122.49 162.687 120.425C162.761 110.807 165.099 85.8782 159.708 80.9747C158.582 80.2283 157.241 79.8728 155.893 79.9628C154.544 80.0528 153.263 80.5833 152.246 81.4726C150.114 83.2561 149.61 85.4566 149.327 88.2106C149.1 90.3635 148.954 92.524 148.889 94.6876C143.291 89.7376 138.399 85.7026 132.566 82.7236C130.443 81.6391 126.077 79.6501 124.709 82.8571C124.486 83.6552 124.457 84.4946 124.623 85.3062C124.789 86.1178 125.145 86.8783 125.663 87.5251C126.537 88.8384 127.501 90.0894 128.549 91.2691C124.784 89.6388 120.741 88.7496 116.64 88.6501C114.797 88.5623 112.975 89.0761 111.449 90.1141C110.698 90.7451 110.199 91.6259 110.045 92.5947C109.891 93.5635 110.092 94.5553 110.61 95.3881C111.596 96.9474 113.13 98.0801 114.911 98.5621C112.655 98.8372 110.534 99.7842 108.824 101.28C108.277 101.754 107.874 102.372 107.662 103.065C107.449 103.757 107.436 104.494 107.624 105.194C107.864 105.871 108.251 106.487 108.756 106.998C109.262 107.509 109.874 107.902 110.549 108.15C111.977 108.654 113.478 108.923 114.993 108.945C120.162 109.323 129.315 109.163 134.507 108.989C134.847 121.172 135.584 143.102 143.277 152.639C151.491 162.827 167.127 169.748 181.02 165.587C188.154 163.449 193.724 157.583 198.231 151.637C193.038 146.667 188.342 141.203 184.209 135.323ZM167.822 162.173H173.522C173.657 162.173 173.787 162.226 173.882 162.322C173.978 162.418 174.032 162.547 174.032 162.683C174.032 162.818 173.978 162.948 173.882 163.043C173.787 163.139 173.657 163.193 173.522 163.193H167.822C167.686 163.193 167.557 163.139 167.461 163.043C167.365 162.948 167.312 162.818 167.312 162.683C167.312 162.547 167.365 162.418 167.461 162.322C167.557 162.226 167.686 162.173 167.822 162.173ZM148.964 95.7646C149.029 95.7001 149.11 95.6547 149.199 95.6335C149.289 95.6122 149.382 95.6159 149.469 95.644C149.556 95.6722 149.634 95.7239 149.694 95.7933C149.754 95.8627 149.793 95.9472 149.808 96.0377C149.969 96.6587 149.04 96.5626 146.996 100.212C146.94 100.31 146.852 100.386 146.748 100.429C146.644 100.471 146.528 100.478 146.42 100.448C143.064 99.1796 139.346 99.2765 136.061 100.718C135.461 100.98 134.948 100.103 135.546 99.8371C138.947 98.3237 142.794 98.148 146.319 99.3452C147.054 98.0503 147.942 96.8482 148.964 95.7646ZM119.787 98.5426C121.872 98.5816 123.956 98.6326 126.038 98.7721C126.69 98.8156 126.693 99.8356 126.038 99.7921C123.957 99.6504 121.873 99.5739 119.787 99.5626C119.652 99.5626 119.522 99.5089 119.427 99.4133C119.331 99.3176 119.277 99.1879 119.277 99.0527C119.277 98.9174 119.331 98.7877 119.427 98.692C119.522 98.5964 119.652 98.5426 119.787 98.5426ZM132.374 93.3151L137.946 95.6342C138.546 95.8832 138.281 96.8702 137.675 96.6182L132.102 94.2992C131.504 94.0502 131.768 93.0631 132.374 93.3151Z" fill="#FFDB7F"/>
<path d="M135.547 99.8372C134.947 100.103 135.466 100.98 136.061 100.718C139.346 99.2766 143.065 99.1797 146.42 100.448C146.529 100.479 146.645 100.473 146.75 100.43C146.855 100.387 146.943 100.311 146.999 100.212C147.728 98.8574 148.632 97.6046 149.689 96.4862C149.761 96.4081 149.807 96.3096 149.821 96.2041C149.835 96.0987 149.816 95.9916 149.767 95.8973C149.718 95.8031 149.64 95.7264 149.546 95.6777C149.451 95.629 149.344 95.6107 149.239 95.6252C149.012 95.6627 148.939 95.8022 148.789 95.9627C147.837 96.9905 147.009 98.1257 146.32 99.3452C142.795 98.1481 138.948 98.3238 135.547 99.8372Z" fill="#FFDB7F"/>
<path d="M126.038 98.7722C123.956 98.6327 121.872 98.5142 119.787 98.5427C119.652 98.5427 119.522 98.5965 119.427 98.6921C119.331 98.7877 119.277 98.9175 119.277 99.0527C119.277 99.188 119.331 99.3177 119.427 99.4133C119.522 99.509 119.652 99.5627 119.787 99.5627C121.872 99.6062 123.956 99.6527 126.038 99.7922C126.693 99.8357 126.69 98.8157 126.038 98.7722Z" fill="#FFDB7F"/>
<path d="M137.946 95.6342L132.374 93.3152C131.774 93.0632 131.504 94.0502 132.103 94.2992L137.675 96.6182C138.281 96.8702 138.545 95.8832 137.946 95.6342Z" fill="#FFDB7F"/>
<path d="M144.835 258.321C143.145 257.356 141.399 256.492 139.608 255.732C132.401 255.547 125.254 254.375 118.366 252.249C113.613 252.996 109.003 254.473 104.701 256.628C104.617 256.68 104.549 256.755 104.506 256.845C104.463 256.935 104.448 257.035 104.46 257.134C104.473 257.232 104.514 257.325 104.578 257.401C104.643 257.476 104.727 257.532 104.823 257.561C115.068 259.514 125.501 260.308 135.924 259.928C138.54 259.832 144.324 259.433 144.703 259.316C144.817 259.302 144.924 259.251 145.006 259.171C145.088 259.09 145.141 258.984 145.156 258.87C145.171 258.756 145.148 258.64 145.09 258.541C145.032 258.441 144.942 258.364 144.835 258.321Z" fill="#CFAAFF"/>
<path d="M244.024 142.52C238.749 134.673 220.714 132.17 219.163 131.691C216.055 130.673 213.432 128.543 211.799 125.709C210.165 122.876 209.637 119.538 210.315 116.338C210.992 113.139 212.829 110.302 215.47 108.374C218.112 106.445 221.373 105.561 224.628 105.891C217.115 103.436 209.163 102.621 201.309 103.5C199.547 103.732 197.816 104.15 196.143 104.747C196.545 104.682 196.788 105.174 196.627 105.512C195.412 108.074 195.054 112.412 191.677 113.045C189.648 113.43 188.637 111.545 188.227 109.836C188.208 109.756 188.209 109.673 188.228 109.593C188.247 109.514 188.285 109.44 188.338 109.377C187.588 110.06 186.893 110.8 186.258 111.591C182.685 115.818 180.772 121.199 180.874 126.732C181.259 129.827 182.404 132.778 184.207 135.323C190.182 144.14 197.151 150.623 210.046 163.487C218.71 162.069 228.058 163.037 235.918 160.787C245.469 158.03 249.279 150.333 244.024 142.52Z" fill="#3C0F34"/>
<path d="M170.908 189.119C166.023 184.698 151.78 180.719 145.108 179.919C144.734 179.857 144.354 179.828 143.974 179.834C144.076 179.87 144.163 179.937 144.224 180.025C144.285 180.114 144.316 180.22 144.313 180.327C144.31 180.435 144.273 180.539 144.207 180.624C144.141 180.709 144.05 180.771 143.947 180.801C143.868 180.821 137.086 182.64 136.8 182.723C130.026 184.64 125.919 187.544 121.443 187.01C120.958 187.015 120.479 186.904 120.046 186.687C119.612 186.469 119.237 186.152 118.951 185.76C117.984 183.87 121.039 181.356 122.77 180.125C123.22 179.799 123.702 179.501 124.173 179.196C124.335 179.089 124.517 179.014 124.708 178.977C124.677 178.97 124.646 178.965 124.614 178.964C116.604 178.941 108.789 181.427 102.264 186.072C95.1987 191.361 92.9037 198.47 92.7627 207.072C92.6314 216.236 94.3878 225.329 97.9227 233.784C99.1638 236.848 100.83 239.723 102.873 242.322C102.185 238.205 102.073 234.013 102.541 229.865C102.909 227.212 103.809 224.661 105.187 222.364C106.565 220.067 108.393 218.073 110.56 216.5C119.71 209.75 133.033 215.067 136.767 229.289C138.535 236.039 137.907 243.002 138.165 249.887C138.189 250.545 137.169 250.542 137.145 249.887C136.878 242.79 137.595 235.133 135.294 227.898C131.323 215.415 118.38 210.458 109.575 218.598C107.657 220.359 106.114 222.489 105.039 224.86C103.964 227.231 103.379 229.795 103.32 232.398C103.215 236.188 103.476 239.978 104.101 243.717C115.21 255.404 137.482 256.559 153.639 255.56C156.103 255.42 158.554 255.098 160.971 254.597C155.257 250.397 151.693 243.978 149.52 237.257C146.472 227.825 146.11 217.7 146.332 207.857C146.342 206.419 146.437 204.983 146.617 203.556C147.202 200.17 148.505 196.948 150.436 194.106C152.204 191.468 154.739 189.436 157.698 188.284C160.658 187.133 163.9 186.917 166.986 187.667C168.365 187.93 169.69 188.421 170.908 189.119Z" fill="#CCEAFF"/>
<path d="M275.164 137.745C273.984 130.679 268.984 123.839 263.602 119.919C259.082 116.85 254.183 114.38 249.028 112.569C242.678 110.278 236.188 108.392 229.599 106.925C225.969 106.016 223.929 105.549 221.22 105.999C217.749 106.561 214.642 108.476 212.58 111.324C210.517 114.172 209.668 117.721 210.217 121.194C210.588 123.602 211.621 125.859 213.2 127.714C214.78 129.568 216.845 130.946 219.163 131.694C220.621 132.144 238.767 134.705 244.024 142.523C249.282 150.341 245.469 158.033 235.924 160.782C225.604 163.752 213.102 161.145 202.369 165.609C200.844 166.244 198.858 167.48 199.599 169.448C200.442 171.689 203.281 171.369 205.17 171.219L209.797 170.852C207.068 171.527 204.382 172.364 201.753 173.358C201.336 173.547 200.973 173.835 200.695 174.197C200.417 174.56 200.232 174.985 200.158 175.436C200.118 175.961 200.221 176.488 200.457 176.959C200.692 177.43 201.052 177.829 201.496 178.112C202.412 178.683 203.466 178.994 204.546 179.012C206.178 179.144 207.625 179.145 209.16 179.124C207.755 179.354 206.369 179.683 205.011 180.108C204.216 180.306 203.527 180.801 203.087 181.492C202.647 182.182 202.489 183.016 202.645 183.819C203.118 185.333 204.985 185.966 206.383 186.219C210.541 186.969 214.509 184.907 219.118 185.229C222.445 185.463 226.177 186.764 229.551 187.268C236.787 188.357 244.184 187.342 250.86 184.343C257.535 181.345 263.208 176.49 267.201 170.357C274.309 159.803 276.612 146.4 275.164 137.745ZM269.377 154.359C268.946 156.322 268.259 158.22 267.334 160.004C267.034 160.587 266.154 160.071 266.454 159.488C267.333 157.78 267.986 155.965 268.395 154.088C268.534 153.45 269.518 153.72 269.377 154.359ZM220.251 168.75L223.279 168.429C223.932 168.359 223.924 169.38 223.279 169.449L220.251 169.77C219.6 169.832 219.6 168.81 220.251 168.75ZM223.972 177.9H220.8C220.664 177.9 220.535 177.847 220.439 177.751C220.343 177.655 220.29 177.526 220.29 177.39C220.29 177.255 220.343 177.125 220.439 177.03C220.535 176.934 220.664 176.88 220.8 176.88H223.969C224.104 176.88 224.234 176.934 224.33 177.03C224.425 177.125 224.479 177.255 224.479 177.39C224.479 177.526 224.425 177.655 224.33 177.751C224.234 177.847 224.104 177.9 223.969 177.9H223.972Z" fill="#FFDB7F"/>
<path d="M206.188 208.61C206.088 207.738 205.673 206.932 205.022 206.343C204.371 205.754 203.528 205.422 202.65 205.409C202.096 202.169 199.471 199.68 196.666 201.39C196.347 200.56 195.818 199.826 195.131 199.261C194.443 198.696 193.621 198.319 192.744 198.167C191.868 198.015 190.966 198.093 190.129 198.393C189.291 198.694 188.546 199.206 187.966 199.881C187.883 198.176 187.419 196.511 186.607 195.009C186.376 194.576 186.037 194.21 185.624 193.945C185.21 193.681 184.735 193.528 184.245 193.5C183.655 193.511 183.08 193.681 182.578 193.99C182.077 194.3 181.668 194.739 181.395 195.261C180.384 197.589 180.883 199.059 180.976 203.535C181.135 210.977 180.787 218.422 179.935 225.816C179.662 222.479 178.153 203.457 177.871 201.081C177.521 197.96 176.379 194.98 174.555 192.423C172.867 190.108 170.41 188.469 167.625 187.799C164.461 186.907 161.096 187.038 158.01 188.171C154.924 189.305 152.275 191.383 150.441 194.111C148.511 196.954 147.209 200.175 146.622 203.561C146.441 204.987 146.346 206.423 146.337 207.861C146.115 217.706 146.476 227.831 149.524 237.261C151.346 243.646 154.954 249.378 159.922 253.782C162.922 256.247 166.493 257.918 170.308 258.641C177.73 260.412 186.073 260.723 193.026 257.165C200.415 253.385 202.953 246.065 204.9 238.013C207.135 228.77 208.246 217.935 206.188 208.61ZM203.139 210.044C203.079 210.69 202.059 210.696 202.119 210.044C202.185 209.103 202.185 208.158 202.119 207.216C202.084 206.559 203.104 206.562 203.139 207.216C203.206 208.158 203.206 209.103 203.139 210.044ZM196.282 208.244C196.501 207.177 196.522 206.08 196.345 205.005C196.195 204.365 197.188 204.093 197.329 204.734C197.599 205.982 197.577 207.276 197.266 208.515C197.223 208.637 197.135 208.738 197.021 208.798C196.906 208.858 196.773 208.872 196.648 208.838C196.524 208.804 196.417 208.724 196.349 208.614C196.281 208.504 196.257 208.372 196.282 208.245V208.244ZM176.461 253.64C178.804 253.652 181.147 253.629 183.489 253.676C183.619 253.683 183.742 253.74 183.832 253.835C183.922 253.93 183.972 254.056 183.972 254.187C183.972 254.317 183.922 254.443 183.832 254.538C183.742 254.633 183.619 254.69 183.489 254.697C181.147 254.73 178.804 254.672 176.461 254.66C176.342 254.638 176.234 254.575 176.156 254.482C176.078 254.389 176.036 254.272 176.036 254.151C176.036 254.029 176.078 253.912 176.156 253.819C176.234 253.726 176.342 253.663 176.461 253.641V253.64ZM188.083 200.82C188.109 201.744 188.119 204.329 188.044 206.427C188.02 207.083 186.994 207.084 187.024 206.427C187.089 204.602 187.099 202.484 187.062 200.82C187.069 200.69 187.126 200.567 187.221 200.477C187.316 200.387 187.441 200.337 187.572 200.337C187.703 200.337 187.829 200.387 187.924 200.477C188.019 200.567 188.076 200.69 188.083 200.82Z" fill="#FFDB7F"/>
<path d="M143.976 179.834C143.927 179.818 143.877 179.806 143.826 179.796C137.746 179.178 131.637 178.889 125.526 178.932C125.06 178.875 124.587 178.967 124.176 179.196C123.705 179.496 123.23 179.796 122.774 180.125C121.043 181.355 117.987 183.875 118.955 185.76C119.241 186.152 119.616 186.469 120.049 186.687C120.482 186.904 120.961 187.015 121.446 187.01C125.796 187.529 130.466 184.515 136.803 182.723C137.09 182.64 143.871 180.821 143.951 180.801C144.053 180.77 144.143 180.707 144.208 180.622C144.273 180.537 144.309 180.434 144.312 180.327C144.315 180.22 144.284 180.114 144.224 180.026C144.164 179.937 144.077 179.87 143.976 179.834Z" fill="white"/>
<path d="M196.049 104.763C193.208 105.764 190.594 107.32 188.36 109.34L188.339 109.377C188.286 109.44 188.248 109.514 188.229 109.593C188.209 109.673 188.209 109.756 188.228 109.836C188.637 111.548 189.648 113.436 191.678 113.045C195.051 112.406 195.41 108.074 196.628 105.512C196.675 105.423 196.695 105.324 196.687 105.224C196.678 105.124 196.641 105.029 196.58 104.95C196.519 104.871 196.436 104.812 196.342 104.778C196.248 104.745 196.146 104.74 196.049 104.763Z" fill="white"/>
<path d="M183.489 253.677C181.147 253.625 178.804 253.613 176.461 253.641C176.326 253.641 176.196 253.695 176.101 253.791C176.005 253.886 175.951 254.016 175.951 254.151C175.951 254.287 176.005 254.416 176.101 254.512C176.196 254.608 176.326 254.661 176.461 254.661C178.803 254.708 181.147 254.733 183.489 254.699C183.619 254.692 183.742 254.635 183.832 254.54C183.922 254.445 183.972 254.319 183.972 254.188C183.972 254.057 183.922 253.931 183.832 253.836C183.742 253.741 183.619 253.684 183.489 253.677Z" fill="#FFDB7F"/>
<path d="M196.35 205.007C196.527 206.081 196.506 207.179 196.287 208.245C196.261 208.372 196.284 208.505 196.352 208.615C196.419 208.726 196.527 208.807 196.652 208.842C196.777 208.876 196.911 208.862 197.025 208.801C197.14 208.741 197.228 208.639 197.271 208.517C197.582 207.278 197.603 205.984 197.334 204.735C197.188 204.095 196.2 204.366 196.35 205.007Z" fill="#FFDB7F"/>
<path d="M202.119 207.216C202.186 208.158 202.186 209.103 202.119 210.044C202.059 210.696 203.079 210.692 203.139 210.044C203.205 209.103 203.205 208.158 203.139 207.216C203.1 206.562 202.084 206.559 202.119 207.216Z" fill="#FFDB7F"/>
<path d="M187.024 206.429C187 207.086 188.02 207.084 188.044 206.429C188.123 204.212 188.101 201.479 188.083 200.822C188.076 200.691 188.019 200.568 187.924 200.478C187.829 200.388 187.703 200.338 187.572 200.338C187.441 200.338 187.315 200.388 187.22 200.478C187.125 200.568 187.068 200.691 187.061 200.822C187.099 202.691 187.087 204.56 187.024 206.429Z" fill="#FFDB7F"/>
<path d="M139.537 164.357C137.339 159.257 130.237 158.327 127.987 164.486C127.444 165.791 127.304 167.23 127.585 168.615C127.866 170.001 128.555 171.271 129.563 172.262C130.862 173.337 132.525 173.869 134.206 173.748C135.887 173.628 137.457 172.863 138.589 171.614C139.399 170.608 139.916 169.399 140.083 168.119C140.25 166.838 140.061 165.537 139.537 164.357Z" fill="#FFDB7F"/>
<path d="M142.126 154.8C141.714 154.482 141.205 154.317 140.684 154.332C140.121 154.294 139.555 154.303 138.992 154.361C139.478 153.978 139.941 153.567 140.377 153.129C140.785 152.786 141.07 152.317 141.187 151.796C141.304 151.275 141.247 150.73 141.025 150.245C140.719 149.842 140.284 149.556 139.793 149.434C139.302 149.313 138.783 149.363 138.325 149.577C137.882 149.722 137.453 149.907 137.044 150.131C137.527 149.217 137.704 148.172 137.549 147.15C137.514 146.976 137.444 146.81 137.344 146.663C137.244 146.515 137.115 146.389 136.966 146.291C136.817 146.194 136.65 146.127 136.475 146.094C136.3 146.061 136.12 146.063 135.946 146.1C135.601 146.198 135.28 146.366 135.003 146.594C134.726 146.822 134.5 147.106 134.339 147.426C132.302 150.531 130.664 153.88 129.463 157.394C129.428 157.525 129.446 157.665 129.514 157.783C129.581 157.901 129.693 157.987 129.824 158.022C130.105 158.097 137.72 157.674 139.055 157.604C140.285 157.541 142.067 157.604 142.466 156.117C142.531 155.887 142.534 155.644 142.474 155.413C142.414 155.181 142.294 154.97 142.126 154.8Z" fill="black"/>
<path d="M90.5781 232.526V249.9C90.5781 250.035 90.6319 250.165 90.7275 250.261C90.8231 250.356 90.9529 250.41 91.0881 250.41C91.2234 250.41 91.3531 250.356 91.4487 250.261C91.5444 250.165 91.5981 250.035 91.5981 249.9V232.526C91.5981 232.39 91.5444 232.261 91.4487 232.165C91.3531 232.069 91.2234 232.016 91.0881 232.016C90.9529 232.016 90.8231 232.069 90.7275 232.165C90.6319 232.261 90.5781 232.39 90.5781 232.526Z" fill="#B881FF"/>
<path d="M225.055 232.139V249.9C225.055 250.036 225.108 250.165 225.204 250.261C225.3 250.357 225.429 250.41 225.565 250.41C225.7 250.41 225.83 250.357 225.925 250.261C226.021 250.165 226.075 250.036 226.075 249.9V232.139C226.075 232.004 226.021 231.874 225.925 231.778C225.83 231.683 225.7 231.629 225.565 231.629C225.429 231.629 225.3 231.683 225.204 231.778C225.108 231.874 225.055 232.004 225.055 232.139Z" fill="#B881FF"/>
<path d="M106.649 162.969C103.94 161.118 100.325 160.806 97.1438 160.562C80.7008 159.302 63.9503 166.262 51.2783 177.317C47.5568 180.563 42.5288 186.599 39.8198 185.927C40.7813 183.527 43.3103 178.806 44.0273 177.518C45.4376 174.966 45.9778 172.025 45.566 169.139C45.1542 166.253 43.8128 163.58 41.7452 161.526C39.6776 159.471 36.9964 158.146 34.1081 157.752C31.2198 157.358 28.2818 157.916 25.7393 159.342C23.5304 160.576 21.7115 162.404 20.4893 164.619C14.9858 173.732 6.83933 184.305 7.53383 196.119C7.87433 201.96 10.3118 207.969 15.2288 211.412C18.2768 213.336 21.7738 214.432 25.3748 214.592C34.0628 215.292 42.8026 214.232 51.0716 211.476C59.3405 208.72 66.9685 204.324 73.4993 198.552C77.8807 194.402 82.019 190.002 85.8938 185.375C87.0458 184.074 88.2338 182.675 90.1193 182.696C91.993 182.959 93.8063 183.548 95.4773 184.436C96.277 184.807 97.1492 184.997 98.031 184.992C98.9129 184.986 99.7825 184.785 100.577 184.403C101.231 184.026 101.733 183.432 101.995 182.725C102.257 182.017 102.264 181.24 102.014 180.528C101.682 179.89 101.207 179.337 100.627 178.911C99.4699 177.938 98.2325 177.064 96.9278 176.3C99.3578 177.098 101.78 178.037 104.051 176.409C104.704 175.952 105.158 175.263 105.321 174.483C105.484 173.703 105.344 172.89 104.929 172.209C104.012 170.901 102.079 170.462 100.667 169.959C99.5763 169.576 98.4763 169.223 97.3673 168.899C100.036 168.881 102.701 168.696 105.347 168.347C108.578 167.805 109.949 165.227 106.649 162.969ZM87.9188 175.284C87.2768 175.409 87.0038 174.425 87.6473 174.302C88.7821 174.083 89.9473 174.074 91.0853 174.275C91.7318 174.389 91.4558 175.371 90.8138 175.259C89.8558 175.092 88.8753 175.1 87.9203 175.284H87.9188ZM87.3653 168.066C88.4928 167.788 89.6581 167.695 90.8153 167.792C91.4663 167.847 91.4708 168.869 90.8153 168.812C89.752 168.718 88.6805 168.798 87.6428 169.049C86.9993 169.2 86.7293 168.222 87.3668 168.066H87.3653ZM14.0378 201.915L17.6558 206.865C18.0428 207.396 17.1578 207.905 16.7738 207.38L13.1558 202.43C12.7688 201.9 13.6493 201.39 14.0378 201.915Z" fill="#FFCF53"/>
<path d="M271.782 222.656C271.578 221.535 266.232 175.595 266.211 175.44C266.141 174.795 265.119 174.788 265.191 175.44C265.926 182.175 270.699 222.471 270.851 223.203C271.459 225.838 272.812 228.243 274.751 230.129C277.958 233.771 291.656 250.256 291.656 250.256C292.079 250.758 292.797 250.034 292.377 249.534C290.289 247.047 274.944 228.786 274.259 227.963C272.989 226.437 272.136 224.609 271.782 222.656Z" fill="#3C0F34"/>
<path d="M252.278 250.153C252.669 250.669 253.557 250.153 253.16 249.638L237.87 229.538C236.67 227.962 235.011 226.33 234.852 224.263C234.791 223.182 234.804 222.098 234.89 221.02C234.957 219.89 236.148 194.029 236.447 188.972C236.486 188.317 235.466 188.318 235.427 188.972C234.89 198.068 233.891 220.762 233.799 223.006C233.749 224.028 233.902 225.051 234.249 226.015C235.077 227.824 234.213 226.312 252.278 250.153Z" fill="#3C0F34"/>
<path d="M208.5 232.004L204.66 249.759C204.52 250.4 205.504 250.673 205.644 250.031L209.484 232.275C209.623 231.635 208.639 231.362 208.5 232.004Z" fill="#3C0F34"/>
<path d="M241.026 237.333L238.581 249.759C238.453 250.4 239.437 250.674 239.563 250.031L242.01 237.605C242.136 236.963 241.153 236.688 241.026 237.333Z" fill="#3C0F34"/>
<path d="M44.7578 142.889C43.9433 142.61 43.7873 141.671 43.8458 140.918C43.9793 139.188 46.4048 133.854 44.1893 129.431C43.6216 128.284 42.7147 127.339 41.5916 126.726C40.4685 126.112 39.1838 125.859 37.9118 126C36.8978 126.068 36.6068 126.375 35.6618 126.032C34.3283 125.55 33.1793 124.773 32.0618 125.664C31.516 126.32 31.2413 127.16 31.2938 128.012C30.3728 127.881 29.4338 128.035 28.6027 128.453C27.7716 128.871 27.0881 129.533 26.6438 130.35C25.7742 131.997 25.2389 133.8 25.0688 135.654C24.6945 136.861 24.5812 138.134 24.7364 139.387C24.8916 140.641 25.3117 141.847 25.9688 142.926C28.8998 147.116 35.4863 144.753 44.6303 143.897C44.7526 143.893 44.8694 143.845 44.9598 143.763C45.0503 143.681 45.1084 143.569 45.1237 143.447C45.1391 143.326 45.1107 143.203 45.0436 143.101C44.9766 142.998 44.8752 142.923 44.7578 142.889ZM40.4588 131.111C41.3384 131.967 41.9136 133.087 42.0967 134.301C42.2798 135.515 42.0607 136.755 41.4728 137.832C41.0713 138.554 40.5117 139.176 39.8359 139.65C39.16 140.125 38.3855 140.441 37.5704 140.574C36.7552 140.707 35.9206 140.653 35.129 140.418C34.3373 140.182 33.6093 139.771 32.9993 139.214C27.5828 134.468 36.1853 127.565 40.4588 131.111Z" fill="black"/>
<path d="M267.335 160.004C268.259 158.22 268.946 156.322 269.378 154.359C269.519 153.72 268.535 153.446 268.395 154.088C267.986 155.965 267.334 157.78 266.454 159.488C266.154 160.071 267.033 160.587 267.335 160.004Z" fill="#FFDB7F"/>
<path d="M103.321 232.406C103.722 221.006 113.785 211.641 124.129 215.49C126.823 216.556 129.234 218.231 131.171 220.386C133.109 222.54 134.52 225.114 135.295 227.906C137.587 235.106 136.882 242.727 137.146 249.894C137.17 250.55 138.196 250.553 138.166 249.894C137.908 243.009 138.537 236.039 136.768 229.296C133.035 215.075 119.716 209.762 110.562 216.507C108.394 218.08 106.566 220.075 105.188 222.372C103.81 224.668 102.91 227.219 102.543 229.872C101.652 236.664 102.948 242.856 104.071 250.031C104.173 250.677 105.156 250.403 105.055 249.759C104.01 243.059 103.105 238.538 103.321 232.406Z" fill="#CFAAFF"/>
<path d="M173.522 162.174H167.822C167.686 162.174 167.557 162.228 167.461 162.324C167.365 162.419 167.312 162.549 167.312 162.684C167.312 162.82 167.365 162.949 167.461 163.045C167.557 163.141 167.686 163.194 167.822 163.194H173.522C173.657 163.194 173.787 163.141 173.882 163.045C173.978 162.949 174.032 162.82 174.032 162.684C174.032 162.549 173.978 162.419 173.882 162.324C173.787 162.228 173.657 162.174 173.522 162.174Z" fill="#FFDB7F"/>
<path d="M223.279 168.422L220.251 168.743C219.604 168.81 219.598 169.832 220.251 169.763L223.279 169.442C223.924 169.373 223.932 168.351 223.279 168.422Z" fill="#FFDB7F"/>
<path d="M223.971 176.877H220.798C220.663 176.877 220.533 176.931 220.437 177.027C220.342 177.122 220.288 177.252 220.288 177.387C220.288 177.523 220.342 177.652 220.437 177.748C220.533 177.844 220.663 177.897 220.798 177.897H223.968C224.103 177.897 224.233 177.844 224.328 177.748C224.424 177.652 224.478 177.523 224.478 177.387C224.478 177.252 224.424 177.122 224.328 177.027C224.233 176.931 224.103 176.877 223.968 176.877H223.971Z" fill="#FFDB7F"/>
<path d="M40.4591 131.111C37.0091 128.249 30.5591 132.251 31.3451 136.436C31.6673 137.743 32.4555 138.888 33.5618 139.656C34.6681 140.424 36.0165 140.761 37.3541 140.606C38.2129 140.508 39.0357 140.205 39.7527 139.723C40.4697 139.24 41.0598 138.591 41.4731 137.832C42.0609 136.755 42.2801 135.514 42.097 134.301C41.9139 133.087 41.3386 131.967 40.4591 131.111Z" fill="#FFCF53"/>
<path d="M148.85 74.8291V54.06C148.85 53.9248 148.796 53.7951 148.701 53.6994C148.605 53.6038 148.475 53.55 148.34 53.55C148.205 53.55 148.075 53.6038 147.979 53.6994C147.884 53.7951 147.83 53.9248 147.83 54.06V74.8291C147.83 74.9643 147.884 75.094 147.979 75.1897C148.075 75.2853 148.205 75.3391 148.34 75.3391C148.475 75.3391 148.605 75.2853 148.701 75.1897C148.796 75.094 148.85 74.9643 148.85 74.8291Z" fill="black"/>
<path d="M144.857 75.7414C144.952 75.837 145.082 75.8908 145.217 75.8908C145.353 75.8908 145.482 75.837 145.578 75.7414C145.674 75.6457 145.727 75.5159 145.727 75.3806C145.727 75.2453 145.674 75.1155 145.578 75.0199C142.927 72.2799 140.231 69.5844 137.49 66.9334C137.394 66.8377 137.265 66.7839 137.129 66.7839C136.994 66.7839 136.864 66.8377 136.769 66.9334C136.673 67.029 136.619 67.1588 136.619 67.2941C136.619 67.4294 136.673 67.5592 136.769 67.6549L144.857 75.7414Z" fill="black"/>
<path d="M151.126 75.9589C153.679 73.4879 156.187 70.9729 158.651 68.4139C158.747 68.3182 158.801 68.1885 158.801 68.0531C158.801 67.9178 158.747 67.7881 158.651 67.6924C158.556 67.5967 158.426 67.543 158.291 67.543C158.155 67.543 158.025 67.5967 157.93 67.6924C155.378 70.1634 152.869 72.6784 150.404 75.2374C150.309 75.3331 150.255 75.4628 150.255 75.5981C150.255 75.7335 150.309 75.8632 150.404 75.9589C150.5 76.0546 150.63 76.1083 150.765 76.1083C150.9 76.1083 151.03 76.0546 151.126 75.9589Z" fill="black"/>
<path d="M69.7499 112.524C68.6129 111.518 67.0844 111.866 65.6084 111.738C66.6558 112.924 67.7894 114.031 68.9999 115.05C69.2577 114.985 69.4943 114.855 69.6862 114.671C69.8781 114.487 70.0188 114.256 70.0945 114.001C70.1702 113.746 70.1782 113.476 70.1178 113.217C70.0574 112.958 69.9306 112.719 69.7499 112.524Z" fill="#FFC431"/>
<path d="M120.267 139.088C120.08 133.688 117.708 127.784 113.192 124.776C108.029 121.34 101.885 121.808 97.5065 117.801C92.8565 113.543 89.996 103.811 93.3065 93.8403C95.633 86.8443 100.436 78.7263 97.217 71.0268C95.8822 67.8631 93.6123 65.1829 90.7115 63.3453C89.6826 65.4177 88.2193 67.244 86.4211 68.6999C84.6228 70.1558 82.532 71.2071 80.2909 71.7822C78.0498 72.3573 75.7111 72.4426 73.434 72.0325C71.157 71.6223 68.9951 70.7263 67.0955 69.4053C65.8372 71.0878 64.7328 72.88 63.7955 74.7603L68.1575 72.6603C68.747 72.3753 69.2645 73.2603 68.6735 73.5408C63.2315 76.1613 63.2495 76.1823 63.098 76.2093C62.606 77.2803 62.159 78.3708 61.757 79.4808C61.757 79.4808 64.5695 84.2013 65.5685 86.0223C65.609 86.1006 65.6293 86.1878 65.6274 86.2759C65.6254 86.364 65.6014 86.4503 65.5576 86.5267C65.5137 86.6031 65.4513 86.6673 65.3762 86.7134C65.301 86.7594 65.2155 86.7859 65.1275 86.7903H59.783C58.9858 90.7862 58.8793 94.889 59.468 98.9208C59.9444 102.025 61.0209 105.007 62.6375 107.7C62.9367 107.143 63.379 106.675 63.9189 106.345C64.4588 106.015 65.0768 105.834 65.7095 105.822C67.2095 105.71 69.8555 106.346 70.607 104.531C70.9475 103.706 70.2425 102.96 69.5255 102.662C68.6831 102.382 67.7918 102.28 66.908 102.362C65.333 102.396 63.1475 102.387 62.8115 100.412C62.6714 99.6276 62.8218 98.8192 63.2345 98.1378C64.8095 95.9463 68.0165 96.4758 70.7015 96.8058C71.345 96.8853 71.3495 97.9128 70.7015 97.8258C69.5855 97.6712 68.4617 97.5786 67.3355 97.5483C66.409 97.4748 65.4815 97.6773 64.67 98.1303C64.3212 98.3703 64.0542 98.711 63.9046 99.107C63.755 99.503 63.73 99.9353 63.833 100.346C64.3445 102.465 68.951 100.163 71.069 102.51C71.3297 102.818 71.511 103.186 71.5972 103.58C71.6833 103.974 71.6717 104.384 71.5632 104.773C71.4548 105.161 71.2529 105.518 70.9751 105.81C70.6973 106.103 70.352 106.324 69.9695 106.452C67.5695 107.33 66.6695 106.325 64.4735 107.148C64.1395 107.318 63.8643 107.584 63.684 107.913C63.5036 108.241 63.4264 108.616 63.4625 108.989C63.7904 109.494 64.147 109.98 64.5305 110.444C65.9765 111.105 66.809 110.444 69.353 111.137C69.7158 111.226 70.053 111.399 70.3382 111.64C70.6235 111.881 70.8491 112.185 70.9975 112.528C71.1459 112.871 71.2131 113.244 71.1937 113.617C71.1744 113.99 71.069 114.354 70.886 114.68C70.6365 115.115 70.2802 115.479 69.851 115.737C82.085 125.102 96.0785 125.787 108.515 130.587C118.865 134.583 116.396 144.366 116.886 153.824C116.891 153.945 116.938 154.06 117.019 154.15C117.1 154.239 117.211 154.297 117.331 154.313C117.45 154.329 117.572 154.303 117.674 154.238C117.776 154.173 117.852 154.074 117.888 153.959C119.57 149.185 120.376 144.148 120.267 139.088ZM72.2015 94.7793L67.4165 89.1003C66.995 88.6008 67.7165 87.8763 68.138 88.3788L72.923 94.0623C73.3505 94.5573 72.6245 95.2818 72.2015 94.7793ZM87.863 92.3418C87.629 92.5548 88.421 92.5608 78.908 92.4918C78.7732 92.4903 78.6444 92.4361 78.5491 92.3407C78.4538 92.2454 78.3995 92.1166 78.398 91.9818V83.3868C78.3999 83.2522 78.4543 83.1236 78.5495 83.0284C78.6447 82.9331 78.7733 82.8788 78.908 82.8768H87.503C87.6378 82.8784 87.7666 82.9326 87.8619 83.0279C87.9572 83.1232 88.0114 83.2521 88.013 83.3868C88.082 92.9388 88.0805 92.0523 87.863 92.3418Z" fill="#FFC431"/>
<path d="M65.5683 86.0221C64.5693 84.2011 54.9678 67.8106 54.5073 67.0366C54.4724 66.9786 54.4263 66.9281 54.3718 66.8879C54.3172 66.8478 54.2553 66.8188 54.1895 66.8026C54.1237 66.7864 54.0554 66.7834 53.9884 66.7937C53.9215 66.804 53.8572 66.8274 53.7993 66.8626C53.6388 66.9601 54.1878 65.7136 42.5658 86.0221C42.5219 86.0998 42.4988 86.1876 42.499 86.2768C42.4992 86.3661 42.5226 86.4538 42.567 86.5312C42.6113 86.6087 42.675 86.6733 42.7519 86.7187C42.8288 86.7641 42.9161 86.7887 43.0053 86.7901H65.1273C65.2152 86.7853 65.3005 86.7586 65.3754 86.7125C65.4503 86.6663 65.5125 86.6022 65.5563 86.5259C65.6002 86.4495 65.6242 86.3635 65.6263 86.2755C65.6284 86.1875 65.6085 86.1004 65.5683 86.0221Z" fill="#B881FF"/>
<path d="M87.5015 82.8781H78.9065C78.7718 82.88 78.6432 82.9343 78.548 83.0296C78.4528 83.1248 78.3984 83.2534 78.3965 83.3881V91.9831C78.398 92.1178 78.4523 92.2466 78.5476 92.342C78.6429 92.4373 78.7717 92.4915 78.9065 92.4931C88.3115 92.5606 87.626 92.5561 87.8615 92.3431C88.0745 92.0596 88.0805 93.0676 88.0115 83.3896C88.0103 83.2545 87.9563 83.1253 87.8609 83.0297C87.7656 82.9341 87.6365 82.8796 87.5015 82.8781Z" fill="#FFDB7F"/>
<path d="M81.7483 40.9502C78.8591 39.9035 75.7313 39.7025 72.7318 40.3708C69.7324 41.0391 66.9857 42.5489 64.8141 44.7232C62.6425 46.8974 61.136 49.6459 60.4713 52.6462C59.8066 55.6464 60.0114 58.774 61.0616 61.662C62.1118 64.55 63.9638 67.0786 66.4004 68.9511C68.8369 70.8237 71.757 71.9625 74.818 72.234C77.879 72.5054 80.9539 71.8983 83.682 70.4839C86.4101 69.0694 88.6783 66.9063 90.2203 64.2482C91.4091 62.2038 92.1342 59.9232 92.3443 57.5677C92.5544 55.2121 92.2444 52.8392 91.4362 50.6167C90.6281 48.3942 89.3414 46.3764 87.6674 44.706C85.9933 43.0356 83.9726 41.7535 81.7483 40.9502Z" fill="#CFAAFF"/>
<path d="M69.3534 111.15C66.8649 110.466 65.9934 111.116 64.5309 110.457C64.2144 110.316 63.9447 110.087 63.7534 109.798C63.5622 109.509 63.4575 109.172 63.4515 108.825C63.4455 108.479 63.5385 108.138 63.7196 107.842C63.9008 107.547 64.1624 107.309 64.4739 107.157C66.6459 106.341 67.5729 107.337 69.9699 106.461C70.3525 106.332 70.6977 106.112 70.9755 105.819C71.2533 105.526 71.4553 105.17 71.5637 104.781C71.6721 104.392 71.6838 103.983 71.5976 103.589C71.5115 103.194 71.3301 102.827 71.0695 102.519C68.9694 100.193 64.3404 102.459 63.8334 100.355C63.7305 99.9439 63.7554 99.5117 63.905 99.1157C64.0546 98.7197 64.3217 98.3789 64.6704 98.139C65.4819 97.686 66.4095 97.4834 67.3359 97.557C68.4622 97.5872 69.5859 97.6799 70.7019 97.8345C71.3499 97.9215 71.3454 96.894 70.7019 96.8145C68.0154 96.4845 64.8099 95.955 63.2349 98.1465C62.8223 98.8279 62.6719 99.6363 62.8119 100.421C63.1479 102.393 65.3334 102.402 66.9084 102.371C67.7923 102.289 68.6835 102.391 69.5259 102.671C70.2429 102.971 70.9479 103.721 70.6074 104.54C69.8574 106.355 67.2039 105.719 65.7099 105.831C61.2909 106.164 61.423 111.435 65.371 111.728C65.821 111.785 66.7824 111.788 67.0209 111.791C67.9732 111.707 68.9249 111.957 69.7119 112.5C69.8591 112.629 69.9771 112.788 70.0579 112.966C70.1387 113.144 70.1805 113.337 70.1805 113.533C70.1805 113.728 70.1387 113.922 70.0579 114.1C69.9771 114.278 69.8591 114.437 69.7119 114.566C69.2487 115.008 68.6362 115.259 67.996 115.271C66.305 115.451 64.5998 115.456 62.9079 115.284C62.2554 115.214 62.2599 116.237 62.9079 116.304C64.4463 116.463 65.9965 116.475 67.5369 116.337C71.7894 116.205 72.3009 112.122 69.3534 111.15Z" fill="#CFAAFF"/>
<path d="M15.1348 140.4C15.2702 140.4 15.4001 140.347 15.496 140.251C15.5919 140.155 15.6459 140.026 15.6463 139.89C15.1283 136.01 15.7785 132.064 17.5138 128.555C17.8048 127.968 16.9273 127.452 16.6333 128.04C14.8066 131.705 14.1076 135.829 14.6248 139.89C14.6286 140.024 14.6835 140.152 14.7784 140.247C14.8732 140.342 15.0007 140.397 15.1348 140.4Z" fill="black"/>
<path d="M11.3981 140.285C11.4652 140.285 11.5317 140.272 11.5937 140.247C11.6558 140.221 11.7122 140.184 11.7596 140.136C11.807 140.089 11.8446 140.032 11.8701 139.97C11.8956 139.908 11.9085 139.842 11.9081 139.775C11.3908 135.895 12.0414 131.949 13.7771 128.441C14.0681 127.854 13.1891 127.338 12.8966 127.926C11.0687 131.59 10.3697 135.714 10.8881 139.776C10.8915 139.91 10.9464 140.038 11.0414 140.133C11.1363 140.227 11.2641 140.282 11.3981 140.285Z" fill="black"/>
<path d="M181.441 188.183C181.483 188.305 181.571 188.407 181.686 188.467C181.801 188.528 181.934 188.542 182.06 188.507C182.185 188.473 182.292 188.392 182.36 188.281C182.428 188.171 182.451 188.038 182.425 187.911C181.654 184.911 179.725 178.125 179.6 177.711C179.564 177.581 179.478 177.47 179.36 177.403C179.242 177.336 179.103 177.319 178.972 177.355C178.842 177.391 178.731 177.477 178.664 177.595C178.597 177.713 178.58 177.852 178.616 177.983C179.186 180.195 181.396 188.031 181.441 188.183Z" fill="black"/>
<path d="M184.768 189.362L190.436 178.171C190.736 177.586 189.853 177.068 189.556 177.655L183.887 188.848C183.59 189.431 184.471 189.949 184.768 189.362Z" fill="black"/>
<path d="M186.599 190.103C185.984 190.322 186.249 191.303 186.87 191.087L194.81 188.267C195.425 188.048 195.159 187.067 194.538 187.283L186.599 190.103Z" fill="black"/>
<path d="M53.1728 63.5119C52.8178 61.6689 52.4613 59.8249 52.1033 57.9799C51.9788 57.3364 50.9948 57.6094 51.1193 58.2514L52.1903 63.7819C52.3148 64.4269 53.2973 64.1539 53.1728 63.5119Z" fill="black"/>
<path d="M38.3349 75.5522C39.9474 76.0352 41.5629 76.5077 43.1919 76.9307C43.3203 76.9612 43.4556 76.9407 43.5693 76.8735C43.6829 76.8063 43.7661 76.6976 43.8013 76.5703C43.8364 76.4431 43.8209 76.3071 43.7579 76.1911C43.6948 76.0751 43.5893 75.988 43.4634 75.9482C41.8527 75.4597 40.2335 75.0001 38.6064 74.5697C38.4779 74.5392 38.3426 74.5597 38.2289 74.6269C38.1153 74.6941 38.0321 74.8028 37.9969 74.9301C37.9618 75.0573 37.9773 75.1933 38.0404 75.3093C38.1034 75.4254 38.2089 75.5124 38.3349 75.5522Z" fill="black"/>
<path d="M36.6489 94.7791L40.6989 91.6051C41.2164 91.2016 40.4889 90.4846 39.9789 90.8851L35.9289 94.0576C35.4114 94.4611 36.1374 95.1796 36.6489 94.7791Z" fill="black"/>
<path d="M56.6051 96.2356L55.6616 91.1521C55.5431 90.5071 54.5591 90.7801 54.6791 91.4236L55.6211 96.5071C55.7411 97.1521 56.7236 96.8791 56.6051 96.2356Z" fill="black"/>
<path d="M68.6729 73.5408C69.2639 73.2558 68.7464 72.3753 68.1569 72.6603L62.6534 75.3093C62.0864 75.5823 62.5394 76.3923 63.1034 76.2093C63.2489 76.1823 62.9384 76.3008 68.6729 73.5408Z" fill="black"/>
<path d="M91.0866 174.275C89.9485 174.074 88.7833 174.083 87.6486 174.302C87.0051 174.425 87.2781 175.409 87.9201 175.284C88.8755 175.1 89.8565 175.092 90.8151 175.259C91.4571 175.371 91.7331 174.389 91.0866 174.275Z" fill="black"/>
<path d="M87.6396 169.05C88.6773 168.8 89.7488 168.72 90.8121 168.813C91.4676 168.87 91.4631 167.849 90.8121 167.793C89.6548 167.697 88.4896 167.79 87.3621 168.068C86.7306 168.222 87.0006 169.2 87.6396 169.05Z" fill="black"/>
<path d="M14.0393 201.915C13.6553 201.39 12.7703 201.899 13.1573 202.43L16.7753 207.38C17.1593 207.905 18.0443 207.396 17.6573 206.865L14.0393 201.915Z" fill="black"/>
<path d="M241.512 222.731V217.631C241.512 217.495 241.458 217.366 241.363 217.27C241.267 217.174 241.137 217.121 241.002 217.121C240.867 217.121 240.737 217.174 240.642 217.27C240.546 217.366 240.492 217.495 240.492 217.631V222.731C240.492 222.866 240.546 222.996 240.642 223.091C240.737 223.187 240.867 223.241 241.002 223.241C241.137 223.241 241.267 223.187 241.363 223.091C241.458 222.996 241.512 222.866 241.512 222.731Z" fill="#3C0F34"/>
<path d="M68.1376 88.3742C67.7131 87.8717 66.9946 88.5962 67.4161 89.0957L72.2011 94.7792C72.6241 95.2817 73.3426 94.5572 72.9226 94.0577L68.1376 88.3742Z" fill="black"/>
<path d="M31.7669 227.519L17.7929 249.638C17.4419 250.194 18.3239 250.706 18.6734 250.152L32.6474 228.033C33.0014 227.477 32.1164 226.965 31.7669 227.519Z" fill="black"/>
<path d="M72.2884 249.9C72.1384 245.087 71.6359 229.848 71.5699 227.783C71.5474 227.127 70.5199 227.124 70.5484 227.783L71.2684 249.9C71.2894 250.55 72.3094 250.553 72.2884 249.9Z" fill="black"/>
<path d="M190.386 102.034C191.313 101.738 192.151 101.217 192.828 100.518C193.504 99.8189 193.998 98.9636 194.264 98.0279C195.513 93.5279 190.349 90.1574 186.45 92.6744C185.436 93.3299 184.663 94.2983 184.249 95.4329C183.834 96.5674 183.802 97.8061 184.155 98.9609C184.359 99.5742 184.683 100.141 185.107 100.628C185.532 101.116 186.049 101.514 186.629 101.8C187.208 102.085 187.839 102.253 188.484 102.294C189.129 102.334 189.776 102.246 190.386 102.034ZM185.355 99.2159C184.936 98.3124 184.829 97.2952 185.05 96.324C185.27 95.3527 185.807 94.4823 186.576 93.8489C187.306 93.2348 188.219 92.8808 189.171 92.8427C190.124 92.8047 191.062 93.0848 191.838 93.6389C194.609 95.6039 193.541 99.8459 190.181 101.028C189.293 101.354 188.317 101.35 187.432 101.017C186.546 100.685 185.81 100.046 185.355 99.2159Z" fill="black"/>
<path d="M126.04 98.7722C123.958 98.6327 121.876 98.5142 119.789 98.5427C119.654 98.5427 119.524 98.5965 119.429 98.6921C119.333 98.7877 119.279 98.9175 119.279 99.0527C119.279 99.188 119.333 99.3177 119.429 99.4133C119.524 99.509 119.654 99.5627 119.789 99.5627C121.874 99.5777 123.958 99.6542 126.04 99.7922C126.695 99.8357 126.692 98.8157 126.04 98.7722Z" fill="black"/>
<path d="M137.947 95.6342L132.375 93.3152C131.775 93.0632 131.505 94.0502 132.103 94.2992L137.676 96.6182C138.282 96.8702 138.546 95.8832 137.947 95.6342Z" fill="black"/>
<path d="M71.3149 224.088C69.1886 222.998 66.9762 222.086 64.6999 221.36C69.5226 221.367 74.3271 220.769 79.0009 219.581V249.9C79.0009 250.035 79.0547 250.165 79.1503 250.261C79.246 250.356 79.3757 250.41 79.5109 250.41C79.6462 250.41 79.7759 250.356 79.8716 250.261C79.9672 250.165 80.0209 250.035 80.0209 249.9V219.3C83.1237 218.423 86.0844 217.105 88.8124 215.387C90.1879 225.849 90.2359 226.85 90.7729 230.315L90.7924 230.456C90.7955 230.59 90.8502 230.718 90.9452 230.813C91.0402 230.908 91.1681 230.963 91.3024 230.966H96.8314C98.1797 235.068 100.221 238.909 102.866 242.322C103.19 244.619 103.616 247.112 104.073 250.034C104.174 250.68 105.156 250.406 105.056 249.762C104.744 247.758 104.403 245.745 104.103 243.728C108.084 247.699 112.984 250.627 118.367 252.252C113.615 253.006 109.007 254.482 104.702 256.631C104.617 256.683 104.55 256.758 104.507 256.848C104.464 256.938 104.448 257.038 104.461 257.136C104.474 257.235 104.515 257.328 104.579 257.403C104.644 257.479 104.728 257.535 104.823 257.564C117.961 260.086 131.396 260.678 144.704 259.319C144.818 259.305 144.925 259.254 145.007 259.173C145.089 259.093 145.142 258.987 145.157 258.873C145.172 258.759 145.149 258.643 145.09 258.543C145.032 258.444 144.943 258.367 144.836 258.324C143.147 257.359 141.401 256.494 139.61 255.735C146.751 256.155 153.916 255.776 160.973 254.607C161.844 255.255 162.764 255.835 163.724 256.343C165.821 257.363 168.03 258.136 170.306 258.647C181.13 261.387 193.77 260.259 199.856 251.078C202.284 247.052 203.988 242.632 204.891 238.019C205.455 235.689 205.941 233.336 206.315 230.969H225.558C225.693 230.968 225.823 230.914 225.918 230.818C226.014 230.723 226.068 230.594 226.068 230.459L220.143 185.343C223.307 185.733 226.397 186.809 229.542 187.269C252.656 190.787 271.929 173.235 275.088 149.486C275.719 145.601 275.742 141.643 275.159 137.751C274.493 134.138 273.066 130.709 270.974 127.689C265.638 119.73 258.12 115.989 249.023 112.569C249.108 111.887 248.981 111.195 248.658 110.588C247.551 108.587 245.048 108.875 243.768 106.907C243.35 106.238 243.072 105.494 242.696 104.807C241.13 101.928 237.735 101.376 234.746 101.493C232.839 101.726 230.91 101.71 229.007 101.447C228.663 101.39 228.336 101.262 228.045 101.07C227.755 100.878 227.508 100.627 227.321 100.334C226.382 98.5246 226.977 96.4966 225.837 94.6156C225.078 93.4134 223.94 92.4982 222.603 92.0146C219.192 90.7066 215.603 91.7581 212.093 91.4656C211.408 91.4339 210.745 91.2129 210.178 90.827C209.611 90.4412 209.162 89.9057 208.881 89.2801C207.617 86.8801 207.638 84.3901 204.989 82.6801C200.708 80.2666 195.839 82.9801 191.855 84.4036C186.465 86.3386 184.725 83.5771 181.556 83.9626C180 84.2438 178.594 85.0657 177.585 86.2831C176.454 87.3573 175.661 88.7391 175.305 90.2584C174.949 91.7776 175.045 93.3679 175.581 94.8331C177.243 97.9546 178.85 98.2066 180 101.03C180.854 103.785 177.59 106.139 178.566 108.878C179.585 111.735 183.27 111.549 185.595 112.445C183.283 115.535 181.728 119.126 181.058 122.928C179.645 127.505 178.847 129.722 176.763 132.548C175.679 134.059 174.224 135.265 172.538 136.052C170.995 136.542 169.332 136.501 167.815 135.935C166.299 135.368 165.016 134.309 164.172 132.927C160.097 126.027 166.272 95.2081 161.022 82.8646C159.009 78.0451 151.751 79.4836 149.994 84.7246C149.276 88.0017 148.902 91.3448 148.878 94.6996C143.328 89.7931 138.311 85.6546 132.555 82.7356C130.436 81.6451 126.066 79.6621 124.698 82.8691C124.478 83.6673 124.45 84.5063 124.615 85.3176C124.781 86.1288 125.137 86.8894 125.652 87.5371C126.534 88.8446 127.502 90.0914 128.55 91.2691C124.786 89.6388 120.743 88.7495 116.642 88.6501C114.798 88.5622 112.976 89.076 111.45 90.1141C110.701 90.7466 110.205 91.6271 110.051 92.5952C109.897 93.5633 110.096 94.5545 110.612 95.3881C111.602 96.9433 113.135 98.0746 114.912 98.5621C112.657 98.8372 110.536 99.7842 108.825 101.28C108.278 101.754 107.875 102.372 107.663 103.064C107.451 103.756 107.438 104.494 107.625 105.194C107.869 105.869 108.257 106.483 108.762 106.994C109.267 107.504 109.878 107.899 110.55 108.15C111.981 108.647 113.481 108.915 114.995 108.945C120.158 109.323 129.267 109.164 134.508 108.989C134.808 120.005 135.375 133.545 138.969 144.347H120.069C120.272 142.604 120.339 140.849 120.27 139.097C120.108 133.847 117.764 127.826 113.195 124.784C108.14 121.419 101.766 121.706 97.5109 117.809C92.7529 113.459 90.0424 103.488 93.3109 93.8476C95.5789 86.8846 100.449 78.8476 97.2215 71.0341C95.8846 67.8716 93.6152 65.1919 90.7159 63.3526C92.6812 59.4884 93.048 55.0064 91.7373 50.8741C90.4266 46.7418 87.5434 43.2906 83.7103 41.2656C79.8771 39.2406 75.4013 38.8041 71.2491 40.0504C67.0969 41.2968 63.6014 44.1259 61.517 47.9272C59.4327 51.7284 58.9267 56.1969 60.1084 60.3679C61.29 64.539 64.0645 68.0781 67.8329 70.2212C71.6013 72.3644 76.0613 72.9397 80.2503 71.8231C84.4392 70.7064 88.021 67.9872 90.2224 64.2526C92.4584 65.6195 94.2891 67.5583 95.5255 69.869C96.7619 72.1797 97.3593 74.7785 97.2559 77.3971C96.8914 85.2706 91.2634 92.1196 90.8599 101.321C90.6488 105.602 91.4941 109.869 93.3214 113.747C97.6534 122.973 105.876 121.521 112.071 125.282C116.79 128.357 118.983 133.451 119.243 139.1C119.357 142.995 118.875 146.886 117.815 150.636C117.836 144.786 118.514 138.5 114.708 133.727C112.22 130.607 108.266 129.315 104.595 128.177C93.2284 124.629 80.3914 122.727 70.6264 115.074C70.8935 114.759 71.0756 114.381 71.1552 113.976C71.2347 113.571 71.2093 113.152 71.0811 112.76C70.953 112.367 70.7265 112.014 70.4232 111.734C70.1199 111.454 69.7499 111.256 69.3484 111.159C68.2985 110.871 67.2094 110.751 66.1219 110.805C65.2821 109.832 64.5141 108.799 63.8239 107.715C63.9934 107.486 64.2143 107.299 64.4689 107.171C66.6304 106.359 67.5919 107.343 69.9649 106.475C70.3475 106.346 70.6927 106.126 70.9705 105.833C71.2483 105.54 71.4503 105.184 71.5587 104.795C71.6671 104.406 71.6788 103.997 71.5926 103.602C71.5065 103.208 71.3251 102.841 71.0644 102.533C68.9419 100.181 64.3144 102.491 63.8284 100.368C63.7228 99.9576 63.7465 99.5244 63.8963 99.1279C64.0461 98.7313 64.3147 98.3907 64.6654 98.1526C65.4769 97.6995 66.4045 97.497 67.3309 97.5706C68.4571 97.5945 69.5807 97.6877 70.6954 97.8496C71.3464 97.9291 71.3404 96.9076 70.6954 96.8281C68.8523 96.4321 66.9464 96.4291 65.1019 96.8191C64.3316 97.0171 63.6656 97.501 63.2392 98.1726C62.8129 98.8441 62.6584 99.6527 62.8069 100.434C63.1069 102.411 65.3269 102.416 66.9034 102.384C67.7873 102.301 68.6788 102.403 69.5209 102.684C70.2379 102.984 70.9444 103.734 70.6009 104.553C69.8509 106.368 67.1959 105.711 65.7049 105.845C64.812 105.899 63.9607 106.241 63.2779 106.82C59.7634 100.707 59.5204 93.6001 60.8044 86.8126H65.1229C65.1921 86.809 65.2599 86.7917 65.3224 86.7618C65.3849 86.7319 65.4409 86.69 65.4871 86.6385C65.5334 86.5869 65.569 86.5267 65.592 86.4614C65.6149 86.396 65.6248 86.3268 65.6209 86.2576C65.6059 85.9576 63.7144 82.8691 62.4259 80.6596C63.0221 78.9117 63.7306 77.2041 64.5469 75.5476L68.6689 73.5631C69.2599 73.2781 68.7424 72.3976 68.1529 72.6826L65.3314 74.0401C66.1056 72.6177 66.9809 71.2527 67.9504 69.9556C67.6594 69.7809 67.3737 69.5973 67.0939 69.4051C65.8351 71.0872 64.7306 72.8795 63.7939 74.7601L62.6524 75.3091C62.0854 75.5821 62.5414 76.3921 63.1024 76.2091C62.6104 77.2801 62.1604 78.3711 61.7524 79.4821L54.5029 67.0321C54.3229 66.7321 53.8804 66.6211 53.5249 67.1476C52.9459 68.0086 50.8534 71.5276 42.5614 86.0176C42.5175 86.0953 42.4944 86.183 42.4946 86.2723C42.4948 86.3616 42.5182 86.4492 42.5626 86.5267C42.6069 86.6042 42.6706 86.6688 42.7475 86.7142C42.8244 86.7596 42.9117 86.7842 43.0009 86.7856H59.7829C58.9999 90.783 58.8935 94.8835 59.4679 98.9161C59.9546 102.019 61.0299 105.001 62.6359 107.7C61.8964 109.359 62.8234 111.504 65.6029 111.74C66.6523 112.925 67.7879 114.032 69.0004 115.05C66.9984 115.452 64.9447 115.53 62.9179 115.281C62.2654 115.212 62.2699 116.232 62.9179 116.301C64.4564 116.459 66.0064 116.47 67.5469 116.334C68.3514 116.31 69.1407 116.109 69.8584 115.745C82.2529 125.234 96.2974 125.795 108.521 130.595C110.278 131.177 111.87 132.173 113.162 133.498C114.454 134.824 115.408 136.441 115.944 138.213C116.519 140.205 116.817 142.267 116.829 144.341H80.0614C79.9264 144.341 79.7972 144.395 79.7017 144.491C79.6062 144.586 79.5522 144.716 79.5514 144.851L81.7594 161.666C81.1789 161.79 80.5984 161.918 80.0209 162.06V153.674C80.0209 153.538 79.9672 153.409 79.8716 153.313C79.7759 153.217 79.6462 153.164 79.5109 153.164C79.3757 153.164 79.246 153.217 79.1503 153.313C79.0547 153.409 79.0009 153.538 79.0009 153.674V162.329C76.2766 163.05 73.6032 163.952 70.9984 165.029C68.4379 159.698 65.7604 154.079 60.6484 150.252C56.4671 147.285 51.4192 145.79 46.2964 146.001C43.0383 146.022 39.8227 146.743 36.8674 148.115C32.124 150.415 27.977 153.781 24.7504 157.95C23.0451 159.978 21.6139 162.222 20.4934 164.624C14.4694 174.329 6.87795 184.776 7.53945 196.124C7.87845 201.965 10.3159 207.974 15.2329 211.416C18.2818 213.338 21.7783 214.434 25.3789 214.596C29.9772 215.007 34.6075 214.889 39.1789 214.245C42.122 216.59 45.4976 218.334 49.1134 219.377C43.6979 219.64 38.3821 220.932 33.4504 223.185C32.9659 223.407 33.2389 224.124 33.7084 224.136L71.0584 225.036C71.1691 225.034 71.2761 224.996 71.3633 224.928C71.4505 224.86 71.5133 224.765 71.5422 224.658C71.5711 224.551 71.5646 224.438 71.5236 224.335C71.4826 224.233 71.4094 224.146 71.3149 224.088ZM85.8919 67.8316C83.5818 69.7356 80.759 70.9119 77.7804 71.2116C74.8018 71.5114 71.8013 70.9212 69.1581 69.5157C66.5149 68.1101 64.3479 65.9524 62.931 63.3153C61.5141 60.6782 60.911 57.6802 61.198 54.7003C61.4849 51.7205 62.649 48.8926 64.5431 46.5744C66.4372 44.2561 68.9761 42.5515 71.839 41.6762C74.7018 40.8009 77.7598 40.7941 80.6265 41.6568C83.4931 42.5194 86.0396 44.2127 87.9439 46.5226C90.481 49.6273 91.6889 53.6085 91.3046 57.5995C90.9202 61.5905 88.9748 65.2681 85.8919 67.8316ZM43.8919 85.7701L54.0649 68.3071L64.2394 85.7701H43.8919ZM69.8614 114.383L69.8329 114.416C68.8426 113.597 67.9043 112.717 67.0234 111.782C67.9758 111.7 68.9267 111.954 69.7114 112.5C69.9804 112.73 70.1471 113.058 70.1752 113.41C70.2033 113.763 70.0905 114.113 69.8614 114.383ZM142.95 258.45C130.833 259.531 118.625 258.991 106.65 256.845C111.109 254.762 115.892 253.46 120.791 252.995C125.192 254.193 129.694 254.985 134.24 255.36C136.709 255.587 136.052 255.417 137.066 255.81C139.08 256.568 141.045 257.45 142.95 258.45ZM147.845 254.793C132.87 255.041 113.645 253.349 103.85 241.904C103.383 238.759 103.207 235.578 103.322 232.401C103.387 229.799 103.974 227.237 105.048 224.866C106.123 222.495 107.663 220.365 109.577 218.601C118.245 210.534 131.411 215.354 135.296 227.901C137.618 235.013 136.881 242.528 137.145 249.891C137.171 250.547 138.195 250.55 138.167 249.891C137.909 243.006 138.539 236.036 136.767 229.293C132.912 214.604 119.367 209.96 110.562 216.504C108.401 218.084 106.578 220.08 105.201 222.375C103.824 224.671 102.92 227.219 102.543 229.869C102.132 233.35 102.154 236.868 102.609 240.344C97.7554 233.651 94.8094 222.225 94.0594 213.995C93.3274 205.937 93.6094 196.971 99.0814 190.49C104.813 183.702 113.817 180.699 122.747 180.086C122.243 180.443 121.751 180.819 121.28 181.221C120.301 181.958 119.499 182.904 118.934 183.992C118.697 184.443 118.648 184.969 118.799 185.456C118.95 185.943 119.289 186.349 119.739 186.587C123.951 188.519 129.411 184.908 137.672 182.48C138.449 182.262 142.706 181.118 143.72 180.86C145.67 180.57 158.841 183.387 166.991 187.667C163.905 186.915 160.663 187.13 157.703 188.282C154.743 189.434 152.209 191.468 150.443 194.108C148.504 196.945 147.201 200.169 146.625 203.558C146.432 204.983 146.337 206.42 146.339 207.858C145.967 217.698 146.478 227.828 149.526 237.258C151.348 243.643 154.955 249.375 159.924 253.779C155.932 254.447 151.892 254.787 147.845 254.796V254.793ZM124.554 180.162C124.765 180.012 125.021 179.941 125.279 179.961C130.441 179.875 135.604 180.078 140.744 180.57C130.212 183.242 127.251 185.85 122.814 186.048C121.924 186.142 121.025 185.996 120.21 185.627C120.084 185.57 119.977 185.477 119.903 185.36C119.829 185.243 119.791 185.107 119.793 184.968C119.918 184.272 120.273 183.638 120.801 183.168C121.909 181.999 123.171 180.987 124.554 180.162ZM205.079 232.221C204.28 236.862 203.068 241.422 201.458 245.847C197.415 256.832 187.106 260.097 175.637 258.635C171.904 258.162 168.253 257.185 164.783 255.732C158.99 252.944 154.883 247.464 152.258 241.589C148.541 233.288 147.413 223.938 147.267 214.926C147.203 210.854 147.399 206.021 147.513 204.576C147.792 202.275 148.438 200.033 149.427 197.937C151.806 192.548 156.294 188.702 162.156 188.405C164.958 187.927 167.838 188.455 170.288 189.894C172.739 191.332 174.603 193.59 175.551 196.269C177.006 199.719 176.942 201.843 177.543 209.195C177.555 209.345 179.277 230.597 179.328 230.747C179.345 230.872 179.408 230.987 179.506 231.068C179.603 231.149 179.728 231.191 179.854 231.184C179.981 231.177 180.101 231.123 180.189 231.033C180.278 230.942 180.329 230.821 180.332 230.694C181.72 220.951 182.254 211.106 181.928 201.27C181.831 200.038 181.801 198.801 181.836 197.565C181.816 197.051 181.917 196.539 182.132 196.072C182.347 195.604 182.67 195.194 183.074 194.876C183.409 194.621 183.824 194.496 184.244 194.524C184.664 194.551 185.06 194.73 185.358 195.026C186.041 195.882 186.481 196.905 186.633 197.99C187.141 200.77 187.272 203.607 187.025 206.423C187.001 207.08 188.021 207.078 188.045 206.423C188.105 204.734 188.115 203.042 188.087 201.351C190.059 198.066 195.125 198.47 195.836 202.191C195.881 202.532 196.25 202.883 196.604 202.631C197.205 202.13 197.963 201.856 198.746 201.858C199.334 201.935 199.873 202.227 200.258 202.679C201.09 203.658 201.609 204.863 201.749 206.141C201.785 206.271 201.871 206.382 201.989 206.449C202.106 206.515 202.245 206.533 202.376 206.498C202.829 206.385 203.308 206.432 203.731 206.63C204.154 206.828 204.497 207.165 204.701 207.585C205.164 208.53 205.449 209.553 205.542 210.602C206.601 217.783 206.445 225.092 205.079 232.221ZM258.585 117.989C268.01 122.958 274.82 132.173 274.572 143.144C274.304 170.391 252.464 192.302 225.264 185.354C216.138 182.907 215.162 184.929 208.587 185.354C207.678 185.378 206.769 185.277 205.887 185.054C205.179 184.891 204.522 184.558 203.972 184.083C203.735 183.836 203.59 183.514 203.563 183.172C203.536 182.831 203.627 182.49 203.822 182.208C204.722 180.945 206.003 180.83 208.406 180.321L217.283 178.446C217.937 178.308 217.646 177.366 217.013 177.462C213.422 178.008 209.788 178.213 206.159 178.074C205.126 178.08 204.096 177.968 203.088 177.741C202.613 177.646 202.177 177.413 201.833 177.071C201.49 176.729 201.255 176.293 201.158 175.818C201.098 174.948 201.806 174.414 202.523 174.11C207.181 172.493 211.949 171.214 216.791 170.282C216.906 170.245 217.005 170.169 217.07 170.067C217.135 169.965 217.161 169.843 217.145 169.723C217.129 169.603 217.071 169.493 216.981 169.412C216.891 169.331 216.775 169.284 216.654 169.28L205.254 170.18C204.162 170.368 203.046 170.368 201.954 170.18C201.096 169.943 200.169 169.169 200.552 168.18C200.981 167.444 201.672 166.896 202.487 166.647C213.021 162.156 224.615 164.759 235.476 161.949C239.66 161.095 243.357 158.667 245.804 155.168C246.841 153.571 247.407 151.715 247.434 149.811C247.327 145.998 245.736 142.377 243 139.718C240.051 136.983 233.016 134 229.169 132.834C224.555 131.484 221.916 131.784 217.826 130.041C215.649 128.95 213.847 127.236 212.648 125.116C211.45 122.997 210.91 120.569 211.097 118.141C211.285 115.713 212.191 113.397 213.701 111.486C215.211 109.576 217.255 108.159 219.573 107.415C221.997 106.661 224.589 106.646 227.021 107.372C237.842 109.866 248.732 112.638 258.585 117.989ZM181.899 110.411C181.396 110.307 180.923 110.09 180.516 109.776C180.109 109.463 179.779 109.06 179.55 108.6C179.352 107.276 179.662 105.925 180.417 104.82C181.08 103.627 181.297 102.237 181.028 100.899C180.359 98.4196 177.944 96.9541 176.714 94.7986C175.182 92.1121 176.501 88.8556 178.491 86.7991C178.987 86.2017 179.612 85.7249 180.319 85.405C181.026 85.085 181.797 84.9303 182.573 84.9526C184.251 85.1026 185.786 85.9336 187.473 86.0791C190.937 86.3791 194.024 84.4936 197.195 83.4406C199.595 82.6456 202.787 82.1611 204.927 83.8591C206.939 85.4566 206.984 88.3366 208.344 90.3691C208.713 90.9369 209.202 91.4159 209.778 91.7715C210.354 92.1272 211.002 92.3506 211.674 92.4256C213.529 92.5976 215.396 92.5775 217.247 92.3656C219.999 92.2351 223.635 92.5336 225.069 95.3281C226.209 97.5496 225.153 100.968 227.96 102.171C229.648 102.7 231.433 102.842 233.183 102.588C234.818 102.405 236.472 102.452 238.094 102.728C239.502 102.967 240.757 103.755 241.586 104.918C242.375 106.158 242.718 107.652 243.927 108.591C245.327 109.676 248.088 109.941 248.015 112.191C237.314 108.291 226.377 106.331 222.47 105.264C214.953 103.214 205.751 102.32 198.705 103.986C193.831 105.079 189.454 107.753 186.255 111.591C184.827 111.116 183.373 110.721 181.899 110.411ZM195.249 106.187C194.838 107.295 194.513 108.437 194.028 109.512C193.828 110.116 193.485 110.663 193.028 111.107C192.572 111.55 192.016 111.878 191.406 112.062C190.145 112.269 189.573 110.921 189.293 109.886C191.062 108.332 193.076 107.082 195.254 106.187H195.249ZM181.983 123.566C182.709 118.718 184.958 114.226 188.405 110.741C188.639 111.591 189.178 112.325 189.918 112.803C190.441 113.043 191.019 113.136 191.59 113.071C192.161 113.006 192.703 112.787 193.158 112.436C195.32 110.808 195.54 107.901 196.67 105.636C204.17 103.125 213.645 104.076 221.216 105.993C218.28 106.463 215.588 107.906 213.57 110.089C211.553 112.273 210.327 115.071 210.09 118.034C209.853 120.997 210.618 123.955 212.262 126.431C213.907 128.908 216.336 130.76 219.159 131.691C222.107 132.566 225.828 132.764 230.535 134.348C233.978 135.551 237.284 137.115 240.398 139.013C245.07 141.95 247.812 148.541 245.597 153.399C240.69 164.156 223.305 161.634 211.301 163.299C196.853 148.871 192.516 144.926 186.245 136.5C184.514 134.245 183.187 131.708 182.321 129C181.819 127.234 181.705 125.38 181.988 123.566H181.983ZM135.509 108.462C135.508 108.327 135.454 108.198 135.359 108.102C135.263 108.007 135.134 107.953 134.999 107.952C129.369 108.015 119.934 108.413 113.963 107.837C112.419 107.828 110.916 107.344 109.658 106.449C109.107 106.044 108.724 105.451 108.581 104.783C108.438 104.115 108.544 103.417 108.881 102.822C109.791 101.553 111.104 100.629 112.605 100.2C114.135 99.7204 115.707 99.3884 117.3 99.2086C117.819 99.1336 117.75 98.3461 117.3 98.2246C115.249 97.9138 113.351 96.9514 111.888 95.4796C111.593 95.1614 111.365 94.7867 111.219 94.3781C111.072 93.9694 111.01 93.5354 111.036 93.102C111.062 92.6687 111.176 92.2452 111.37 91.8569C111.564 91.4687 111.835 91.1238 112.166 90.8431C113.532 89.9603 115.15 89.5493 116.772 89.6731C121.538 89.79 126.209 91.0279 130.407 93.2866C130.515 93.3446 130.639 93.3626 130.758 93.3373C130.877 93.312 130.984 93.245 131.058 93.1485C131.132 93.0519 131.17 92.932 131.164 92.8103C131.158 92.6885 131.109 92.5729 131.025 92.4841C129.543 90.9227 128.165 89.2651 126.9 87.5221C125.993 86.4845 125.496 85.1507 125.504 83.7721C125.688 82.3516 127.095 81.9721 128.301 82.1941C129.777 82.4903 131.19 83.0421 132.476 83.8246C137.09 86.334 141.387 89.3862 145.275 92.9161C146.457 93.9161 147.629 94.9301 148.79 95.9581C147.839 96.9864 147.01 98.1214 146.321 99.3406C142.795 98.1472 138.95 98.3228 135.548 99.8326C134.948 100.098 135.467 100.977 136.062 100.713C139.348 99.2772 143.065 99.1804 146.421 100.443C146.53 100.475 146.646 100.469 146.751 100.427C146.856 100.385 146.943 100.31 147 100.212C147.729 98.8573 148.634 97.6044 149.69 96.4861C149.815 96.2761 149.882 96.0362 149.883 95.7916C149.901 92.6271 150.155 89.4683 150.642 86.3416C150.841 85.23 151.295 84.1798 151.97 83.2741C152.72 82.2038 153.836 81.445 155.107 81.1411C156.378 80.8371 157.717 81.0089 158.87 81.6241C159.518 82.1522 160.005 82.851 160.277 83.6416C165.167 96.4576 158.972 126.105 163.305 133.442C163.919 134.532 164.782 135.462 165.825 136.154C166.868 136.846 168.06 137.28 169.304 137.421C170.547 137.562 171.806 137.405 172.978 136.964C174.149 136.523 175.199 135.811 176.04 134.885C178.329 132.632 179.998 129.827 180.887 126.741C181.287 129.832 182.431 132.78 184.22 135.332C188.146 140.942 192.598 146.166 197.516 150.932C195.559 153.567 193.377 156.026 190.992 158.282C188.757 160.483 186.179 162.307 183.359 163.682C170.759 168.984 156.044 164.199 146.111 154.271C142.761 150.957 140.42 146.761 139.361 142.17C136.295 131.342 135.809 119.898 135.509 108.462ZM80.6554 145.365H116.85C116.871 148.163 116.718 150.416 116.894 153.836C116.898 153.956 116.945 154.072 117.027 154.161C117.108 154.251 117.218 154.309 117.338 154.325C117.458 154.341 117.58 154.314 117.682 154.25C117.784 154.185 117.86 154.086 117.896 153.971C118.838 151.17 119.524 148.29 119.945 145.365H139.328C140.212 148.001 141.546 150.463 143.273 152.642C151.506 162.852 167.045 169.775 181.017 165.59C188.153 163.451 193.73 157.575 198.228 151.64C202.139 155.609 206.097 159.534 210.042 163.47C207.415 163.903 204.842 164.616 202.367 165.599C200.843 166.238 198.855 167.469 199.596 169.437C200.439 171.678 203.279 171.359 205.167 171.209C208.559 170.939 209.795 170.843 209.795 170.843C209.795 170.843 209.333 170.946 208.763 171.101C207.47 171.453 206.192 171.86 204.902 172.229C203.825 172.521 202.772 172.895 201.752 173.348C201.335 173.535 200.972 173.823 200.693 174.186C200.415 174.548 200.231 174.974 200.157 175.425C200.119 175.95 200.223 176.476 200.458 176.947C200.694 177.418 201.052 177.817 201.495 178.101C202.413 178.668 203.466 178.979 204.545 179.001C206.169 179.133 207.63 179.136 209.159 179.114C207.754 179.343 206.368 179.672 205.01 180.098C204.215 180.295 203.527 180.791 203.087 181.481C202.647 182.172 202.488 183.005 202.644 183.809C203.117 185.322 204.984 185.954 206.382 186.209C210.54 186.959 214.508 184.896 219.117 185.22C224.315 224.81 224.924 229.592 224.967 229.937H206.475C207.638 222.864 207.541 215.642 206.189 208.604C206.089 207.731 205.675 206.924 205.024 206.335C204.372 205.746 203.529 205.414 202.65 205.403C202.097 202.157 199.47 199.676 196.668 201.384C196.347 200.555 195.818 199.824 195.13 199.26C194.443 198.697 193.621 198.321 192.745 198.169C191.869 198.017 190.969 198.094 190.132 198.393C189.295 198.692 188.55 199.203 187.968 199.875C187.889 198.169 187.424 196.504 186.609 195.003C186.378 194.57 186.039 194.204 185.625 193.941C185.211 193.678 184.736 193.526 184.245 193.5C183.656 193.511 183.081 193.68 182.579 193.99C182.078 194.3 181.669 194.739 181.395 195.261C180.383 197.594 180.884 199.091 180.977 203.535C181.135 210.977 180.787 218.421 179.936 225.816C179.663 222.479 178.169 203.456 177.872 201.081C176.868 192.222 171.077 187.976 162.833 184.679C151.239 180.099 144.054 179.54 132.437 179.037C121.544 178.565 111.318 179.286 102.276 186.074C95.2579 191.313 92.9314 198.386 92.7754 207.074C92.6597 214.853 93.9128 222.592 96.4774 229.937H91.7449L85.8949 185.369C87.0484 184.068 88.2349 182.669 90.1219 182.69C91.9957 182.953 93.8089 183.542 95.4799 184.43C96.2796 184.801 97.1518 184.991 98.0336 184.986C98.9155 184.98 99.7851 184.779 100.58 184.397C101.234 184.02 101.735 183.426 101.998 182.719C102.26 182.011 102.267 181.234 102.017 180.522C101.684 179.884 101.209 179.331 100.629 178.905C99.4729 177.931 98.2355 177.057 96.9305 176.294C99.3604 177.092 101.783 178.031 104.054 176.403C104.706 175.946 105.16 175.257 105.323 174.477C105.486 173.697 105.346 172.884 104.931 172.203C104.015 170.895 102.081 170.456 100.671 169.953C99.5794 169.57 98.4794 169.217 97.3714 168.893C100.041 168.874 102.706 168.69 105.353 168.341C108.582 167.798 109.976 165.224 106.664 162.96C103.955 161.109 100.338 160.799 97.157 160.553C92.3414 160.19 87.4989 160.493 82.7659 161.453C82.4854 159.431 80.6914 145.632 80.6554 145.365ZM50.5504 147.3C51.2423 147.323 51.9233 147.48 52.5559 147.761C53.1601 148.157 53.7172 148.62 54.2164 149.142C56.7229 151.716 55.9474 153.713 54.4069 154.194C54.4504 154.184 54.4954 154.17 54.5404 154.157C53.8324 154.356 53.0849 154.37 52.3699 154.197C48.8254 153.395 46.8199 149.205 43.0894 147.297C45.5625 146.924 48.0777 146.925 50.5504 147.3ZM39.4279 148.2C40.0466 147.983 40.6784 147.804 41.3194 147.666C41.6314 147.738 41.9304 147.857 42.2059 148.02C45.7864 149.699 47.6974 153.758 51.5194 155.036C56.1424 156.584 59.0734 152.57 55.0069 148.418C63.1069 151.268 66.5254 158.136 70.0804 165.419C63.2354 168.388 56.8929 172.403 51.2794 177.318C47.6794 180.452 42.5419 186.603 39.8209 185.928C40.7779 183.54 43.1419 179.099 44.0284 177.519C45.5154 174.831 46.0338 171.714 45.4969 168.689C44.96 165.664 43.4003 162.916 41.079 160.904C38.7577 158.892 35.8157 157.738 32.7454 157.636C29.6752 157.535 26.6631 158.49 24.2134 160.344C29.0659 153.615 34.5619 149.85 39.4294 148.2H39.4279ZM31.5844 213.798C28.1024 213.933 24.6172 213.63 21.2104 212.898C11.1124 210.639 4.39844 198.249 11.5204 182.12C13.9165 177.153 16.6598 172.362 19.7299 167.781C20.5879 166.263 21.5262 164.792 22.5409 163.374C24.4599 160.917 27.2343 159.274 30.3109 158.772C33.3875 158.27 36.5403 158.946 39.1406 160.666C41.7409 162.385 43.5976 165.021 44.3407 168.049C45.0837 171.076 44.6583 174.272 43.1494 177C42.3229 178.475 41.5714 179.991 40.7824 181.485C39.9819 182.971 39.2804 184.509 38.6824 186.087C38.6537 186.196 38.6611 186.311 38.7036 186.415C38.7461 186.519 38.8214 186.606 38.9179 186.663C40.6579 187.641 42.7369 186.309 44.1199 185.28C50.0719 180.572 52.2199 176.076 64.1089 169.503C75.4189 163.085 88.7359 159.951 101.459 162.117C103.075 162.346 104.625 162.908 106.013 163.767C106.622 164.151 107.417 164.712 107.523 165.486C107.542 165.749 107.482 166.011 107.351 166.24C107.22 166.468 107.023 166.652 106.787 166.769C105.436 167.389 103.957 167.683 102.471 167.625C97.9459 167.969 95.0434 167.925 93.6889 167.946C93.568 167.95 93.4524 167.997 93.3626 168.078C93.2728 168.159 93.2146 168.27 93.1983 168.39C93.1819 168.509 93.2085 168.631 93.2733 168.734C93.3381 168.836 93.437 168.912 93.5524 168.948C96.9206 169.72 100.212 170.795 103.386 172.16C103.68 172.333 103.924 172.578 104.097 172.871C104.271 173.165 104.367 173.497 104.376 173.838C104.386 174.178 104.31 174.516 104.154 174.819C103.998 175.122 103.768 175.381 103.485 175.571C102.819 175.972 102.069 176.214 101.294 176.277C100.518 176.339 99.739 176.222 99.0169 175.932C97.2244 175.198 95.3299 174.742 93.3994 174.582C92.9389 174.596 92.6494 175.322 93.1429 175.533C95.6416 176.588 97.9676 178.012 100.043 179.759C100.599 180.128 101.008 180.681 101.199 181.32C101.24 181.698 101.183 182.08 101.036 182.431C100.889 182.781 100.655 183.089 100.356 183.324C96.8779 185.958 92.2399 179.955 87.9064 182.199C86.4659 183.16 85.207 184.369 84.1879 185.769C81.6469 188.619 79.1584 191.519 76.4974 194.259C70.6738 200.322 63.7062 205.17 55.9974 208.523C48.2886 211.877 39.9916 213.669 31.5859 213.797L31.5844 213.798ZM40.5844 214.035C45.8768 213.197 51.0467 211.714 55.9789 209.621C66.7384 205.067 74.3419 198.611 81.6874 190.107C82.7914 188.865 83.8909 187.619 84.9979 186.378L88.6609 214.268C84.2995 217.018 79.408 218.82 74.3044 219.557C68.0094 220.557 61.6011 220.62 55.2874 219.746C50.0008 219.049 44.9597 217.09 40.5904 214.034L40.5844 214.035ZM36.0934 223.175C41.4716 221.087 47.2223 220.131 52.9864 220.367C55.4216 220.845 57.8879 221.149 60.3664 221.276C63.2319 221.858 66.0232 222.759 68.6884 223.962L36.0934 223.175Z" fill="black"/>
<path d="M183.489 253.677C181.146 253.665 178.804 253.605 176.461 253.641C176.326 253.641 176.196 253.695 176.101 253.79C176.005 253.886 175.951 254.016 175.951 254.151C175.951 254.286 176.005 254.416 176.101 254.512C176.196 254.607 176.326 254.661 176.461 254.661C178.804 254.673 181.146 254.733 183.489 254.699C183.619 254.691 183.742 254.635 183.832 254.54C183.922 254.445 183.972 254.319 183.972 254.188C183.972 254.057 183.922 253.931 183.832 253.836C183.742 253.741 183.619 253.684 183.489 253.677Z" fill="black"/>
<path d="M196.352 205.007C196.528 206.081 196.507 207.179 196.289 208.245C196.263 208.372 196.286 208.505 196.354 208.615C196.421 208.726 196.529 208.807 196.654 208.842C196.779 208.876 196.912 208.862 197.027 208.801C197.142 208.741 197.23 208.639 197.273 208.517C197.58 207.277 197.602 205.984 197.336 204.735C197.187 204.095 196.202 204.366 196.352 205.007Z" fill="black"/>
<path d="M202.12 207.216C202.186 208.158 202.186 209.102 202.12 210.044C202.06 210.696 203.08 210.692 203.14 210.044C203.206 209.102 203.206 208.158 203.14 207.216C203.101 206.561 202.085 206.559 202.12 207.216Z" fill="black"/>
<path d="M129.563 172.262C130.865 173.328 132.526 173.856 134.205 173.735C135.883 173.615 137.452 172.855 138.588 171.614C139.402 170.602 139.92 169.384 140.084 168.096C140.248 166.807 140.051 165.499 139.517 164.315C138.982 163.131 138.13 162.119 137.055 161.39C135.98 160.662 134.724 160.245 133.427 160.187C127.862 160.245 125.418 168.677 129.563 172.262ZM132.482 161.321C137.052 160.341 140.667 165.707 138.459 170.037C138.057 170.714 137.514 171.296 136.868 171.746C136.222 172.196 135.487 172.502 134.713 172.644C133.938 172.786 133.142 172.761 132.379 172.57C131.615 172.379 130.901 172.027 130.284 171.537C127.115 168.914 128.265 162.224 132.482 161.321Z" fill="black"/>
<path d="M129.958 158.038C131.797 157.954 137.865 157.663 139.06 157.603C140.29 157.537 142.089 157.603 142.473 156.115C142.537 155.886 142.539 155.643 142.479 155.412C142.418 155.181 142.297 154.971 142.128 154.803C141.716 154.485 141.206 154.32 140.686 154.335C140.122 154.296 139.556 154.306 138.994 154.363C139.48 153.981 139.942 153.57 140.379 153.132C140.787 152.788 141.072 152.32 141.189 151.799C141.306 151.278 141.249 150.733 141.027 150.247C140.72 149.845 140.285 149.56 139.794 149.438C139.303 149.317 138.785 149.367 138.327 149.58C137.884 149.726 137.455 149.911 137.046 150.133C137.529 149.219 137.707 148.173 137.551 147.15C137.477 146.798 137.267 146.49 136.966 146.294C136.666 146.097 136.299 146.027 135.948 146.1C135.602 146.197 135.281 146.365 135.005 146.594C134.728 146.822 134.502 147.105 134.341 147.426C132.311 150.535 130.673 153.882 129.465 157.393C129.444 157.469 129.442 157.549 129.457 157.626C129.472 157.702 129.505 157.775 129.553 157.837C129.6 157.899 129.662 157.95 129.732 157.985C129.802 158.02 129.88 158.038 129.958 158.038ZM135.225 147.94C135.445 147.604 135.747 147.1 136.204 147.091C136.737 147.081 136.6 147.901 136.554 148.234C136.309 149.385 135.846 150.477 135.19 151.453C135.125 151.573 135.11 151.713 135.148 151.844C135.186 151.974 135.275 152.084 135.394 152.149C136.008 152.482 136.074 151.549 138.298 150.67C138.864 150.453 139.998 150.115 140.224 150.955C140.451 151.795 139.659 152.446 139.108 152.905C138.313 153.571 137.508 154.227 136.708 154.887C136.305 155.218 136.738 155.877 137.203 155.739C138.176 155.447 139.188 155.309 140.203 155.329C140.523 155.329 141.144 155.28 141.403 155.521C141.693 155.793 141.312 156.204 141.061 156.325C140.581 156.498 140.071 156.575 139.561 156.552C139.153 156.574 131.038 156.964 130.711 156.979C131.837 153.792 133.353 150.756 135.225 147.94Z" fill="black"/>
<path d="M91.6001 249.9V232.526C91.6001 232.39 91.5463 232.261 91.4507 232.165C91.3551 232.069 91.2253 232.016 91.0901 232.016C90.9548 232.016 90.8251 232.069 90.7295 232.165C90.6338 232.261 90.5801 232.39 90.5801 232.526V249.9C90.5801 250.035 90.6338 250.165 90.7295 250.261C90.8251 250.356 90.9548 250.41 91.0901 250.41C91.2253 250.41 91.3551 250.356 91.4507 250.261C91.5463 250.165 91.6001 250.035 91.6001 249.9Z" fill="black"/>
<path d="M225.547 231.647C225.418 231.651 225.295 231.704 225.203 231.795C225.112 231.887 225.059 232.01 225.055 232.139V249.9C225.055 250.036 225.108 250.165 225.204 250.261C225.3 250.357 225.429 250.41 225.565 250.41C225.7 250.41 225.83 250.357 225.925 250.261C226.021 250.165 226.075 250.036 226.075 249.9V232.139C226.073 232.072 226.057 232.006 226.029 231.945C226.002 231.884 225.962 231.829 225.913 231.783C225.864 231.737 225.806 231.702 225.744 231.678C225.681 231.655 225.614 231.644 225.547 231.647Z" fill="black"/>
<path d="M274.254 227.963C272.987 226.436 272.135 224.608 271.782 222.656C271.577 221.526 266.232 175.596 266.211 175.44C266.139 174.795 265.119 174.788 265.191 175.44C265.926 182.175 270.701 222.471 270.852 223.203C271.459 225.839 272.813 228.243 274.752 230.129C277.959 233.771 291.657 250.256 291.657 250.256C292.08 250.758 292.799 250.034 292.379 249.534C292.092 249.2 274.941 228.786 274.254 227.963Z" fill="black"/>
<path d="M253.159 249.638C252.742 249.095 238.636 230.543 237.869 229.538C236.669 227.961 235.01 226.329 234.851 224.262C234.79 223.182 234.803 222.098 234.889 221.019C234.956 219.89 236.416 189.488 236.447 188.972C236.485 188.316 235.465 188.318 235.426 188.972C234.889 198.066 233.89 220.761 233.798 223.005C233.744 224 233.891 224.996 234.231 225.932C234.57 226.869 235.096 227.728 235.775 228.456C238.435 231.818 252.275 250.155 252.275 250.155C252.67 250.668 253.556 250.16 253.159 249.638Z" fill="black"/>
<path d="M208.502 232.004L204.662 249.759C204.522 250.4 205.506 250.673 205.644 250.031L209.484 232.275C209.625 231.635 208.641 231.362 208.502 232.004Z" fill="black"/>
<path d="M239.566 250.031L242.011 237.605C242.137 236.964 241.154 236.688 241.027 237.333L238.58 249.759C238.454 250.401 239.438 250.676 239.566 250.031Z" fill="black"/>
<path d="M44.1897 129.431C43.6223 128.284 42.7156 127.339 41.5927 126.725C40.4699 126.112 39.1854 125.858 37.9137 126C36.9087 126.059 36.6207 126.381 35.6547 126.032C34.3137 125.546 33.1707 124.776 32.0547 125.664C31.5088 126.32 31.2341 127.16 31.2867 128.012C30.365 127.874 29.4234 128.025 28.5909 128.444C27.7585 128.862 27.0758 129.528 26.6367 130.35C25.7677 131.997 25.2325 133.8 25.0617 135.654C24.689 136.861 24.5766 138.133 24.7317 139.387C24.8868 140.64 25.3061 141.847 25.9617 142.926C28.8927 147.114 35.4792 144.753 44.6232 143.897C44.7446 143.892 44.8604 143.844 44.9498 143.761C45.0393 143.679 45.0968 143.568 45.1121 143.447C45.1274 143.327 45.0995 143.205 45.0333 143.103C44.9671 143.001 44.867 142.925 44.7507 142.89C43.9362 142.611 43.7802 141.672 43.8387 140.919C43.9782 139.214 46.4142 133.811 44.1897 129.431ZM43.3857 138.338C43.0215 139.367 42.8363 140.451 42.8382 141.543C42.8773 142.069 43.0502 142.576 43.3407 143.016C38.6352 143.544 36.4167 144.078 31.8102 144.326C30.3577 144.422 28.9128 144.049 27.6882 143.262C25.6422 141.702 25.5357 138.864 25.9467 136.553C26.1433 134.922 26.5191 133.318 27.0672 131.769C27.3823 130.913 27.9304 130.162 28.6497 129.6C29.0897 129.317 29.5815 129.125 30.0965 129.034C30.6115 128.943 31.1395 128.956 31.6497 129.071C31.7829 129.104 31.9239 129.083 32.0419 129.013C32.1599 128.943 32.2454 128.829 32.2797 128.696C32.3322 128.484 32.1207 126.12 33.2232 126.275C34.0098 126.475 34.7792 126.738 35.5242 127.061C36.2687 127.201 37.0341 127.19 37.7742 127.028C38.981 126.856 40.2103 127.101 41.2589 127.723C42.3075 128.344 43.1128 129.305 43.5417 130.446C44.3245 133.027 44.2699 135.79 43.3857 138.338Z" fill="black"/>
<path d="M267.335 160.004C268.26 158.219 268.947 156.322 269.379 154.359C269.519 153.719 268.535 153.446 268.394 154.088C267.986 155.965 267.334 157.78 266.454 159.488C266.154 160.071 267.033 160.587 267.335 160.004Z" fill="black"/>
<path d="M167.823 163.2H173.523C173.659 163.2 173.788 163.146 173.884 163.051C173.98 162.955 174.033 162.825 174.033 162.69C174.033 162.555 173.98 162.425 173.884 162.329C173.788 162.234 173.659 162.18 173.523 162.18H167.823C167.688 162.18 167.558 162.234 167.463 162.329C167.367 162.425 167.313 162.555 167.313 162.69C167.313 162.825 167.367 162.955 167.463 163.051C167.558 163.146 167.688 163.2 167.823 163.2Z" fill="black"/>
<path d="M223.279 168.422L220.251 168.743C219.604 168.81 219.598 169.832 220.251 169.763L223.279 169.442C223.924 169.373 223.932 168.351 223.279 168.422Z" fill="black"/>
<path d="M223.974 176.877H220.8C220.665 176.877 220.535 176.931 220.439 177.027C220.344 177.122 220.29 177.252 220.29 177.387C220.29 177.522 220.344 177.652 220.439 177.748C220.535 177.843 220.665 177.897 220.8 177.897H223.971C224.106 177.897 224.236 177.843 224.332 177.748C224.427 177.652 224.481 177.522 224.481 177.387C224.481 177.252 224.427 177.122 224.332 177.027C224.236 176.931 224.106 176.877 223.971 176.877H223.974Z" fill="black"/>
<path d="M40.4602 131.111C37.7317 128.847 33.2407 130.869 31.7932 133.713C31.3179 134.626 31.1776 135.676 31.3969 136.681C31.6162 137.686 32.1811 138.582 32.9932 139.214C33.6034 139.771 34.3318 140.183 35.1238 140.419C35.9159 140.655 36.751 140.708 37.5667 140.575C38.3823 140.443 39.1573 140.127 39.8336 139.652C40.5098 139.177 41.0697 138.555 41.4712 137.832C42.0597 136.755 42.2795 135.515 42.0969 134.301C41.9144 133.088 41.3395 131.967 40.4602 131.111ZM41.1172 135.702C41.0154 136.561 40.6671 137.372 40.1146 138.038C39.562 138.703 38.8288 139.194 38.0032 139.452C34.8937 140.342 31.5757 137.72 32.4892 134.667C33.0222 133.384 34.022 132.351 35.2867 131.777C35.861 131.458 36.4961 131.264 37.1506 131.207C37.805 131.15 38.4641 131.232 39.0847 131.447C39.8156 131.866 40.4016 132.497 40.7647 133.258C41.1278 134.018 41.2507 134.87 41.1172 135.702Z" fill="black"/>
<path d="M147.831 54.0601V74.8291C147.838 74.9598 147.895 75.0828 147.99 75.1728C148.085 75.2628 148.211 75.3129 148.342 75.3129C148.473 75.3129 148.599 75.2628 148.694 75.1728C148.789 75.0828 148.845 74.9598 148.853 74.8291V54.0601C148.845 53.9294 148.789 53.8064 148.694 53.7164C148.599 53.6264 148.473 53.5763 148.342 53.5763C148.211 53.5763 148.085 53.6264 147.99 53.7164C147.895 53.8064 147.838 53.9294 147.831 54.0601Z" fill="black"/>
<path d="M137.492 66.9331C137.396 66.8374 137.267 66.7837 137.131 66.7837C136.996 66.7837 136.866 66.8374 136.771 66.9331C136.675 67.0288 136.621 67.1586 136.621 67.2939C136.621 67.4292 136.675 67.5589 136.771 67.6546L144.859 75.7411C144.955 75.8308 145.083 75.8795 145.215 75.8769C145.347 75.8743 145.473 75.8206 145.566 75.7272C145.659 75.6338 145.713 75.5079 145.715 75.3759C145.717 75.244 145.668 75.1163 145.579 75.0196C142.928 72.2806 140.232 69.5851 137.492 66.9331Z" fill="black"/>
<path d="M157.93 67.6924C155.38 70.1644 152.871 72.6794 150.404 75.2374C150.309 75.3331 150.255 75.4628 150.255 75.5981C150.255 75.7335 150.309 75.8632 150.404 75.9589C150.5 76.0546 150.63 76.1083 150.765 76.1083C150.9 76.1083 151.03 76.0546 151.126 75.9589L158.651 68.4139C158.747 68.3182 158.801 68.1885 158.801 68.0531C158.801 67.9178 158.747 67.7881 158.651 67.6924C158.556 67.5967 158.426 67.543 158.291 67.543C158.155 67.543 158.025 67.5967 157.93 67.6924Z" fill="black"/>
<path d="M87.0369 92.5186C87.9009 92.4946 88.0119 92.4735 88.0374 91.578C88.0629 90.6825 88.0479 88.5616 88.0134 83.3881C88.0123 83.2534 87.9584 83.1246 87.8633 83.0293C87.7682 82.9339 87.6396 82.8796 87.5049 82.8781H78.9084C78.7739 82.8804 78.6455 82.9348 78.5504 83.03C78.4552 83.1251 78.4008 83.2535 78.3984 83.3881V91.9831C78.4 92.1178 78.4542 92.2466 78.5495 92.342C78.6448 92.4373 78.7737 92.4915 78.9084 92.4931C83.9589 92.5291 86.1009 92.5501 87.0369 92.5186ZM79.4184 83.8981H87.0009V91.4731H79.4259L79.4184 83.8981Z" fill="black"/>
<path d="M16.6334 128.046C14.8047 131.71 14.1062 135.834 14.6264 139.896C14.6298 140.03 14.6846 140.158 14.7796 140.253C14.8745 140.348 15.0022 140.402 15.1364 140.406C15.2034 140.406 15.2697 140.393 15.3316 140.367C15.3935 140.342 15.4497 140.304 15.4969 140.257C15.5442 140.209 15.5816 140.153 15.607 140.091C15.6324 140.029 15.6453 139.963 15.6449 139.896C15.1502 136.016 15.7998 132.076 17.5139 128.56C17.8064 127.975 16.9259 127.458 16.6334 128.046Z" fill="black"/>
<path d="M12.9009 127.926C11.0723 131.59 10.3732 135.714 10.8924 139.776C10.8958 139.91 10.9507 140.038 11.0456 140.133C11.1406 140.227 11.2683 140.282 11.4024 140.285C11.4693 140.285 11.5357 140.272 11.5977 140.247C11.6596 140.221 11.7159 140.184 11.7633 140.137C11.8108 140.089 11.8483 140.033 11.8739 139.971C11.8995 139.91 11.9126 139.843 11.9124 139.776C11.4166 135.896 12.0663 131.956 13.7814 128.441C14.0739 127.854 13.2009 127.338 12.9009 127.926Z" fill="black"/>
<path d="M181.442 188.183C181.482 188.309 181.569 188.414 181.685 188.477C181.801 188.54 181.937 188.556 182.064 188.521C182.192 188.485 182.3 188.402 182.368 188.289C182.435 188.175 182.455 188.04 182.425 187.911C181.849 185.675 179.647 177.861 179.602 177.711C179.566 177.581 179.48 177.47 179.362 177.403C179.245 177.336 179.105 177.318 178.975 177.354C178.844 177.39 178.733 177.476 178.666 177.594C178.599 177.711 178.582 177.851 178.618 177.981C179.387 180.977 181.319 187.766 181.442 188.183Z" fill="black"/>
<path d="M184.769 189.362C186.419 186.097 190.202 178.636 190.437 178.171C190.737 177.586 189.854 177.068 189.557 177.655C187.907 180.92 184.124 188.383 183.887 188.848C183.591 189.431 184.472 189.949 184.769 189.362Z" fill="black"/>
<path d="M186.865 191.087L194.804 188.267C195.418 188.048 195.154 187.067 194.533 187.283L186.593 190.103C185.98 190.322 186.244 191.307 186.865 191.087Z" fill="black"/>
<path d="M51.1183 58.251L52.1893 63.7815C52.3138 64.4265 53.2963 64.1535 53.1718 63.5115C52.8168 61.6685 52.4603 59.8245 52.1023 57.9795C51.9778 57.336 50.9998 57.609 51.1183 58.251Z" fill="black"/>
<path d="M43.8078 76.5526C43.8364 76.4277 43.8169 76.2967 43.7533 76.1855C43.6896 76.0743 43.5865 75.9912 43.4643 75.9526C41.8458 75.4921 40.2348 75.0001 38.6058 74.5741C38.4778 74.5451 38.3436 74.5667 38.2311 74.6341C38.1186 74.7016 38.0364 74.8099 38.0016 74.9364C37.9669 75.0629 37.9822 75.1979 38.0444 75.3134C38.1067 75.429 38.211 75.516 38.3358 75.5566C39.9543 76.0171 41.5638 76.5121 43.1928 76.9366C43.2584 76.9521 43.3265 76.9545 43.393 76.9435C43.4595 76.9326 43.5232 76.9086 43.5804 76.8729C43.6376 76.8372 43.6872 76.7905 43.7262 76.7355C43.7652 76.6805 43.793 76.6183 43.8078 76.5526Z" fill="black"/>
<path d="M39.98 90.885L35.93 94.0575C35.414 94.4625 36.14 95.1795 36.6515 94.779L40.7015 91.605C41.2175 91.2 40.49 90.483 39.98 90.885Z" fill="black"/>
<path d="M56.607 96.2356L55.665 91.1521C55.5435 90.5071 54.561 90.7801 54.681 91.4236L55.623 96.5071C55.743 97.1521 56.727 96.8776 56.607 96.2356Z" fill="black"/>
<path d="M87.6496 174.3C87.0061 174.423 87.2791 175.407 87.9211 175.282C88.8765 175.098 89.8575 175.089 90.8161 175.257C91.4581 175.369 91.7341 174.387 91.0876 174.273C89.9496 174.07 88.7841 174.08 87.6496 174.3Z" fill="black"/>
<path d="M87.6412 169.05C88.6793 168.799 89.7514 168.719 90.8152 168.813C91.4692 168.87 91.4647 167.849 90.8152 167.793C89.658 167.697 88.4927 167.789 87.3652 168.068C86.7322 168.221 87.0022 169.2 87.6412 169.05Z" fill="black"/>
<path d="M14.0395 201.915C13.6555 201.39 12.7705 201.899 13.159 202.43L16.7755 207.38C17.1595 207.905 18.0445 207.396 17.6575 206.865L14.0395 201.915Z" fill="black"/>
<path d="M241.513 222.731V217.631C241.513 217.495 241.459 217.366 241.364 217.27C241.268 217.174 241.138 217.121 241.003 217.121C240.868 217.121 240.738 217.174 240.643 217.27C240.547 217.366 240.493 217.495 240.493 217.631V222.731C240.493 222.866 240.547 222.996 240.643 223.091C240.738 223.187 240.868 223.241 241.003 223.241C241.138 223.241 241.268 223.187 241.364 223.091C241.459 222.996 241.513 222.866 241.513 222.731Z" fill="black"/>
<path d="M67.4161 89.1004L72.2011 94.7839C72.6241 95.2864 73.3426 94.5619 72.9226 94.0624L68.1361 88.3789C67.7131 87.8719 66.9946 88.5964 67.4161 89.1004Z" fill="black"/>
</svg>
