<svg width="296" height="201" viewBox="0 0 296 201" fill="none" xmlns="http://www.w3.org/2000/svg">
<path d="M100.866 224.897C103.562 223.942 106.325 223.185 109.132 222.632L109.472 223.878C109.51 224.024 109.599 224.153 109.724 224.239C109.849 224.325 110.001 224.363 110.151 224.347L121.265 223.053C124.322 216.08 129.936 205.517 130.017 205.355C129.936 202.718 130.017 200.502 130.017 197.978C123.659 200.34 111.898 204.821 105.751 207.684C105.612 207.774 105.505 207.905 105.444 208.058C105.383 208.212 105.372 208.381 105.411 208.542C105.411 208.542 105.525 208.946 105.67 209.528C102.661 209.528 93.6507 209.092 91.483 211.146C91.1459 211.616 90.9803 212.187 91.0138 212.764C90.8844 214.996 92.0006 232.338 93.7801 237.434C94.7022 240.103 96.6435 239.812 97.97 237.256C99.5053 233.407 100.491 229.361 100.898 225.236C100.898 225.026 100.85 225.042 100.866 224.897ZM99.0053 210.418C100.979 210.256 101.594 210.289 105.832 210.159C106.592 213.039 108.162 218.96 108.97 221.985C106.116 222.427 103.299 223.081 100.542 223.942C99.6831 219.48 99.1693 214.959 99.0053 210.418Z" fill="#3C0F34"/>
<path d="M249.76 68.8359C250.164 68.2697 249.647 67.5417 249.21 66.9755C250.447 65.7029 251.819 64.5692 253.303 63.5945C255.805 62.3472 258.094 60.7089 260.081 58.7414C260.906 57.884 262.459 56.1207 261.876 55.0854C261.294 54.05 260.259 53.9853 258.851 54.5839C259.461 53.9436 259.959 53.2054 260.323 52.4C260.776 51.1381 259.709 50.119 257.395 51.0572C258.237 49.7146 258.431 48.3071 257.007 47.6277C255.859 47.0777 254.176 48.388 253.205 49.2454C251.299 50.9107 249.51 52.7052 247.851 54.6162C246.832 52.4808 245.214 50.0219 243.192 50.7984C241.17 51.5749 242.739 55.053 243.774 56.9457L240.102 59.4855C239.547 59.1859 238.92 59.0459 238.29 59.0811C234.116 59.7929 214.947 74.3846 213.005 74.3846C211.517 74.3846 190.26 64.1931 171.883 61.2488C171.848 61.1386 171.782 61.0406 171.693 60.9662C171.604 60.8918 171.496 60.844 171.382 60.8282C168.176 60.2813 164.926 60.0375 161.675 60.1003C161.577 60.1069 161.481 60.1349 161.394 60.1824C161.308 60.2299 161.232 60.2957 161.174 60.3753H159.815C159.491 59.0649 158.294 56.0398 157.874 54.875C158.974 53.9206 160.494 53.4353 161.287 51.8985C162.743 49.0513 162.678 44.1011 162.274 40.9304C164.102 39.5391 164.15 37.3067 163.73 35.0257C163.568 34.1036 163.067 32.0168 162.29 31.4991C161.853 31.2079 160.931 31.4991 160.139 31.7903C159.346 29.9461 159.346 30.7873 159.669 30.0432C159.82 29.7002 159.907 29.3332 159.928 28.9593C160.786 29.2181 162.565 27.5034 161.95 25.2386C161.628 24.4278 161.233 23.6481 160.769 22.9091C160.996 22.3591 161.481 21.6958 159.961 19.6737C159.306 18.9672 158.455 18.4716 157.518 18.2501H156.774C156.237 17.4708 155.449 16.8996 154.541 16.6324C153.171 16.283 151.719 16.4864 150.497 17.1986C150.173 17.4412 149.915 17.7648 149.591 17.9912C148.86 17.5471 148.02 17.3122 147.165 17.3122C146.309 17.3122 145.469 17.5471 144.738 17.9912C144.31 18.1593 143.92 18.4121 143.592 18.7346C143.264 19.0571 143.004 19.4425 142.829 19.8678C142.036 19.5943 141.195 19.489 140.36 19.5586C139.524 19.6283 138.712 19.8713 137.976 20.2722C135.181 21.7876 133.091 24.3367 132.152 27.374C132.126 27.8319 132.126 28.291 132.152 28.749H131.974C129.548 28.3931 126.458 34.1522 128.933 38.6332C129.224 39.1671 129.596 39.6686 129.952 40.2509C130.987 41.8686 130.583 42.354 132.896 44.3276C133.576 44.9099 133.689 44.8614 134.11 45.2173C134.53 45.5732 134.368 45.3953 134.611 46.3012C134.743 46.8348 134.98 47.337 135.308 47.7785C135.636 48.22 136.048 48.5921 136.52 48.8733C136.692 50.4557 137.367 51.9412 138.445 53.1117C138.787 53.4939 139.185 53.8213 139.626 54.0824C139.745 54.1494 139.878 54.1882 140.014 54.1956C140.5 57.2046 141.098 61.1194 141.357 62.7857L139.917 63.5622C138.033 64.3201 136.201 65.201 134.433 66.199C134.294 66.295 134.196 66.4392 134.158 66.6035C132.443 67.5094 130.826 68.3668 129.904 68.9168C117.059 76.5362 80.5795 126.766 80.2075 129.063C80.1664 129.195 80.1664 129.336 80.2075 129.468C80.7303 130.302 81.3674 131.059 82.1002 131.716C81.8744 132.128 81.6031 132.514 81.2913 132.865C78.0559 134.984 73.2028 138.139 70.5983 140.953C70.4156 141.116 70.2785 141.324 70.2006 141.556C70.1227 141.788 70.1067 142.036 70.1541 142.276C70.2014 142.516 70.3106 142.74 70.4707 142.925C70.6309 143.11 70.8366 143.25 71.0674 143.331C71.5527 143.493 71.6336 143.445 74.7881 141.714C73.9212 142.474 73.2121 143.398 72.7013 144.432C72.491 145.321 73.2998 145.839 74.319 145.677C74.8924 145.527 75.4384 145.287 75.9367 144.965C75.6449 145.416 75.4897 145.941 75.4897 146.478C75.4897 147.015 75.6449 147.54 75.9367 147.99C77.5544 150.029 81.7928 143.606 84.0253 142.021C84.9312 143.17 86.1606 145.855 88.1181 145.143C89.8167 144.512 87.9563 140.775 88.1181 139.692C88.7763 139.06 89.4791 138.476 90.2211 137.944C91.469 138.87 92.8959 139.526 94.411 139.87C97.0802 139.87 124.937 111.754 127.056 109.505C126.296 116.655 122.462 147.343 123.271 153.313C123.643 156.014 130.13 156.403 132.864 156.548C132.039 175.961 131.489 205.371 131.343 205.678C127.056 214.915 125.892 217.439 124.452 220.237C121.831 225.252 110.798 243.759 109.553 247.965C109.375 248.628 109.359 248.887 110.054 250.117C107.97 252.308 106.035 254.638 104.263 257.089C103.373 258.707 107.191 273.784 109.892 279.122C110.507 280.319 111.51 282.163 112.853 282.115C116.897 281.969 116.881 267.442 116.768 263.382C116.767 263.257 116.721 263.136 116.638 263.042C117.371 261.948 118.171 260.9 119.033 259.904C119.547 260.258 120.088 260.571 120.65 260.842C121.2 261.085 121.815 260.664 122.268 260.292C127.655 256.054 156.709 219.849 162.937 202.766C165.768 194.969 169.537 184.195 170.605 176.559C171.258 171.732 171.318 166.842 170.783 162C170.783 161.931 170.81 161.865 170.859 161.817C170.907 161.768 170.973 161.741 171.042 161.741C171.111 161.741 171.176 161.768 171.225 161.817C171.273 161.865 171.301 161.931 171.301 162C172.111 166.87 172.269 171.826 171.77 176.737C170.573 187.333 162.209 209.415 157.744 217.536C161.595 216.824 169.424 215.271 173.21 214.139C185.828 210.305 197.475 198.867 198.494 186.023C198.824 179.972 198.824 173.907 198.494 167.856C198.385 159.502 197.299 151.19 195.259 143.089C198.689 141.228 201.827 139.045 202.846 137.039C205.03 132.752 199.255 108.082 197.993 101.158C204.901 101.918 216.661 103.293 222.145 99.0062C228.422 93.9589 241.979 79.7554 249.76 68.8359ZM115.894 262.492C112.982 260.729 108.906 256.539 108.291 253.255C108.954 252.414 109.65 251.637 110.297 250.764C112.489 254.109 115.223 257.067 118.385 259.515C117.497 260.458 116.665 261.452 115.894 262.492ZM244.502 57.3987C244.586 57.3453 244.646 57.2619 244.67 57.1656C244.694 57.0693 244.68 56.9675 244.632 56.881C244.065 55.8295 242.367 52.1249 243.548 51.7043C244.227 51.4455 244.826 51.8661 245.327 52.4323C246.093 53.4038 246.689 54.4977 247.091 55.6677C247.12 55.7629 247.176 55.848 247.25 55.9142C247.325 55.9803 247.416 56.0249 247.514 56.0432C247.612 56.0615 247.714 56.0528 247.807 56.018C247.9 55.9832 247.983 55.9236 248.045 55.8457C249.663 54.05 253.448 49.9572 255.584 48.8572C257.201 48.016 257.589 49.569 253.626 53.1926C252.716 53.8868 251.841 54.6265 251.005 55.4089C250.959 55.4724 250.935 55.5488 250.935 55.6273C250.935 55.7057 250.959 55.7822 251.005 55.8457C251.005 56.2663 251.345 56.7354 251.927 56.2986C253.334 55.0643 254.82 53.924 256.376 52.8853C257.171 52.3209 258.094 51.9649 259.062 51.8499C258.576 53.3382 254.063 57.3825 253.675 57.8355C253.551 57.9458 253.477 58.1001 253.466 58.2651C253.456 58.4302 253.51 58.5927 253.618 58.7178C253.727 58.8429 253.88 58.9205 254.044 58.934C254.209 58.9475 254.373 58.8957 254.5 58.7899C256.295 57.6252 259.434 54.9074 260.518 55.3118C261.601 55.7163 258.382 58.7252 257.573 59.437C252.93 63.4651 254.128 60.8768 248.757 66.3446C246.419 63.7836 243.734 61.5621 240.781 59.7444L244.502 57.3987ZM174.213 134.774C173.938 132.541 173.598 130.131 173.177 127.624L173.873 126.701C177.108 122.544 178.079 115.927 177.772 110.735C179.503 118.322 180.878 125.779 181.929 133.188L174.213 134.774ZM150.157 79.3834C145.903 76.1479 139.06 70.5668 135.08 66.749L141.551 63.5136C147.493 69.0637 152.579 75.4639 156.644 82.5055C162.86 93.9238 167.471 106.145 170.346 118.823L147.278 86.1939L150.287 79.9496C150.327 79.8534 150.335 79.7473 150.312 79.6458C150.289 79.5444 150.235 79.4526 150.157 79.3834ZM161.093 61.0385C161.19 61.2165 162.306 63.5945 164.005 67.752C164.005 67.93 163.698 71.9743 163.552 73.3978C161.487 72.5794 159.54 71.4915 157.761 70.1624C158.116 68.755 159.718 62.3651 159.831 60.9253L161.093 61.0385ZM155.35 78.4127C155.463 78.1215 155.577 77.7333 155.706 77.2803L156.79 77.8465C157.405 78.251 157.162 77.0215 157.712 80.5805C157.712 81.179 157.874 81.8423 157.906 82.5703C157.162 81.2276 156.24 79.7878 155.366 78.4127H155.35ZM154.444 77.0539C151.388 72.719 147.909 68.6981 144.059 65.0504L156.24 70.3404C155.771 71.4566 155.091 74.8699 154.46 77.0539H154.444ZM166.884 86.5336C165.267 82.1173 164.021 77.1833 163.406 75.8891C163.443 75.4855 163.443 75.0794 163.406 74.6758C163.64 74.7629 163.885 74.8174 164.134 74.8376C164.29 74.8394 164.442 74.7847 164.561 74.6836C164.68 74.5825 164.758 74.4419 164.781 74.2876C164.911 73.7537 165.121 71.0522 165.153 70.4536C169.859 82.3349 173.788 94.5096 176.914 106.901C167.774 87.4557 169.182 93.0854 166.901 86.5336H166.884ZM180.263 117.416C176.575 99.7342 170.087 77.6848 162.711 61.3459C165.42 61.3474 168.124 61.5638 170.799 61.993C172.174 74.2876 171.026 73.867 171.948 74.3523C172.87 74.8376 178.419 77.07 179.244 77.4098C179.163 78.6554 180.328 114.277 180.279 117.416H180.263ZM161.643 32.5345C162.486 34.3748 162.784 36.4185 162.5 38.4229C162.369 38.9331 162.098 39.3967 161.718 39.7621C161.339 40.1276 160.865 40.3806 160.351 40.4929C159.836 40.6053 159.3 40.5726 158.803 40.3985C158.306 40.2244 157.866 39.9157 157.534 39.5068C156.762 37.8808 156.181 36.1708 155.803 34.411C156.24 33.8448 160.899 32.7124 161.643 32.5345ZM139.383 48.7116C138.792 48.4425 138.188 48.2049 137.571 47.9998C137.158 47.8298 136.789 47.5674 136.493 47.2327C136.196 46.898 135.98 46.4999 135.862 46.0689C135.743 45.6379 135.725 45.1854 135.808 44.7461C135.891 44.3069 136.074 43.8926 136.342 43.5349C137.361 42.6775 138.283 42.726 139.124 44.004C139.658 44.9908 139.642 45.0717 139.885 45.1688C139.954 45.1995 140.03 45.2149 140.106 45.2141C140.182 45.2133 140.257 45.1962 140.326 45.164C140.395 45.1319 140.456 45.0853 140.506 45.0276C140.555 44.9698 140.592 44.9021 140.613 44.8291C140.853 43.8165 140.891 42.7667 140.726 41.7392C140.532 40.623 140.5 35.6728 140.532 35.511C141.004 35.7601 141.535 35.8775 142.069 35.8508C144.997 35.7375 145.579 34.2331 146.744 33.0036C148.087 33.133 148.362 33.7801 149.882 33.0036C150.594 32.5985 151.247 32.0978 151.824 31.5153C152.288 31.7057 152.737 31.9329 153.166 32.1947C154.136 32.661 155.229 32.8042 156.286 32.6033C157.343 32.4024 158.308 31.868 159.039 31.0785C159.216 31.4182 159.378 31.758 159.524 32.1139C158.037 32.5751 156.638 33.2804 155.382 34.2007C155.107 34.5404 155.512 36.3846 155.609 36.8214C154.254 36.9919 152.942 37.4144 151.743 38.067C151.5 37.2258 150.966 35.6566 150.125 35.2199C149.872 35.1424 149.601 35.1424 149.348 35.2199C147.892 35.4463 142.667 37.0155 142.036 37.8729C141.486 38.4715 143.056 43.0981 143.541 43.8584C145.401 46.738 150.853 45.8967 151.872 42.5319C152.124 41.4027 152.124 40.2316 151.872 39.1024C152.341 39.1024 153.749 38.6009 153.91 38.5523C155.027 41.0598 155.35 41.2054 156.644 43.907C156.466 44.0526 156.175 44.2952 155.933 44.457C154.784 45.2173 154.541 45.0879 154.606 45.4114C154.625 45.4757 154.666 45.5308 154.723 45.5665C154.78 45.6023 154.847 45.6161 154.913 45.6056C155.592 45.5086 156.256 45.3237 156.887 45.0555C157.265 44.9146 157.576 44.6377 157.761 44.279C158.213 43.2599 155.706 39.4259 154.719 38.2773C154.913 38.2773 155.366 37.9538 155.706 37.7758C156.159 39.5877 156.466 41.0113 158.213 41.7231C158.718 41.9137 159.257 42.0005 159.796 41.9782C160.335 41.956 160.864 41.8252 161.352 41.5936C161.611 44.4408 161.562 49.0675 160.203 51.5911C159.508 52.9014 157.793 53.4029 156.693 54.4868C156.369 54.7942 156.58 55.2309 156.693 55.7001C158.488 60.6988 158.521 60.6826 158.424 61.3297C157.948 64.0155 157.283 66.6643 156.434 69.2565C156.03 69.0785 151.484 66.6682 142.586 63.2063C142.311 61.3782 140.839 51.6235 140.37 49.8278C140.402 49.1969 140.322 49.0513 139.383 48.6307V48.7116ZM150.707 42.1113C150.19 43.8746 147.747 44.6349 146 44.1496C144.253 43.6643 144.139 42.7746 143.314 40.6715C142.928 39.8681 142.661 39.0125 142.522 38.1317C143.056 37.5494 148.895 36.3523 149.623 36.239C150.645 37.9857 151.028 40.0327 150.707 42.0304V42.1113ZM87.4063 139.239C86.7915 139.837 87.6166 141.795 87.746 143.493C87.746 143.639 87.746 144.27 87.6489 144.318C86.7592 144.609 85.9342 143.267 85.4327 142.458C84.9312 141.649 84.4297 140.549 83.637 140.84C82.0193 141.601 78.2662 146.583 76.7941 147.101C76.0499 145.677 80.3045 141.617 80.4501 141.39C80.5125 141.286 80.5452 141.167 80.5447 141.046C80.5441 140.925 80.5103 140.806 80.4469 140.702C80.3835 140.599 80.293 140.515 80.1852 140.459C80.0774 140.404 79.9564 140.379 79.8354 140.387C79.5442 140.387 79.3501 140.646 78.8971 141.05C77.5194 142.395 75.9424 143.519 74.2219 144.383C75.7819 142.593 77.4513 140.902 79.2207 139.32C79.308 139.23 79.3695 139.118 79.3986 138.996C79.3986 138.996 79.0589 138.139 78.3956 138.478C77.4574 138.996 72.8954 141.633 71.4556 142.312C71.2615 142.183 71.3748 141.989 71.4556 141.795C73.7366 138.996 78.7515 135.599 81.8252 133.447C82.1859 133.076 82.4862 132.65 82.7149 132.185C84.8436 134.166 87.1145 135.988 89.5093 137.637C88.7715 138.121 88.0688 138.656 87.4063 139.239ZM125.05 153.944C124.695 153.717 124.436 153.507 124.387 153.216C123.497 146.615 128.448 109.214 128.367 107.742C128.367 107.655 128.349 107.57 128.316 107.49C128.282 107.411 128.233 107.339 128.172 107.278C128.11 107.218 128.036 107.171 127.956 107.139C127.876 107.108 127.79 107.093 127.703 107.095C126.878 107.095 128.334 107.095 107.725 126.831C106.366 128.109 95.9801 138.042 94.2492 138.705C91.8712 138.527 82.9252 131.393 81.4693 129.144C84.2841 123.45 118.418 76.6009 130.227 69.4344C131.133 68.8844 132.686 68.027 134.385 67.1211C134.972 67.6751 135.605 68.1784 136.277 68.6256C140.03 72.1846 145.256 76.6171 149.219 79.9496L146.129 86.0807C146.082 86.1618 146.058 86.2539 146.058 86.3476C146.058 86.4413 146.082 86.5334 146.129 86.6145C171.22 122.609 170.848 122.204 171.01 122.204C172.618 130.522 173.618 138.945 174.002 147.408C174.002 149.689 174.002 149.495 174.099 149.333C174.196 149.171 174.099 149.446 174.099 149.446C170.185 153.717 131.44 157.697 125.05 153.944ZM214.477 100.349C207.149 101.368 198.867 99.8474 197.265 99.7827C196.375 95.4701 194.601 91.3886 192.056 87.7955C192.017 87.7431 191.96 87.7073 191.896 87.6953C191.832 87.6833 191.765 87.696 191.71 87.7307C191.655 87.7654 191.615 87.8197 191.598 87.8827C191.581 87.9457 191.589 88.0128 191.619 88.0705C192.557 89.9794 195.696 98.2135 196.472 100.219C196.23 100.996 203.784 132.234 201.649 136.44C199.74 140.242 188.626 145.03 184.615 146.405C183.821 137.399 182.525 128.445 180.732 119.583C181.282 114.924 180.57 87.2293 180.36 76.9892C180.354 76.8702 180.314 76.7554 180.245 76.658C180.177 76.5607 180.082 76.4848 179.972 76.4391L172.708 73.3817C172.675 69.5373 172.432 65.6976 171.98 61.8797C190.115 65.0181 211.242 75.3876 213.005 75.4038C215.561 75.4038 234.553 60.8444 238.484 60.262C240.231 59.987 247.738 66.5387 248.611 68.3506C240.943 79.0598 227.468 93.1339 221.223 98.0032C219.212 99.3482 216.889 100.156 214.477 100.349Z" fill="#3C0F34"/>
<path d="M149.041 38.876C149.021 38.7697 148.98 38.6685 148.921 38.5781C148.862 38.4877 148.785 38.4099 148.696 38.349C148.606 38.2882 148.506 38.2456 148.4 38.2236C148.294 38.2015 148.185 38.2006 148.079 38.2208C147.973 38.241 147.871 38.2819 147.781 38.3412C147.69 38.4005 147.613 38.477 147.552 38.5664C147.491 38.6557 147.448 38.7562 147.426 38.8621C147.404 38.9679 147.403 39.0771 147.424 39.1833C147.747 40.801 147.812 41.1731 148.524 41.1731C148.658 41.1736 148.791 41.1405 148.909 41.0768C149.028 41.0131 149.129 40.9209 149.202 40.8085C149.276 40.696 149.321 40.5669 149.332 40.4329C149.344 40.2988 149.322 40.164 149.268 40.0407C149.219 39.7819 149.074 39.0216 149.041 38.876ZM153.991 49.5852C155.043 49.8926 156.046 49.3911 156.014 49.1323C155.981 48.8734 156.014 49.0028 154.59 48.469C153.636 48.1131 152.584 46.8513 152.212 47.0454C151.84 47.2395 152.406 48.2749 152.536 48.469C152.882 48.9941 153.395 49.3873 153.991 49.5852ZM266.503 33.3434C268.453 32.1969 270.755 31.8055 272.974 32.2433C275.411 32.287 277.74 33.2615 279.481 34.967C281.223 36.6726 282.246 38.9799 282.341 41.4158C280.875 40.5654 279.161 40.2455 277.488 40.5098C273.427 40.8657 268.121 43.0658 268.833 46.9807C269.415 50.2161 273.686 49.7793 276.921 48.9058C280.157 48.0322 282.729 46.4468 283.392 43.3247C287.323 46.188 288.245 51.2029 288.407 56.1046C288.407 56.1732 288.434 56.2391 288.483 56.2876C288.531 56.3361 288.597 56.3634 288.666 56.3634C288.735 56.3634 288.8 56.3361 288.849 56.2876C288.897 56.2391 288.925 56.1732 288.925 56.1046C289.038 50.6205 288.051 45.2497 283.57 42.1276C283.616 40.723 283.377 39.3238 282.866 38.0144C282.356 36.7051 281.585 35.513 280.601 34.5103C279.616 33.5076 278.438 32.7151 277.138 32.1809C275.839 31.6466 274.444 31.3817 273.039 31.4021C270.793 31.0742 268.504 31.5436 266.568 32.7287C265.969 33.0198 266.244 33.4566 266.503 33.3434ZM281.257 44.9424C279.429 47.3366 274.252 48.5822 271.858 48.1778C270.968 48.0322 270.24 47.6601 270.046 46.738C269.464 43.5026 275.045 41.7393 278.377 41.6261C279.734 41.522 281.088 41.8689 282.227 42.6129C282.105 43.4587 281.771 44.2599 281.257 44.9424ZM259.094 14.4323C260.825 12.297 259.66 8.57624 254.823 8.56006C252.947 8.56006 252.041 10.469 252.17 12.297C252.462 16.6486 257.363 16.5192 259.094 14.4323ZM253.303 12.2161C253.303 11.1484 253.804 9.75717 254.92 9.77334C257.525 9.77334 258.722 10.9866 258.722 12.3293C258.657 15.3868 253.092 16.9722 253.303 12.2161ZM252.639 195.616C238.42 189.938 231.82 217.423 220.204 241.041C220.131 242.034 220.164 243.032 220.301 244.018C220.301 246.493 220.576 262.88 222.016 264.741C222.404 265.485 224.038 264.741 224.799 264.272C231.256 260.274 237.342 255.704 242.982 250.618C243.03 250.563 243.066 250.499 243.088 250.429C243.111 250.36 243.118 250.286 243.111 250.214C246.12 245.927 257.396 223.602 260.129 212.408C262.038 204.481 260.146 198.576 252.639 195.616ZM257.719 216.161C250.106 215.185 242.746 212.781 236.026 209.075C239.811 201.909 244.486 193.739 252.203 196.813C260.793 200.226 260.615 207.296 257.719 216.112V216.161ZM230.8 258.221C230.304 257.805 229.761 257.447 229.183 257.154C226.997 256.042 224.471 255.8 222.113 256.474C221.951 254.549 221.029 242.028 221.029 241.915C233.146 246.347 229.409 244.422 241.413 250.392C240.151 251.589 235.411 254.905 230.8 258.189V258.221ZM239.148 211.405C240.726 212.267 242.345 213.05 244.001 213.751C240.293 219.575 237.016 225.663 234.198 231.966C231.48 237.644 231.577 237.612 228.811 243.808C227.193 243.29 225.575 242.805 223.957 242.319C225.705 238.841 238.129 213.411 239.148 211.372V211.405ZM229.441 243.969C234.699 234.538 240.054 222.81 244.648 213.961C246.266 214.64 247.883 215.19 249.501 215.676C248.644 217.293 246.136 221.596 245.473 222.842C244.81 224.088 238.161 237.191 237.692 238.194C236.948 239.812 234.909 244.325 234.278 245.765C232.628 245.037 231.043 244.487 229.377 243.937L229.441 243.969ZM234.861 245.975C235.848 244.18 239.908 236.641 240.41 235.67C241.17 234.166 249.647 216.84 250.116 215.837C251.604 216.258 253.173 216.614 254.176 216.808C251.216 224.897 242.691 240.475 239.617 248.159C236.818 246.849 236.187 246.525 234.796 245.943L234.861 245.975ZM235.848 209.544L238.743 211.162C232.908 221.1 227.825 231.461 223.537 242.158L221.11 241.413C230.509 221.386 230.946 218.765 235.783 209.512L235.848 209.544ZM242.513 249.567L240.07 248.402C242.707 243.225 250.957 229.944 254.726 216.921C255.632 217.083 256.522 217.229 257.379 217.342C253.222 228.434 248.231 239.196 242.448 249.534L242.513 249.567ZM191.83 260.066C192.475 259.532 192.935 258.809 193.147 257.999C193.359 257.189 193.311 256.333 193.011 255.552C192.873 254.425 192.357 253.378 191.545 252.584C190.734 251.79 189.676 251.295 188.546 251.182C187.416 251.069 186.281 251.344 185.329 251.962C184.376 252.58 183.662 253.504 183.304 254.582C181.234 253.239 178.985 251.815 176.834 250.456C178.451 248.305 183.207 249.259 183.693 251.023C183.703 251.091 183.741 251.153 183.797 251.194C183.853 251.235 183.923 251.252 183.992 251.241C184.061 251.23 184.122 251.193 184.163 251.137C184.204 251.08 184.221 251.01 184.21 250.942C183.968 248.127 178.112 246.477 175.75 249.793C173.663 248.515 171.075 246.962 168.907 245.781C170.767 244.163 174.925 245.069 175.378 246.752C175.399 246.809 175.44 246.857 175.493 246.888C175.547 246.918 175.609 246.928 175.67 246.916C175.73 246.904 175.784 246.872 175.822 246.824C175.861 246.776 175.881 246.716 175.879 246.655C175.669 244.034 170.249 242.271 167.791 245.15C166.76 244.573 165.677 244.096 164.555 243.727C164.35 243.642 164.125 243.618 163.907 243.658C163.689 243.698 163.487 243.801 163.326 243.953C159.233 249.049 145.434 262.282 139.06 263.819C138.9 263.843 138.749 263.909 138.622 264.01C138.495 264.111 138.398 264.244 138.339 264.394C138.28 264.545 138.261 264.709 138.286 264.869C138.31 265.03 138.376 265.181 138.478 265.307C139.877 266.728 141.48 267.932 143.234 268.882C141.616 270.5 140.354 271.956 139.416 273.007C138.931 273.525 138.672 283.425 139.092 285.609C139.155 285.823 139.293 286.007 139.481 286.127C141.519 287.518 167.774 298.874 170.46 297.354C172.255 296.335 193.69 274.026 194.03 273.347C194.547 272.279 194.37 265.161 194.337 262.314C194.208 261.457 192.606 260.535 191.83 260.066ZM140.063 281.436V277.828C146.776 281.063 162.145 287.664 167.968 289.508C169.457 289.993 169.586 289.928 170.363 289.508C174.811 286.661 190.519 268.963 193.399 266.261V269.675C184.663 278.427 169.829 293.763 169.554 292.889C167.952 292.792 141.454 282.083 140.063 281.436ZM191.425 254.614C192.007 255.594 192.319 256.71 192.331 257.849C192.326 258.212 192.237 258.568 192.071 258.891C191.906 259.213 191.668 259.494 191.377 259.71C190.018 258.804 187.446 257.121 184.404 255.148C186.071 251.864 189.775 251.815 191.361 254.614H191.425ZM139.659 264.967C146.55 262.929 159.637 250.311 164.037 244.843C165.096 245.138 166.117 245.556 167.079 246.089C165.461 249.097 167.192 252.398 167.807 251.928C168.146 251.67 167.532 251.573 167.435 249.987C167.393 248.829 167.655 247.68 168.195 246.655C170.427 247.82 173.048 249.34 175.264 250.618C173.905 253.643 175.539 256.636 176.106 256.199C176.672 255.762 175.847 255.86 175.75 254.274C175.71 253.235 175.909 252.2 176.332 251.249C178.613 252.592 180.943 253.983 183.078 255.293C182.749 256.099 182.618 256.973 182.697 257.84C182.776 258.707 183.062 259.542 183.531 260.276C183.552 260.303 183.579 260.327 183.609 260.344C183.639 260.361 183.672 260.373 183.707 260.377C183.741 260.382 183.777 260.379 183.81 260.37C183.844 260.361 183.875 260.346 183.903 260.324C183.931 260.303 183.954 260.277 183.971 260.246C183.988 260.216 184 260.183 184.004 260.148C184.009 260.114 184.006 260.079 183.997 260.045C183.988 260.011 183.973 259.98 183.951 259.952C183.661 259.31 183.517 258.61 183.531 257.905C183.545 257.2 183.716 256.506 184.032 255.876C187.802 258.173 190.843 260.098 191.781 260.729C191.603 260.891 174.731 275.903 168.988 280.368C165.218 279.381 145.434 269.562 139.659 264.967ZM140.273 273.978C147.602 277.213 164.248 284.719 168.082 285.447C168.745 285.577 169.004 285.625 170.266 284.622C175.653 280.303 193.172 261.974 193.334 262.169C193.342 262.217 193.342 262.266 193.334 262.314V265.55C189.727 268.445 169.667 289.508 169.344 288.505C167.726 288.505 141.438 277.78 140.095 277.181C140.063 276.502 140.209 274.69 140.273 273.978ZM169.732 296.27C168.114 297.192 143.476 287.178 140.176 285.14C140.052 284.109 139.993 283.072 139.998 282.034C147.084 285.528 167.693 294.232 169.586 294.151C172.352 294.005 191.911 271.988 193.302 270.451C193.318 271.278 193.236 272.103 193.059 272.91C192.784 273.444 170.799 295.671 169.732 296.27ZM35.7044 205.08C35.8177 206.811 35.8986 208.315 35.8986 209.722C35.8986 209.937 35.9838 210.143 36.1355 210.294C36.2872 210.446 36.4929 210.531 36.7074 210.531C36.9219 210.531 37.1277 210.446 37.2794 210.294C37.4311 210.143 37.5163 209.937 37.5163 209.722C37.5163 208.218 37.4354 206.73 37.3221 204.966C37.3071 204.752 37.2075 204.552 37.0452 204.411C36.8829 204.27 36.6712 204.199 36.4567 204.214C36.2421 204.229 36.0424 204.329 35.9013 204.491C35.7602 204.653 35.6894 204.865 35.7044 205.08ZM282.195 172.644C282.089 172.651 281.986 172.678 281.891 172.724C281.796 172.771 281.712 172.836 281.642 172.916C281.573 172.996 281.52 173.089 281.487 173.19C281.454 173.29 281.442 173.396 281.451 173.502C281.548 174.99 281.645 176.592 281.645 178.145C281.645 178.359 281.73 178.565 281.882 178.717C282.034 178.868 282.239 178.954 282.454 178.954C282.668 178.954 282.874 178.868 283.026 178.717C283.178 178.565 283.263 178.359 283.263 178.145C283.263 176.527 283.166 174.909 283.052 173.389C283.046 173.283 283.019 173.18 282.972 173.085C282.926 172.99 282.861 172.905 282.781 172.836C282.701 172.766 282.608 172.714 282.507 172.681C282.407 172.648 282.3 172.636 282.195 172.644ZM31.5146 201.051C31.7291 201.051 31.9348 200.966 32.0865 200.815C32.2382 200.663 32.3234 200.457 32.3234 200.243C32.3234 200.028 32.2382 199.822 32.0865 199.671C31.9348 199.519 31.7291 199.434 31.5146 199.434C29.5571 199.434 27.9232 199.579 26.3055 199.547C26.0895 199.547 25.8821 199.632 25.7278 199.783C25.5735 199.934 25.4847 200.14 25.4805 200.356C25.4805 200.57 25.5657 200.776 25.7174 200.928C25.8691 201.079 26.0748 201.165 26.2894 201.165C27.9556 201.197 29.7836 201.132 31.5146 201.051ZM277.18 167.856C275.239 167.856 273.605 167.969 271.971 167.985C271.757 167.985 271.551 168.071 271.399 168.222C271.247 168.374 271.162 168.58 271.162 168.794C271.162 169.009 271.247 169.215 271.399 169.366C271.551 169.518 271.757 169.603 271.971 169.603C273.718 169.603 275.53 169.603 277.277 169.474C277.492 169.461 277.692 169.363 277.835 169.203C277.978 169.042 278.05 168.831 278.038 168.616C278.025 168.402 277.927 168.201 277.766 168.059C277.606 167.916 277.395 167.843 277.18 167.856ZM35.2677 191.054C35.3647 192.542 35.4618 194.144 35.4618 195.697C35.4659 195.91 35.5525 196.113 35.7033 196.264C35.8541 196.415 36.0574 196.502 36.2706 196.506C36.4852 196.506 36.6909 196.421 36.8426 196.269C36.9943 196.117 37.0795 195.911 37.0795 195.697C37.0795 194.079 36.9824 192.461 36.8854 190.941C36.8703 190.726 36.7707 190.526 36.6084 190.385C36.4461 190.244 36.2344 190.174 36.0199 190.189C35.8054 190.204 35.6056 190.303 35.4645 190.465C35.3235 190.628 35.2526 190.84 35.2677 191.054ZM282.826 164.119C282.826 162.501 282.729 160.884 282.616 159.363C282.601 159.149 282.501 158.949 282.339 158.808C282.176 158.667 281.965 158.596 281.75 158.611C281.536 158.626 281.336 158.725 281.195 158.888C281.054 159.05 280.983 159.262 280.998 159.476C281.095 160.965 281.192 162.566 281.192 164.119C281.192 164.334 281.277 164.539 281.429 164.691C281.581 164.843 281.786 164.928 282.001 164.928C282.217 164.928 282.424 164.843 282.579 164.692C282.733 164.541 282.822 164.335 282.826 164.119ZM47.2064 200.841C47.3126 200.837 47.417 200.812 47.5135 200.767C47.6101 200.723 47.6969 200.66 47.769 200.582C47.8411 200.503 47.8972 200.412 47.9338 200.312C47.9705 200.212 47.9872 200.106 47.9829 200C47.9665 199.788 47.8707 199.591 47.7147 199.447C47.5587 199.303 47.354 199.223 47.1417 199.223C45.1842 199.304 43.5503 199.369 41.9164 199.337C41.7019 199.337 41.4962 199.422 41.3445 199.574C41.1928 199.725 41.1076 199.931 41.1076 200.146C41.1076 200.36 41.1928 200.566 41.3445 200.717C41.4962 200.869 41.7019 200.954 41.9164 200.954C43.6474 200.987 45.4592 200.922 47.2064 200.841ZM292.872 167.646C291.254 167.727 289.459 167.775 287.663 167.775C287.556 167.771 287.45 167.788 287.35 167.826C287.25 167.864 287.158 167.922 287.081 167.996C287.004 168.07 286.943 168.159 286.901 168.257C286.859 168.355 286.838 168.461 286.838 168.568C286.838 168.784 286.923 168.991 287.074 169.146C287.225 169.3 287.431 169.389 287.647 169.393C289.491 169.393 290.979 169.393 292.937 169.263C293.043 169.259 293.147 169.234 293.244 169.19C293.34 169.145 293.427 169.082 293.499 169.004C293.571 168.926 293.627 168.834 293.664 168.734C293.701 168.635 293.717 168.529 293.713 168.422C293.693 168.212 293.596 168.016 293.441 167.873C293.286 167.73 293.083 167.649 292.872 167.646ZM10.0314 152.908C10.2417 153.07 55.8611 146.308 57.8185 145.111C57.9269 145.032 58.0135 144.927 58.0701 144.805C58.1267 144.683 58.1514 144.549 58.1421 144.415C58.1421 142.329 55.4082 122.738 54.0978 117.853C53.936 117.254 53.7743 116.656 53.4022 116.445C50.9271 114.957 7.31361 123.175 4.70909 124.857C4.6385 124.899 4.57752 124.955 4.53013 125.022C4.48274 125.089 4.45001 125.165 4.43408 125.246C3.88406 127.203 8.62395 151.938 10.0314 152.908ZM5.42088 125.634C8.52689 124.226 48.1123 116.979 52.6419 117.545C53.7419 120.376 56.6861 141.115 56.8803 144.157C54.6317 144.82 10.6461 152.375 10.4843 152.407C10.3225 152.439 10.3064 152.633 9.96665 151.614C8.54307 147.344 5.34 129.29 5.42088 125.634Z" fill="#3C0F34"/>
<path d="M61.3774 146.551C61.4654 146.387 61.5047 146.202 61.4906 146.017C61.4906 143.445 57.8023 114.892 56.4919 112.611C56.3892 112.443 56.2438 112.305 56.0705 112.211C55.8971 112.118 55.7021 112.071 55.5051 112.077C50.0858 111.414 4.36927 120.344 1.36033 122.431C0.939726 122.722 1.00443 123.45 1.05296 124.226C1.3118 128.481 5.9061 156.467 7.52381 156.306C7.70176 156.306 7.63705 156.176 7.21644 157.034C4.69282 162.226 -0.0956093 178.856 0.00145338 182.205C0.00145338 183.613 0.324995 185.441 1.71623 185.343C11.6975 184.114 60.6333 176.349 74.7073 173.453C75.2574 173.34 75.6133 172.839 75.5971 172.014C75.431 170.639 75.0143 169.307 74.3676 168.083C72.394 164.378 64.2084 149.705 61.3774 146.551ZM7.62087 155.804C6.35906 154.186 1.71623 126.313 2.07212 123.223C5.63109 121.379 50.7329 112.66 55.4566 113.372C56.7508 116.93 60.0994 142.636 60.3097 145.726C54.583 147.699 14.9329 154.105 7.62087 155.804ZM8.33266 156.289C9.69154 155.95 55.9743 148.201 60.2127 147.085C62.526 149.236 72.9764 167.824 73.6558 169.409C64.3702 171.027 9.28711 180.232 1.18238 181.461C1.29562 176.559 6.3267 159.428 8.33266 156.289Z" fill="#3C0F34"/>
<path d="M14.4155 173.065C15.8229 172.855 45.6858 169.264 56.476 166.336C56.5425 166.318 56.5994 166.276 56.6343 166.216C56.6692 166.157 56.6792 166.087 56.662 166.02C56.6448 165.954 56.602 165.897 56.5428 165.862C56.4837 165.827 56.4131 165.817 56.3466 165.834C54.2274 166.271 28.3763 169.717 14.3831 172.564C14.3445 172.557 14.3047 172.559 14.2669 172.569C14.2291 172.58 14.1943 172.599 14.165 172.625C14.1357 172.652 14.1127 172.684 14.0978 172.72C14.0829 172.757 14.0765 172.796 14.079 172.835C14.0815 172.874 14.093 172.912 14.1124 172.947C14.1318 172.981 14.1588 173.01 14.1912 173.032C14.2236 173.054 14.2607 173.069 14.2995 173.075C14.3384 173.08 14.378 173.077 14.4155 173.065ZM36.2384 60.5049C35.6341 61.8698 35.126 63.2752 34.7178 64.711C34.6937 64.9414 34.7572 65.1724 34.8957 65.3581C36.5296 67.817 53.2729 86.6957 57.6407 89.3487C58.2393 89.7208 58.9511 89.9796 59.3879 89.4458C62.5608 85.4977 66.7016 82.438 71.4074 80.5645C75.2376 79.2094 79.2532 78.451 83.3138 78.3159C86.5492 78.0247 87.1154 77.7012 88.3611 75.582C89.8304 72.793 91.7799 70.285 94.1201 68.1729C97.104 65.5639 100.416 63.3559 103.972 61.605C104.132 61.5143 104.257 61.3726 104.328 61.2026C104.398 61.0326 104.409 60.844 104.36 60.6667C103.813 59.2751 103.09 57.9594 102.209 56.7518C102.791 56.5577 103.438 56.3798 103.438 55.7974C103.438 54.1797 89.3317 33.7642 85.4168 29.914C85.0124 29.5096 84.43 28.9757 83.8962 29.0081C75.8076 29.4611 67.9294 37.0966 63.3674 43.7616C58.1422 43.5675 54.7612 43.0984 48.808 45.6058C44.6053 47.3897 40.8163 50.0223 37.6782 53.3385C37.1929 53.84 33.8927 57.3342 33.8442 57.6092C33.7957 57.8842 33.8927 57.8842 36.2384 60.5049ZM100.947 60.052C94.201 61.2005 89.8979 66.814 86.7272 72.9128C85.3197 75.6305 85.4492 75.7599 83.9609 75.7276C81.3584 75.5802 78.7478 75.6777 76.1635 76.0188C74.268 76.3021 72.4044 76.768 70.5986 77.41C66.4896 78.8659 61.7821 83.5249 59.2746 86.9868C59.2213 87.0581 59.1536 87.1172 59.0759 87.1604C58.9982 87.2036 58.9122 87.2299 58.8236 87.2375C58.735 87.2452 58.6458 87.234 58.5618 87.2047C58.4778 87.1755 58.401 87.1288 58.3363 87.0677C53.0788 81.6484 43.7769 72.1363 39.1018 66.6684C38.8753 66.4258 39.2635 66.0699 39.49 66.3287C42.5151 69.5641 50.3287 77.3129 58.7084 85.7412C61.5394 82.1337 65.9072 77.7659 70.2265 76.2452C72.5818 75.4051 75.0327 74.8617 77.5224 74.6275C79.8539 74.4505 82.1955 74.4505 84.5271 74.6275C85.4815 73.5275 90.2052 61.0388 100.914 59.6475C100.946 59.6705 100.972 59.7003 100.99 59.7347C101.008 59.769 101.018 59.807 101.02 59.8459C101.022 59.8847 101.014 59.9234 100.999 59.9591C100.983 59.9948 100.96 60.0265 100.931 60.052H100.947ZM83.88 30.3184C87.1154 32.5832 100.284 52.0767 101.998 55.49C99.0229 56.4328 96.1503 57.674 93.4245 59.1946C90.8432 60.4886 88.5831 62.3421 86.8088 64.6201C85.0346 66.8981 83.7908 69.5432 83.1682 72.3627C77.3606 62.9153 69.2559 52.5134 63.8689 44.8617C64.1925 44.6514 73.284 30.9493 83.88 30.3184ZM49.1639 46.4955C55.0686 44.1175 58.3363 44.6675 63.2218 44.8778C68.075 53.1605 76.7944 64.8404 82.5373 72.4922C77.2368 71.2379 71.6591 72.0051 66.894 74.6437C64.0307 76.2614 60.5364 80.1439 58.3849 82.5543C55.2789 80.063 37.3546 60.9741 34.4751 57.7386C38.9076 52.7237 43.0004 48.9545 49.1639 46.4308V46.4955ZM19.5598 87.6339C19.16 87.3533 18.6873 87.1948 18.1991 87.1776C17.711 87.1604 17.2283 87.2852 16.8097 87.5369C16.5048 87.6728 16.2298 87.8675 16.0001 88.1098C15.7705 88.3521 15.5909 88.6372 15.4715 88.9489C15.352 89.2606 15.2952 89.5928 15.3041 89.9264C15.3131 90.2601 15.3877 90.5888 15.5236 90.8936C15.6596 91.1985 15.8543 91.4736 16.0965 91.7032C16.3388 91.9328 16.6239 92.1124 16.9356 92.2319C17.2473 92.3513 17.5795 92.4082 17.9132 92.3992C18.2469 92.3903 18.5755 92.3157 18.8804 92.1797C19.3674 92.0732 19.8105 91.8212 20.151 91.4571C20.4915 91.093 20.7133 90.6341 20.787 90.141C20.8607 89.648 20.7828 89.1442 20.5636 88.6965C20.3445 88.2487 19.9944 87.8782 19.5598 87.6339ZM18.4921 90.8694C17.3597 91.2253 16.6803 90.8694 16.4053 90.3193C15.8876 89.1708 16.5347 87.4075 18.2171 87.9251C19.398 88.3619 20.3525 90.3517 18.4921 90.9502V90.8694ZM101.82 13.6075C102.29 14.5619 104.473 14.206 105.428 13.8987C105.929 13.7369 106.253 13.559 106.301 13.0736C106.447 11.8604 106.609 1.34524 106.059 0.326081C106.002 0.219214 105.915 0.131505 105.808 0.0739488C105.702 0.0163924 105.581 -0.00844944 105.46 0.00253867C103.734 -0.00224983 102.017 0.248518 100.364 0.746686C99.7012 1.15111 101.238 12.5398 101.82 13.6075ZM100.704 1.13494C102.199 0.921155 103.71 0.850734 105.218 0.924633C105.315 2.12174 105.056 12.4913 105.04 12.653C104.356 12.898 103.626 12.9864 102.904 12.9119C102.791 12.5398 102.597 11.5368 102.354 10.275C101.641 7.25996 101.091 4.2089 100.704 1.13494ZM17.9906 73.9805C18.1458 74.06 18.3177 74.1014 18.4921 74.1014C18.6665 74.1014 18.8384 74.06 18.9936 73.9805C19.6186 73.595 20.1143 73.0317 20.4172 72.3627C20.4583 72.2557 20.471 72.1398 20.454 72.0264C20.437 71.913 20.3909 71.8059 20.3201 71.7157C19.5436 70.7936 11.0668 60.9741 10.0315 61.5888C8.76032 62.4117 7.55427 63.3311 6.424 64.3389C6.37845 64.3796 6.34195 64.4295 6.31687 64.4852C6.29179 64.5409 6.27869 64.6013 6.2784 64.6624C6.24605 65.5036 15.6611 73.0422 17.9906 73.9805ZM10.2256 62.0094C11.4065 62.8668 15.3861 67.7846 19.0745 72.1363C18.9158 72.3861 18.7194 72.6099 18.4921 72.7995C14.6143 70.3176 10.9117 67.5718 7.4108 64.5816C8.28843 63.6601 9.22897 62.8006 10.2256 62.0094ZM35.6399 26.3227C35.9958 20.046 39.6518 17.1341 43.4696 16.3899C42.3857 20.3695 42.5637 25.5462 46.4947 26.2095C48.3712 26.5168 49.2933 25.5462 50.6522 24.4138C56.4598 19.5607 51.7684 14.7075 45.2167 15.0472C47.6594 8.34993 53.3053 2.89824 60.7953 2.72029C60.8639 2.72029 60.9297 2.69302 60.9783 2.64448C61.0268 2.59594 61.0541 2.53011 61.0541 2.46146C61.0541 2.39281 61.0268 2.32698 60.9783 2.27844C60.9297 2.2299 60.8639 2.20262 60.7953 2.20262C52.7067 2.04085 46.3491 7.86461 43.8416 15.1443C39.5224 15.8885 35.2354 19.1239 35.1222 26.2256C35.1158 26.2596 35.1162 26.2945 35.1233 26.3284C35.1304 26.3622 35.1441 26.3943 35.1637 26.4229C35.1832 26.4514 35.2082 26.4758 35.2371 26.4947C35.2661 26.5136 35.2985 26.5266 35.3325 26.533C35.3665 26.5394 35.4014 26.539 35.4352 26.5319C35.4691 26.5247 35.5012 26.511 35.5297 26.4915C35.5583 26.472 35.5827 26.447 35.6016 26.4181C35.6205 26.3891 35.6335 26.3567 35.6399 26.3227ZM44.8446 16.1958C47.255 16.0341 50.8463 16.7782 51.8331 18.9621C52.3993 20.2077 51.8331 21.7446 49.8272 23.427C49.2826 23.9726 48.6613 24.4358 47.983 24.802C45.5564 25.8374 42.871 22.8446 44.8446 16.1958ZM49.4713 244.989C47.9084 244.57 46.2775 244.468 44.6746 244.689C43.0718 244.91 41.5293 245.45 40.138 246.276C38.7467 247.102 37.5347 248.198 36.5733 249.499C35.6119 250.801 34.9205 252.281 34.5398 253.854C33.8212 257.121 34.4298 260.54 36.2319 263.358C38.034 266.177 40.8818 268.164 44.149 268.882C47.4162 269.601 50.835 268.992 53.6534 267.19C56.4718 265.388 58.4589 262.54 59.1775 259.273C59.4845 257.697 59.4766 256.076 59.1541 254.504C58.8317 252.931 58.2012 251.438 57.2989 250.11C56.3966 248.782 55.2404 247.646 53.8969 246.767C52.5535 245.888 51.0494 245.284 49.4713 244.989ZM54.47 258.173C53.8209 260.762 52.267 263.033 50.0892 264.576C47.9115 266.119 45.2535 266.831 42.596 266.585C40.1565 265.632 38.1313 263.849 36.8767 261.55C35.6221 259.251 35.2185 256.583 35.7369 254.016C36.3422 251.364 37.8817 249.019 40.0739 247.409C42.266 245.799 44.9644 245.032 47.6756 245.247C50.1392 246.265 52.1648 248.12 53.3958 250.484C54.6268 252.848 54.9843 255.571 54.4053 258.173H54.47Z" fill="#3C0F34"/>
<path d="M71.0188 249.599C69.6105 249.113 68.1011 248.996 66.6348 249.259C66.027 247.866 65.279 246.538 64.4023 245.296C65.4538 244.341 68.3334 241.688 67.6378 240.443C65.1621 237.481 62.2229 234.941 58.9345 232.92C57.5613 232.151 56.0493 231.662 54.4858 231.481C53.4504 231.626 50.9915 235.654 50.4415 236.56C50.0856 236.56 48.8238 236.156 48.7267 236.107C48.7267 234.942 48.387 230.736 47.3355 230.251C46.1596 229.818 44.9386 229.52 43.6956 229.361C42.5471 229.183 32.2099 231.076 31.4496 232.467C30.9481 233.406 32.1128 236.948 32.4525 237.935C31.5801 238.415 30.7422 238.956 29.9451 239.553C28.3274 240.701 28.7642 240.653 28.473 240.524C28.121 240.356 27.744 240.246 27.3568 240.2C26.0645 239.442 24.5493 239.156 23.0698 239.391C21.5815 239.876 18.0711 247.868 17.5049 249.922C17.3196 250.441 17.2695 250.997 17.3593 251.54C17.7476 252.608 20.3359 253.465 21.4198 253.805C21.1204 255.886 21.1204 258 21.4198 260.082C19.9962 260.47 17.0358 261.343 17.1975 262.799C17.3593 264.255 21.1447 273.865 22.7139 274.625C23.5735 275.106 24.5241 275.401 25.5047 275.493C26.4853 275.585 27.4743 275.471 28.4083 275.159C28.9343 274.896 29.4423 274.599 29.9289 274.269C30.576 274.754 31.2554 275.191 31.9511 275.612C31.4496 276.857 30.3333 279.64 30.6892 280.902C30.8672 281.565 31.401 281.775 32.1452 282.05C34.1997 282.794 45.2648 285.447 46.9472 285.156C47.5781 285.059 47.9179 284.396 48.112 283.765C48.4714 282.329 48.6828 280.86 48.7429 279.381C49.5737 279.299 50.3998 279.175 51.218 279.009C51.7177 279.888 52.3569 280.68 53.1107 281.355C53.9357 281.937 54.6314 281.646 55.5696 281.047C56.0226 281.63 56.702 282.438 57.43 282.519C59.258 282.73 66.8127 275.612 67.5892 274.156C68.2363 272.942 65.8745 270.775 64.8229 269.82C65.9605 268.109 66.8534 266.246 67.476 264.288C68.6428 264.464 69.8236 264.529 71.0026 264.482C71.5364 264.482 72.1512 264.288 72.3777 263.786C73.3645 261.538 73.0733 253.012 72.3777 250.845C72.2806 250.214 71.5526 249.793 71.0188 249.599ZM71.407 251.087C71.9571 253.19 72.135 261.133 71.3261 263.188C69.9275 263.326 68.5162 263.26 67.1363 262.994C66.9889 262.968 66.8375 262.999 66.7118 263.08C66.586 263.161 66.4951 263.286 66.4568 263.43C65.8126 265.617 64.8124 267.683 63.4964 269.545C63.4027 269.669 63.3604 269.824 63.3785 269.977C63.3966 270.131 63.4737 270.272 63.5935 270.37C64.7285 271.27 65.6929 272.366 66.4407 273.606C65.6318 274.932 59.3065 280.724 57.5594 281.209C57.3006 281.209 56.5888 280.238 56.4108 279.98C55.8133 279.082 55.273 278.147 54.7931 277.181C54.7231 277.04 54.603 276.93 54.4563 276.874C54.3097 276.817 54.1471 276.817 54.0005 276.874C49.3091 278.637 47.5296 277.601 47.5296 278.766C47.5317 280.51 47.2475 282.243 46.6884 283.894C42.8867 283.481 39.1429 282.645 35.5262 281.403C35.7009 279.676 36.183 277.994 36.9498 276.437C37.4351 275.353 35.4938 275.66 31.8702 271.972C31.7535 271.864 31.6004 271.804 31.4415 271.804C31.2825 271.804 31.1294 271.864 31.0128 271.972C29.3951 273.298 27.2921 274.593 26.8714 274.382C26.0464 273.978 22.2448 265.355 22.0183 263.608C23.1689 262.807 24.4751 262.255 25.8523 261.991C25.9992 261.949 26.126 261.856 26.2093 261.728C26.2926 261.6 26.3267 261.446 26.3052 261.295C25.9088 259.004 25.9088 256.662 26.3052 254.371C26.33 254.23 26.3003 254.085 26.2223 253.965C26.1442 253.845 26.0236 253.759 25.8846 253.724C24.6651 253.404 23.491 252.932 22.3904 252.317C22.0345 252.058 22.0668 252.074 22.0992 251.799C23.1463 248.023 24.8255 244.451 27.0656 241.235C27.9391 240.993 30.301 242.724 31.1098 243.338C31.1944 243.42 31.3075 243.466 31.4253 243.466C31.5431 243.466 31.6562 243.42 31.7408 243.338C32.4841 242.567 33.2844 241.854 34.135 241.203C36.5939 239.343 37.2571 239.585 37.0468 238.938C36.3032 237.315 35.8855 235.562 35.8174 233.778C36.0681 233.569 36.3526 233.405 36.6586 233.292C38.1689 232.695 39.7206 232.209 41.3014 231.836C43.2176 231.302 45.187 230.982 47.1737 230.882C47.5134 231.028 47.8208 232.5 47.9017 232.953C48.5002 236.188 48.0958 236.851 48.5649 236.9C53.1754 237.353 54.1137 238.631 54.4372 238.065C55.3343 236.496 56.3798 235.017 57.5594 233.648C57.8991 233.309 57.883 233.147 58.9021 233.729C61.9468 235.719 64.6737 238.157 66.9907 240.96C67.2333 241.381 65.1303 243.613 63.5935 244.924C63.0596 245.393 63.82 245.603 65.2112 248.256C66.6024 250.909 66.2789 251.653 67.023 251.492C68.4576 251.148 69.9339 251.012 71.407 251.087ZM295.929 115.911C292.538 114.526 288.982 113.585 285.349 113.113C282.696 112.692 279.574 112.271 276.937 111.932C279.477 108.34 286.999 99.2488 288.261 97.0326C288.617 96.434 287.938 95.5928 287.436 95.0913C284.621 92.0824 279.186 90.95 275.012 90.3029C272.618 89.9147 262.62 88.6852 260.922 89.4941C258.884 90.4647 243.806 113.113 243.354 116.558C243.354 117.141 243.548 117.367 244.114 117.578C246.492 118.451 257.217 119.81 259.611 120.376C256.376 126.038 241.995 145.176 240.587 147.877C240.248 148.557 240.458 148.961 240.862 149.091C242.318 149.668 243.816 150.134 245.343 150.482C245.926 150.66 247.204 149.867 249.064 148.735C257.411 143.72 293.228 120.069 295.978 117.011C296.054 116.94 296.113 116.852 296.152 116.755C296.192 116.659 296.209 116.555 296.205 116.45C296.2 116.346 296.173 116.244 296.126 116.151C296.078 116.058 296.011 115.976 295.929 115.911ZM261.165 135.324C247.414 144.399 242.771 147.052 242.609 147.165C244.826 143.784 258.592 124.922 260.954 120.409C260.995 120.321 261.016 120.226 261.016 120.13C261.016 120.033 260.994 119.938 260.952 119.851C260.91 119.765 260.849 119.688 260.774 119.628C260.699 119.567 260.611 119.525 260.517 119.503C258.9 118.92 247.123 117.658 244.34 116.672C244.696 113.663 259.385 90.9176 261.165 90.0117C262.944 89.1058 280.205 91.1603 283.44 93.4736C281.742 96.7899 272.359 108.405 270.838 111.107C270.531 111.657 270.434 112.191 271.033 112.336C271.631 112.482 286.838 114.261 290.154 115.345C286.11 118.726 265.694 132.283 261.165 135.259V135.324ZM157.388 36.417C157.388 36.5625 157.485 36.7405 157.728 37.6788C157.792 37.8823 157.932 38.0533 158.119 38.1558C158.306 38.2584 158.525 38.2845 158.731 38.2288C158.937 38.1687 159.111 38.0293 159.214 37.8412C159.317 37.6531 159.341 37.4317 159.281 37.2258C159.119 36.5949 158.974 36.0611 158.877 35.8022C158.782 35.6246 158.625 35.4884 158.436 35.4203C158.247 35.3521 158.039 35.3569 157.853 35.4337C157.667 35.5105 157.517 35.6537 157.431 35.8355C157.345 36.0173 157.33 36.2246 157.388 36.417Z" fill="#3C0F34"/>
</svg>
