<svg width="265" height="201" viewBox="0 0 265 201" fill="none" xmlns="http://www.w3.org/2000/svg">
<path d="M82.9135 59.131C78.3109 59.3035 74.3715 64.0785 76.1489 68.4158C77.7538 72.2624 82.9401 71.891 86.1102 70.4983C92.3177 67.8455 89.6782 58.8923 82.9135 59.131ZM86.5611 69.2382C83.789 71.0023 78.2181 71.3207 76.8254 68.2301C75.4326 65.1396 78.1518 60.8554 82.0646 60.2717C88.0732 59.1841 90.8852 66.4926 86.5611 69.2382ZM110.808 63.8C111.842 62.4736 113.845 61.3461 115.344 62.0226C116.219 62.4338 116.737 61.2798 115.742 61.0941C114.707 60.9127 113.641 61.0428 112.68 61.4678C111.719 61.8929 110.906 62.5938 110.343 63.4816C110.323 63.5121 110.308 63.5464 110.3 63.5826C110.293 63.6187 110.292 63.6561 110.299 63.6924C110.306 63.7287 110.32 63.7634 110.34 63.7943C110.36 63.8253 110.386 63.852 110.416 63.8729C110.447 63.8938 110.481 63.9085 110.517 63.9162C110.554 63.9238 110.591 63.9243 110.627 63.9175C110.664 63.9107 110.698 63.8969 110.729 63.8767C110.76 63.8565 110.787 63.8305 110.808 63.8ZM53.8919 23.557C56.3395 24.6071 58.898 25.3769 61.5187 25.8517C61.837 25.8517 62.0095 25.467 62.0891 25.2283C63.1458 21.9521 65.301 19.141 68.1905 17.2699C79.2394 10.7705 89.8771 21.8725 85.248 32.3776C82.6748 38.2005 75.9632 39.885 70.4852 41.4236C69.5036 41.7021 69.7291 42.1266 70.6841 44.408C72.2935 48.2811 73.8808 52.1586 75.4459 56.0405C75.7642 56.7966 77.1172 56.3058 77.661 56.1997C78.5099 56.0538 83.1523 55.51 83.2982 54.356C83.4441 53.202 80.4597 47.0475 79.8893 45.7477C90.421 42.8561 97.5437 31.6878 95.1429 20.8777C92.132 7.46777 77.4488 4.29768 65.8162 8.1575C59.6883 10.2002 53.5868 15.6782 53.494 22.6285C53.494 23.3315 53.3613 23.3315 53.8919 23.557ZM64.2909 9.64307C75.8173 5.18636 91.0311 7.32187 94.1747 21.1297C96.5357 31.3828 89.466 42.0603 79.4782 44.7794C79.0802 44.8855 78.6558 45.0712 79.3588 46.4639C80.473 48.7321 82.2371 53.2286 82.635 54.1173C80.5515 54.7985 78.4122 55.2956 76.2417 55.6028L70.6974 42.4449C75.9234 42.1001 83.9614 37.9484 86.1897 32.8551C90.673 22.5489 80.9107 10.293 68.9731 15.9169C67.1284 16.7905 65.5026 18.0658 64.215 19.6495C62.9274 21.2332 62.0107 23.085 61.532 25.0691L54.1041 22.8938C54.197 17.2433 59.2108 11.6061 64.2909 9.64307ZM112.97 67.4343C112.174 66.7048 110.091 69.8086 111.153 70.4452C111.749 70.7901 113.779 68.1771 112.97 67.4343ZM130.332 66.7844C131.093 67.214 131.73 67.8331 132.181 68.5814C132.632 69.3298 132.881 70.182 132.906 71.0554C132.906 71.1194 132.927 71.1815 132.966 71.2323C133.005 71.283 133.06 71.3194 133.122 71.336C133.184 71.3526 133.249 71.3484 133.308 71.3241C133.368 71.2997 133.417 71.2566 133.449 71.2013C134.272 69.0392 132.627 66.9037 130.889 65.763C130.186 65.2855 129.616 66.5721 130.332 66.7844ZM120.809 88.5241C122.679 87.012 125.73 86.7467 127.242 88.9352C128.383 90.5933 127.414 92.6226 125.372 92.1186C124.796 91.8848 124.237 91.6099 123.7 91.2962C123.65 91.2777 123.597 91.2731 123.544 91.2831C123.492 91.293 123.443 91.317 123.404 91.3525C123.364 91.388 123.335 91.4336 123.32 91.4845C123.304 91.5354 123.303 91.5895 123.316 91.6411C124.045 93.8297 128.369 93.7235 128.701 90.8453C129.099 87.4099 123.992 84.6775 120.517 88.1925C120.473 88.2312 120.446 88.2857 120.442 88.3442C120.439 88.4026 120.458 88.4602 120.497 88.5042C120.536 88.5481 120.59 88.5749 120.649 88.5787C120.707 88.5824 120.765 88.5628 120.809 88.5241ZM125.504 75.6049C126.831 76.2151 128.157 72.8858 127.083 72.4348C126.008 71.9839 124.682 75.2601 125.504 75.6049ZM116.79 80.4728C118.66 81.2289 118.368 80.2606 118.116 80.0351C116.606 79.2685 115.046 78.6039 113.447 78.0455C115.397 74.955 117.241 71.8247 119.376 68.8536C119.562 68.6015 119.164 68.2832 118.978 68.5485C116.962 71.3737 114.92 74.1857 112.97 77.0507C111.723 78.8679 112.121 78.5893 116.79 80.4728ZM164.474 190.551C165.393 190.085 166.123 189.318 166.543 188.377C166.963 187.437 167.046 186.38 166.778 185.386C166.51 184.391 165.908 183.519 165.073 182.916C164.238 182.313 163.221 182.016 162.192 182.075C155.255 182.075 155.826 195.299 164.474 190.551ZM193.151 160.136C196.042 162.922 202.648 161.728 200.605 155.892C198.178 148.928 187.898 155.083 193.151 160.136ZM185.444 209.996C176.345 210.739 181.133 223.353 187.58 219.533C191.97 216.92 190.007 209.571 185.444 209.996ZM161.94 145.307C160.893 140.89 153.518 139.789 151.873 144.909C149.3 152.987 163.625 152.43 161.94 145.307ZM218.273 190.272C209.054 193.615 222.968 207.157 225.342 195.047C226.231 190.591 222 188.919 218.273 190.272ZM131.526 169.912C130.492 170.061 129.54 170.556 128.824 171.317C128.108 172.078 127.671 173.059 127.585 174.099C127.499 175.14 127.768 176.18 128.349 177.048C128.93 177.916 129.788 178.561 130.783 178.878C137.614 180.921 138.768 168.851 131.526 169.912Z" fill="#3C0F34"/>
<path d="M240.291 207.847C239.827 187.102 227.159 165.522 214.28 149.698C217.383 145.445 219.134 140.357 219.305 135.095C219.475 129.834 218.057 124.643 215.235 120.198C211.614 114.495 206.733 112.519 205.194 108.261C203.337 103.194 205.658 97.6497 205.34 92.5298C204.969 86.3753 201.361 79.5974 195.007 77.9394C190.79 76.8385 184.555 78.8015 182.287 71.1084C180.51 65.0733 183.614 56.1466 178.308 47.724C175.47 43.201 170.469 40.6941 165.601 38.983C159.447 36.821 152.165 35.9721 146.236 39.182C142.691 37.8161 138.866 37.3379 135.094 37.7893C139.272 33.4387 141.063 24.3926 139.073 18.6626C138.463 16.8852 128.157 24.2202 127.414 33.3989C123.236 28.5045 119.111 26.873 113.036 26.0904C110.702 25.7853 115.569 37.9086 119.748 39.5136C116.564 39.8054 112.161 40.84 109.866 43.1877C109.146 44.055 108.609 45.0583 108.285 46.1378C107.961 47.2173 107.858 48.3509 107.982 49.4711C108.106 50.5913 108.454 51.675 109.005 52.6578C109.557 53.6406 110.301 54.5024 111.192 55.1916C106.457 62.7256 102.292 71.0156 101.51 80.0086C97.7403 80.9456 94.491 83.3278 92.4635 86.6406C86.8263 94.8642 93.3787 98.5782 91.283 105.078C88.8027 112.89 81.3085 109.985 77.7537 115.171C75.1009 118.925 75.7243 124.217 78.2976 127.865C74.4112 130.093 69.5168 132.866 66.4395 136.062C67.1425 115.622 64.4897 96.7212 63.4552 92.5033C63.3092 91.9462 61.2268 92.3839 60.6697 92.4237C61.8053 89.9688 62.5868 87.3652 62.9909 84.6908C63.2164 82.1971 62.9909 78.6291 59.7943 78.4302C59.5157 77.6476 59.7943 69.5963 54.6876 65.1662C53.5735 64.1979 52.393 64.0122 52.4195 65.7763C52.4195 68.4291 54.2632 70.7503 54.5152 75.0611C53.3036 75.1311 52.1381 75.5503 51.1594 76.2681C46.6629 75.1009 41.795 85.3142 45.8538 86.0702C45.3194 87.9655 45.4457 89.9863 46.212 91.8003C45.8538 91.8003 45.0845 91.5085 44.8856 91.9196C35.2957 110.622 21.7797 144.087 25.4803 164.673C29.7911 188.641 55.5896 195.299 76.6661 192.912C77.9062 204.836 81.4086 216.414 86.9855 227.027C88.5506 229.971 94.9439 242.572 98.4854 245.517C97.4741 249.749 96.9622 254.085 96.96 258.436C96.96 258.86 97.5967 258.794 97.6099 258.436C97.7555 254.364 98.3019 250.317 99.2414 246.352C102.169 247.581 105.158 248.661 108.195 249.589C132.058 256.731 157.461 256.938 181.438 250.186C184.953 249.191 188.734 248.262 191.798 246.206C193.005 250.186 194.331 253.992 195.618 257.879C195.627 257.911 195.643 257.941 195.664 257.967C195.685 257.993 195.712 258.015 195.741 258.031C195.771 258.047 195.803 258.057 195.837 258.06C195.87 258.064 195.904 258.061 195.936 258.051C195.968 258.042 195.998 258.026 196.024 258.005C196.05 257.983 196.072 257.957 196.088 257.928C196.104 257.898 196.114 257.866 196.118 257.832C196.121 257.799 196.118 257.765 196.108 257.733C194.915 253.462 193.761 249.191 192.474 244.96C193.325 241.167 193.77 237.294 193.8 233.407C201.918 234.574 213.405 235.529 221.39 233.924C229.375 232.319 236.046 227.982 238.633 219.984C239.878 216.063 240.439 211.958 240.291 207.847ZM154.672 47.6709C157.112 52.2868 157.775 59.0382 157.006 64.1183C156.505 67.959 154.959 71.5883 152.536 74.6101L151.21 74.2387C154.486 63.6275 151.488 51.491 142.164 44.9651C138.461 42.605 134.319 41.0169 129.987 40.2961C137.773 35.8129 150.454 39.6595 154.672 47.6709ZM138.662 19.5247C139.431 30.0298 137.866 33.6111 133.356 38.0943C132.502 38.279 131.673 38.5685 130.889 38.9565C130.224 37.1886 129.269 35.5436 128.064 34.0886C129.192 28.0137 132.64 21.8857 138.662 19.5247ZM113.394 26.8067C113.394 26.621 113.394 26.6608 113.553 26.7005C122.56 28.7565 125.929 31.2236 130.08 39.4075C129.762 39.6074 129.464 39.8384 129.192 40.0972C126.63 39.5761 124.019 39.3447 121.406 39.4075C117.241 38.6779 114.071 30.5869 113.394 26.8067ZM112.2 55.7089C120.822 60.4176 134.563 64.4499 144.75 63.1235C141.981 66.4671 140.562 70.7249 140.771 75.0611C140.93 78.4301 143.013 80.632 145.944 78.1383C147.469 76.8119 149.419 74.4907 151.701 75.2468C153.982 76.0028 153.677 78.6158 152.735 80.5524C149.247 87.7017 142.548 86.5079 145.148 103.008C145.591 105.816 146.288 108.577 147.231 111.259C146.788 113.414 145.606 115.348 143.888 116.723C136.022 123.859 120.902 122.148 121.154 112.346C121.228 109.643 121.162 106.938 120.955 104.242C115.742 103.181 109.123 100.767 105.873 96.2039C104.763 94.5428 103.947 92.7033 103.459 90.7657C101.218 82.9664 102.756 74.6367 105.9 67.3017C107.642 63.2532 109.751 59.3728 112.2 55.7089ZM148.093 111.776C149.552 111.908 150.944 112.107 152.324 112.333C152.324 113.394 153.65 117.639 152.629 122.758C151.634 128.183 147.788 133.821 141.898 134.298C133.012 135.001 130.956 126.234 130.995 121.963C142.363 122.772 148.557 113.606 148.093 111.776ZM129.258 121.75C128.634 121.75 127.109 127.852 121.591 129.099C116.365 130.292 113.182 126.114 114.15 121.14C114.906 117.161 117.811 114.415 118.381 113.182L120.225 112.771C119.827 117.837 124.164 120.888 129.258 121.75ZM61.0146 79.5841C63.0838 80.9105 62.0624 85.9243 61.439 87.8078C60.935 89.3597 60.3381 90.8983 59.781 92.4369C55.5533 92.6254 51.3172 92.4211 47.1272 91.8268C46.5561 89.924 46.3579 87.9288 46.5436 85.9508C47.1487 85.784 47.6751 85.408 48.0291 84.8897C49.2627 86.3355 51.0798 84.2663 52.0083 83.3776L54.3295 83.749C52.7436 84.89 51.5929 86.5365 51.0666 88.4179C51.0712 88.4762 51.0949 88.5312 51.1341 88.5746C51.1732 88.618 51.2255 88.6472 51.283 88.6578C51.3404 88.6684 51.3997 88.6597 51.4517 88.6331C51.5037 88.6065 51.5455 88.5635 51.5706 88.5108C51.951 87.4792 52.5411 86.5376 53.3036 85.7455C54.0661 84.9533 54.9845 84.3277 56.0008 83.9082C57.6986 83.4174 57.3272 82.741 56.0008 83.0062C55.5896 83.0858 51.4247 82.8736 51.3451 82.1971C51.2655 81.5207 58.6403 78.072 61.0146 79.5841ZM54.7009 75.7906V77.3823C54.7009 77.6343 55.1519 77.6476 55.2049 77.3823C56.2528 71.5859 53.4674 69.0392 53.4674 65.5508C53.4674 64.9009 53.9051 65.3651 54.2101 65.5508C58.5607 69.0392 58.9321 75.4458 59.025 78.3638C56.422 78.6054 53.9176 79.4797 51.7298 80.9105C50.6156 81.5207 49.7004 82.5287 51.239 83.1919C50.6023 83.6562 48.9841 85.4866 48.4005 84.1071C47.8169 82.7277 49.9524 75.8967 54.6611 75.7641L54.7009 75.7906ZM45.3498 84.3989C45.0978 81.4013 47.2863 77.3027 50.4034 76.9313C48.626 78.6689 47.0343 82.6614 47.6312 84.4122C47.0874 85.1417 45.4161 86.1233 45.31 84.3724L45.3498 84.3989ZM45.5222 92.2114C50.8941 93.7766 57.1945 93.246 62.7654 93.0736L63.8398 100.581C56.6948 101.16 49.5033 100.564 42.5511 98.8169C43.5061 96.5886 44.5142 94.4133 45.4824 92.1849L45.5222 92.2114ZM236.524 222.729C230.422 215.686 223.883 226.708 229.454 229.945C224.719 232.69 219.188 233.539 213.789 233.685C194.265 234.216 173.745 229.348 156.117 221.058C157.019 210.447 154.539 202.197 150.944 196.772C165.84 192.965 177.313 192.01 191.665 191.161C191.904 191.161 191.957 190.736 191.665 190.723C188.884 190.593 186.097 190.641 183.322 190.869C183.07 189.689 174.408 180.895 166.079 163.015C165.946 162.736 165.508 162.869 165.628 163.161C169.828 172.633 175.145 181.57 181.465 189.781C181.743 190.153 182.035 190.524 182.354 190.882C167.751 191.706 153.322 194.462 139.445 199.079C138.808 199.305 139.246 199.955 139.617 200.247C137.633 200.349 135.666 200.674 133.754 201.215C132.879 200.724 129.974 200.525 127.825 198.443C125.173 195.79 124.96 201.998 128.343 203.457C119.297 208.404 117.254 215.805 119.88 215.527C120.517 215.461 121.021 214.837 121.472 214.399C122.254 213.67 123.064 212.954 123.833 212.184C120.053 220.143 124.005 222.583 125.08 218.816C125.8 216.294 127.172 214.006 129.059 212.184C126.804 216.588 128.794 222.039 130.73 220.567C131.818 219.718 131.42 215.262 135.2 213.153C135.625 212.927 136.076 212.781 136.527 212.569C137.734 214.081 141.686 216.137 146.156 216.124C146.289 216.429 146.302 216.575 146.488 216.694C160.769 225.069 176.532 230.613 192.912 233.022C192.878 237.036 192.434 241.036 191.585 244.96C187.805 247.506 179.064 249.642 174.462 250.676C156.755 254.618 138.425 254.853 120.623 251.366C116.524 250.557 101.457 247.201 99.0557 244.416C94.5592 239.203 92.5431 234.508 89.1608 228.499C82.4094 216.495 77.6609 200.844 77.4752 187.062C77.2029 176.333 80.0008 165.749 85.5397 156.555C88.1413 152.691 90.9576 148.975 93.9756 145.427C94.1878 145.188 93.8164 144.856 93.6175 145.095C88.5374 150.865 84.147 156.091 81.0963 163.227C77.3526 172.221 75.8416 181.987 76.6926 191.691C60.232 193.774 41.6226 190.644 31.4359 176.226C35.7997 174.448 34.407 164.938 26.9924 166.53C23.6101 153.266 28.929 133.754 33.253 121.432C35.9058 113.858 39.0361 106.484 42.3521 99.1618C45.7345 100.846 56.8497 102.053 64.0122 101.364C65.938 117.099 66.3378 132.983 65.206 148.796C65.206 149.087 65.6437 149.087 65.6968 148.796C66.2714 144.909 66.5728 140.986 66.5987 137.057C72.3155 131.632 82.1839 126.446 89.3199 123.09C88.3251 125.677 90.9249 128.727 93.6307 128.714C99.2016 128.714 99.2547 121.114 95.3683 120.424C102.409 117.516 109.669 115.174 117.081 113.421C114.429 116.989 111.776 121.525 113.699 126.035C115.954 131.446 123.939 131.99 128.568 124.469C122.469 137.277 118.529 151.004 116.909 165.097C116.909 165.415 117.347 165.522 117.4 165.203C119.429 150.669 123.74 136.545 130.173 123.355C130.229 126.298 131.203 129.15 132.958 131.513C139.736 140.426 157.497 133.277 153.319 112.479C163.223 114.239 172.749 117.694 181.478 122.692C180.526 123.53 179.914 124.688 179.757 125.946C179.601 127.205 179.911 128.478 180.629 129.523C180.995 130.082 181.468 130.563 182.021 130.939C182.573 131.315 183.194 131.578 183.848 131.714C184.502 131.849 185.177 131.854 185.833 131.729C186.489 131.603 187.114 131.35 187.673 130.982C188.194 130.596 188.616 130.092 188.904 129.51C189.192 128.929 189.338 128.288 189.33 127.64C203.788 137.72 215.447 151.356 224.732 166.225C231.855 177.632 238.102 191.121 239.137 204.849C239.588 210.898 239.23 217.251 236.524 222.703V222.729ZM131.194 209.571L129.961 210.898C124.111 214.877 124.655 221.018 123.329 219.758C121.697 218.166 124.43 211.19 126.884 209.014C128.979 207.157 126.552 207.423 124.642 210.646L124.536 210.752C123.052 211.955 121.63 213.235 120.278 214.585C117.307 217.318 121.233 202.369 140.293 200.95C144.273 204.597 145.307 210.128 146.01 215.315C140.599 215.315 136.871 211.932 136.381 211.985C133.423 212.33 131.513 215.673 130.783 218.246C130.69 218.564 130.478 219.97 130.16 220.076C129.165 220.421 127.268 214.081 131.486 209.983C131.805 209.664 131.446 209.319 131.194 209.571ZM128.993 203.098C126.618 202.382 125.929 198.35 126.804 198.536C128.418 199.971 130.336 201.023 132.415 201.613C131.234 201.993 130.089 202.477 128.993 203.059V203.098ZM139.975 199.889C139.604 199.889 147.934 197.514 150.308 196.904C155.401 206.017 155.786 212.821 155.176 220.633L147.111 216.455C146.236 208.895 143.875 202.369 139.975 199.849V199.889Z" fill="#3C0F34"/>
<path d="M58.282 175.509C59.9267 178.786 67.5668 177.658 67.3148 172.605C66.9699 165.362 54.4487 167.909 58.282 175.509ZM52.2336 114.349C52.4326 107.306 43.9436 108.393 43.0549 115.331C42.5907 118.885 52.0214 121.936 52.2336 114.349ZM51.0001 133.29C49.2227 135.001 49.3553 140.718 54.3293 140.585C62.9111 140.373 56.5975 127.918 51.0001 133.29ZM95.3814 208.245C98.0342 211.946 104.255 209.253 103.207 204.438C101.722 197.634 91.0043 202.196 95.3814 208.245ZM101.231 150.374C95.8324 150.374 95.1161 157.815 99.0157 159.539C108.261 163.625 108.672 150.374 101.231 150.374ZM135.73 239.8C140.93 243.355 147.668 234.773 141.832 231.391C135.691 227.796 130.266 236.099 135.73 239.8Z" fill="#3C0F34"/>
</svg>
