<svg width="300" height="300" viewBox="0 0 300 300" fill="none" xmlns="http://www.w3.org/2000/svg">
<path d="M115.723 145.012C113.416 148.211 109.146 147.082 108.64 142.612C105.423 143.406 102.591 145.317 100.651 148.004C100.092 148.85 100.146 149.389 99.8187 149.521C99.4677 149.561 99.1122 149.539 98.7688 149.456C93.3688 149.141 89.4822 153.289 90.3687 157.981C88.9308 158.348 87.661 159.195 86.7688 160.381C85.9608 161.398 85.3503 162.557 84.9688 163.799C85.3708 163.778 98.2063 163.124 100.578 162.977C100.546 161.727 100.531 160.477 100.533 159.227C100.375 157.102 101.316 154.84 103.477 154.837C103.964 154.871 104.436 155.015 104.86 155.258C105.283 155.5 105.646 155.835 105.922 156.238C106.527 157.155 106.968 158.17 107.227 159.238L108.288 162.437C109.8 162.319 115.618 161.816 119.109 161.431C119.205 155.775 118.049 150.168 115.723 145.012ZM106.351 153.08C105.901 152.574 105.617 151.941 105.539 151.267C105.461 150.594 105.592 149.913 105.915 149.317C106.245 148.784 106.711 148.348 107.264 148.053C107.817 147.758 108.438 147.614 109.065 147.637C109.111 147.659 109.164 147.666 109.215 147.656C109.955 147.798 110.627 148.181 111.127 148.745C111.627 149.309 111.927 150.023 111.979 150.775C111.981 151.428 111.788 152.066 111.425 152.609C111.062 153.152 110.546 153.574 109.941 153.822C109.337 154.07 108.673 154.131 108.033 153.999C107.394 153.867 106.808 153.547 106.351 153.08Z" fill="#B881FF"/>
<path d="M109.217 147.656C109.166 147.666 109.114 147.659 109.067 147.636C108.441 147.614 107.819 147.757 107.266 148.052C106.713 148.347 106.247 148.783 105.917 149.316C105.673 149.753 105.534 150.241 105.511 150.741C105.487 151.241 105.579 151.739 105.78 152.198C105.981 152.656 106.285 153.062 106.669 153.383C107.053 153.704 107.506 153.932 107.993 154.049C108.479 154.165 108.987 154.168 109.474 154.056C109.962 153.944 110.417 153.721 110.805 153.404C111.192 153.087 111.5 152.685 111.706 152.228C111.912 151.772 112.009 151.274 111.991 150.774C111.938 150.021 111.637 149.307 111.135 148.742C110.633 148.178 109.959 147.796 109.217 147.656Z" fill="#FFDB7F"/>
<path d="M46.0859 244.682L52.0964 228.401C52.3499 227.715 51.2534 227.42 51.0014 228.101L44.9909 244.38C44.7374 245.067 45.8339 245.363 46.0859 244.682Z" fill="#CFAAFF"/>
<path d="M94.7477 173.789C94.485 173.409 94.3064 172.978 94.2237 172.524C94.141 172.069 94.1562 171.603 94.2682 171.155C94.3802 170.707 94.5865 170.288 94.8732 169.926C95.16 169.564 95.5207 169.268 95.9312 169.056C96.4306 168.919 96.9546 168.895 97.4643 168.987C97.9741 169.08 98.4564 169.286 98.8757 169.59C99.5627 169.943 100.272 170.285 100.964 170.649C100.703 166.922 100.664 164.663 100.595 162.974C98.2232 163.124 83.7167 163.857 83.0822 163.896C81.0902 164.018 79.1132 164.3 77.1317 164.528C72.6562 164.999 68.2624 166.059 64.0637 167.678C56.1137 170.841 51.3287 177.797 51.0977 183.323C51.1697 182.616 52.2812 182.616 52.2272 183.339C51.6797 190.779 56.7002 196.839 62.5277 201.536C66.2312 204.525 70.1702 207.257 74.1512 209.865L88.4387 186.824C84.8387 185.081 81.1887 183.44 77.4887 181.902C76.8227 181.626 77.1152 180.53 77.7887 180.809C84.274 183.484 90.6174 186.491 96.7937 189.818C97.8002 186.893 100.256 180.921 100.271 179.318C99.4712 177.137 96.1217 176.178 94.7477 173.789Z" fill="#FFC431"/>
<path d="M171.15 178.758L150.694 153.824C150.591 153.715 150.534 153.572 150.534 153.422C150.534 153.273 150.591 153.13 150.694 153.021C144.016 159.497 117.567 161.709 108.301 162.437L110.568 169.283C112.467 167.814 114.358 166.331 116.391 165.05C118.909 163.464 122.101 161.543 124.617 163.082C125.051 163.408 125.396 163.837 125.622 164.331C125.848 164.825 125.946 165.368 125.908 165.909C125.773 168.329 123.951 170.189 122.257 171.698C119.386 174.26 119.182 173.048 125.547 172.037C127.797 171.68 131.512 171.137 132.267 174.105C132.987 178.104 126.406 179.505 121.272 181.676C119.436 191.028 116.208 208.833 112.143 217.316C110.343 221.085 108.16 224.198 104.026 223.95C99.7695 223.603 95.6035 222.531 91.7081 220.781C82.8221 216.834 74.4119 211.894 66.6386 206.054C60.5966 201.672 54.9386 197.354 52.2251 190.478C51.515 188.673 51.1202 186.76 51.0581 184.821C51.0251 187.128 51.0911 189.446 51.0911 191.748C51.0911 219.077 51.0506 225.062 51.1271 226.43C51.1616 227.076 51.3551 227.067 51.7691 227.111C54.1481 227.361 67.5311 227.585 141.042 227.061C141.192 227.06 141.335 227 141.441 226.894C141.548 226.788 141.608 226.644 141.61 226.494C141.679 216.825 141.964 192.567 141.967 190.106C152.776 188.393 163.206 185.505 171.838 178.847C171.854 178.831 171.869 178.815 171.883 178.797C171.778 178.882 171.644 178.926 171.509 178.918C171.373 178.911 171.245 178.854 171.15 178.758Z" fill="#FFC431"/>
<path d="M149.086 244.818C149.412 245.472 150.391 244.898 150.066 244.245L141.957 227.964C141.631 227.31 140.652 227.885 140.977 228.537L149.086 244.818Z" fill="#CFAAFF"/>
<path d="M96.9939 233.189C96.9357 233.095 96.8515 233.02 96.7517 232.972C96.6518 232.925 96.5404 232.907 96.4309 232.922C96.3213 232.936 96.2182 232.982 96.134 233.054C96.0498 233.125 95.9879 233.219 95.9559 233.325C94.9149 236.567 92.3859 243.923 92.2314 244.38C91.9989 245.075 93.0939 245.372 93.3264 244.68C94.4139 241.454 96.6264 234.861 96.6264 234.861C98.0274 237.344 101.749 243.993 102.241 244.817C102.279 244.881 102.328 244.937 102.388 244.982C102.447 245.027 102.515 245.06 102.587 245.079C102.659 245.098 102.734 245.102 102.808 245.092C102.882 245.082 102.953 245.057 103.017 245.02C103.081 244.982 103.138 244.932 103.183 244.873C103.228 244.813 103.261 244.746 103.28 244.674C103.298 244.602 103.303 244.527 103.293 244.453C103.283 244.379 103.258 244.308 103.22 244.244C101.168 240.546 99.0924 236.861 96.9939 233.189Z" fill="#CFAAFF"/>
<path d="M186.833 143.946C185.91 135.605 182.518 127.731 177.091 121.33C171.811 114.579 164.259 109.975 155.839 108.373C143.689 105.748 130.433 108.921 118.403 112.834C118.205 112.899 114.923 113.967 114.665 114.106C111.037 112.551 107.293 111.277 103.469 110.295C102.785 110.132 102.074 110.118 101.383 110.254C100.693 110.39 100.04 110.672 99.4688 111.082C98.8951 111.665 98.5221 112.416 98.4039 113.225C98.2858 114.034 98.4287 114.86 98.8118 115.582C99.7786 117.199 101.256 118.447 103.012 119.13C105.155 120.14 107.38 120.968 109.663 121.605C106.55 122.907 103.545 124.452 100.675 126.226C99.6857 126.778 98.7855 127.476 98.0048 128.296C95.5868 130.944 96.8258 134.805 100.136 134.668C103.538 134.506 106.875 133.685 109.963 132.249C109.118 135.166 108.044 140.77 108.851 143.731C109.673 146.748 112.87 147.781 114.884 145.896C117.95 143.355 116.47 137.346 121.292 131.614C122.717 135.376 122.827 139.026 125.743 140.406C126.478 140.824 127.341 140.96 128.17 140.787C128.998 140.615 129.735 140.146 130.243 139.468C131.452 137.818 130.916 135.661 130.543 133.81C130.191 132.051 129.841 130.291 129.493 128.53C134.182 128.234 138.881 128.931 143.282 130.576C145.722 131.474 147.941 132.886 149.788 134.716C151.385 136.407 152.571 138.443 153.254 140.665C153.938 142.888 154.101 145.238 153.73 147.534C153.295 149.626 152.236 151.538 150.694 153.016C150.59 153.124 150.532 153.268 150.532 153.418C150.532 153.567 150.59 153.711 150.694 153.819C150.694 153.819 170.314 177.733 171.149 178.753C171.257 178.857 171.401 178.914 171.551 178.914C171.7 178.914 171.844 178.857 171.952 178.753C177.173 174.683 181.277 169.355 183.879 163.268C186.482 157.181 187.498 150.533 186.833 143.946ZM118.117 128.277L115.244 129.388C114.562 129.652 114.269 128.554 114.944 128.293L117.817 127.182C118.499 126.918 118.79 128.016 118.117 128.277ZM118.349 121.377L114.979 121.776C114.253 121.861 114.262 120.726 114.979 120.64L118.349 120.24C119.075 120.15 119.066 121.29 118.349 121.375V121.377ZM121.901 130.992C121.793 131.088 121.652 131.139 121.507 131.134C121.362 131.13 121.225 131.071 121.122 130.968C121.02 130.866 120.961 130.728 120.956 130.583C120.952 130.439 121.003 130.298 121.099 130.189C123.154 128.058 125.855 127.639 128.813 127.432C129.542 127.383 129.535 128.505 128.813 128.568C125.99 128.811 123.932 129.031 121.901 130.99V130.992ZM180.95 149.892V143.946C180.95 143.795 181.01 143.651 181.116 143.545C181.223 143.439 181.367 143.379 181.517 143.379C181.668 143.379 181.812 143.439 181.918 143.545C182.025 143.651 182.084 143.795 182.084 143.946C182.119 145.927 182.123 147.909 182.084 149.889C182.082 149.964 182.065 150.037 182.034 150.105C182.004 150.173 181.96 150.235 181.905 150.286C181.85 150.337 181.786 150.376 181.716 150.402C181.646 150.428 181.571 150.44 181.496 150.436C181.353 150.43 181.217 150.371 181.116 150.269C181.015 150.168 180.956 150.032 180.95 149.889V149.892Z" fill="#FFDB7F"/>
<path d="M194.765 157.008C194.734 157.15 194.759 157.299 194.834 157.423C194.91 157.548 195.03 157.638 195.17 157.677C195.311 157.715 195.46 157.698 195.589 157.63C195.717 157.561 195.814 157.446 195.86 157.308C198.013 149.48 197.531 141.162 194.487 133.635C194.217 132.964 193.121 133.257 193.392 133.935C195.669 139.615 196.487 145.775 195.77 151.852C195.549 153.591 195.214 155.314 194.765 157.008Z" fill="#3C0F34"/>
<path d="M200.3 156.696C200.129 157.406 201.224 157.709 201.395 156.996C203.304 149.087 202.694 140.779 199.651 133.233C199.381 132.564 198.283 132.857 198.557 133.533C201.542 140.883 202.152 148.983 200.3 156.696Z" fill="#3C0F34"/>
<path d="M50.1607 92.4197C49.6117 91.9427 48.8107 92.7422 49.3582 93.2222L67.2427 108.782C67.7917 109.259 68.5927 108.459 68.0452 107.979L50.1607 92.4197Z" fill="#3C0F34"/>
<path d="M182.088 149.889C182.123 147.909 182.123 145.928 182.088 143.946C182.088 143.796 182.028 143.652 181.922 143.545C181.816 143.439 181.671 143.379 181.521 143.379C181.371 143.379 181.226 143.439 181.12 143.545C181.014 143.652 180.954 143.796 180.954 143.946V149.889C180.96 150.04 181.025 150.182 181.136 150.285C181.246 150.387 181.393 150.442 181.544 150.437C181.687 150.432 181.824 150.373 181.925 150.271C182.026 150.17 182.085 150.033 182.088 149.889Z" fill="#FF4848"/>
<path d="M41.4885 112.658C41.343 112.665 41.2059 112.728 41.1055 112.834C41.0052 112.94 40.9492 113.08 40.9492 113.225C40.9492 113.371 41.0052 113.511 41.1055 113.617C41.2059 113.723 41.343 113.786 41.4885 113.793H67.1145C67.2601 113.786 67.3972 113.723 67.4975 113.617C67.5979 113.511 67.6538 113.371 67.6538 113.225C67.6538 113.08 67.5979 112.94 67.4975 112.834C67.3972 112.728 67.2601 112.665 67.1145 112.658H41.4885Z" fill="#3C0F34"/>
<path d="M67.3992 119.688C67.9992 119.283 67.4352 118.301 66.8262 118.709L49.4727 130.361C48.8727 130.766 49.4367 131.75 50.0457 131.34L67.3992 119.688Z" fill="#3C0F34"/>
<path d="M52.2287 190.478C54.9377 197.346 60.5837 201.663 66.6422 206.054C69.0662 207.81 71.5322 209.507 74.0402 211.145C73.9123 211.067 73.8196 210.942 73.7816 210.798C73.7435 210.653 73.7631 210.499 73.8362 210.368L74.1512 209.859C70.1702 207.251 66.2312 204.519 62.5277 201.53C56.7092 196.833 51.6767 190.8 52.2272 183.333C52.2812 182.61 51.1772 182.61 51.0977 183.317C51.0574 183.816 51.0454 184.317 51.0617 184.817C51.1219 186.757 51.5167 188.672 52.2287 190.478Z" fill="#FF4848"/>
<path d="M77.4909 181.896C81.1909 183.428 84.8409 185.069 88.4409 186.818L88.7679 186.29C88.8463 186.163 88.9707 186.071 89.1151 186.033C89.2595 185.995 89.4129 186.015 89.5434 186.087C85.6824 184.204 81.7659 182.443 77.7939 180.803C77.1174 180.524 76.8234 181.622 77.4909 181.896Z" fill="#FF4848"/>
<path d="M117.816 127.182L114.943 128.294C114.27 128.555 114.562 129.653 115.243 129.389L118.116 128.277C118.791 128.016 118.5 126.918 117.816 127.182Z" fill="#FF4848"/>
<path d="M114.981 121.775L118.351 121.376C119.068 121.29 119.077 120.155 118.351 120.24L114.981 120.639C114.264 120.725 114.255 121.86 114.981 121.775Z" fill="#FF4848"/>
<path d="M121.1 130.188C121.004 130.296 120.953 130.437 120.957 130.582C120.962 130.727 121.021 130.864 121.124 130.967C121.226 131.069 121.364 131.129 121.508 131.133C121.653 131.138 121.794 131.087 121.902 130.991C123.903 129.062 125.853 128.823 128.814 128.567C129.536 128.504 129.543 127.382 128.814 127.431C125.85 127.632 123.15 128.057 121.1 130.188Z" fill="#FF4848"/>
<path d="M132.271 174.105C131.521 171.138 127.799 171.68 125.551 172.037C119.215 173.045 119.369 174.278 122.261 171.698C123.955 170.189 125.777 168.329 125.912 165.909C125.95 165.368 125.852 164.825 125.626 164.331C125.401 163.837 125.055 163.408 124.621 163.082C123.802 162.591 122.836 162.405 121.894 162.558C118.444 163.08 113.356 167.13 110.572 169.283L107.245 159.233C106.986 158.165 106.544 157.15 105.94 156.233C105.664 155.831 105.301 155.496 104.877 155.253C104.454 155.011 103.981 154.867 103.495 154.832C101.329 154.832 100.393 157.106 100.55 159.222C100.54 162.419 100.693 166.761 100.964 170.64C100.273 170.276 99.5633 169.934 98.8763 169.581C98.4571 169.277 97.9747 169.071 97.4649 168.978C96.9552 168.886 96.4312 168.91 95.9318 169.047C95.5213 169.259 95.1606 169.555 94.8739 169.917C94.5871 170.279 94.3808 170.698 94.2688 171.146C94.1568 171.594 94.1416 172.06 94.2243 172.514C94.307 172.969 94.4856 173.4 94.7483 173.78C96.0893 176.111 99.4778 177.143 100.274 179.309C100.259 180.9 97.7963 186.9 96.7973 189.809C94.3973 188.522 91.9538 187.338 89.5418 186.084C89.411 186.013 89.258 185.994 89.1139 186.032C88.9698 186.069 88.8455 186.161 88.7663 186.287L73.8368 210.365C73.7648 210.496 73.7458 210.649 73.7838 210.794C73.8217 210.939 73.9137 211.063 74.0408 211.142C79.6628 214.823 85.5724 218.046 91.7123 220.778C95.6076 222.529 99.7736 223.601 104.03 223.947C108.158 224.195 110.33 221.097 112.147 217.313C114.133 212.841 115.654 208.178 116.689 203.396C118.385 196.506 119.807 189.165 121.276 181.673C126.466 179.484 132.988 178.091 132.271 174.105ZM113.386 179.537C112.786 179.961 112.226 178.98 112.813 178.556C113.424 178.11 113.922 177.528 114.268 176.856C114.605 176.207 115.589 176.784 115.247 177.429C114.799 178.267 114.162 178.988 113.386 179.537ZM107.086 176.505C107.31 175.635 107.549 174.769 107.804 173.907C107.846 173.764 107.942 173.643 108.072 173.57C108.202 173.497 108.355 173.478 108.499 173.518C108.643 173.557 108.765 173.651 108.84 173.781C108.915 173.91 108.935 174.063 108.898 174.207C108.674 175.077 108.434 175.943 108.179 176.805C108.138 176.949 108.042 177.07 107.912 177.143C107.782 177.216 107.628 177.234 107.484 177.195C107.341 177.156 107.218 177.061 107.144 176.932C107.069 176.803 107.048 176.65 107.086 176.505ZM106.159 219.335C104.822 219.741 103.48 220.125 102.14 220.52C101.998 220.551 101.85 220.526 101.725 220.45C101.601 220.375 101.51 220.255 101.471 220.114C101.433 219.974 101.45 219.824 101.518 219.696C101.587 219.568 101.702 219.471 101.84 219.425C103.177 219.018 104.519 218.636 105.859 218.24C106.001 218.209 106.15 218.234 106.274 218.309C106.398 218.385 106.489 218.505 106.528 218.645C106.566 218.785 106.549 218.935 106.481 219.063C106.412 219.192 106.297 219.289 106.159 219.335Z" fill="#FFDB7F"/>
<path d="M291.626 96.4083C286.013 66.4623 253.629 47.5338 219.969 57.6033C199.269 63.7938 182.208 79.8633 177.581 101.636C177.006 104.337 177.002 107.129 177.567 109.832C177.601 109.951 177.672 110.057 177.77 110.132C177.869 110.207 177.989 110.248 178.113 110.249H209.904C210.028 110.247 210.148 110.206 210.247 110.131C210.346 110.056 210.418 109.951 210.452 109.832C214.998 90.0993 236.07 83.8008 250.965 92.3463C256.686 95.6283 260.313 102.317 257.894 108.723C255.69 114.564 248.828 119.804 243.614 123.905C237.249 128.849 231.689 134.751 227.133 141.399C220.91 150.606 218.555 160.805 219.158 168.215C219.162 168.364 219.223 168.507 219.328 168.613C219.434 168.718 219.577 168.779 219.726 168.783H252.45C252.601 168.782 252.745 168.722 252.851 168.616C252.957 168.509 253.017 168.365 253.017 168.215C252.985 167.091 253.062 165.967 253.247 164.858C254.069 161.588 255.78 158.61 258.189 156.252C266.811 147.3 282.216 137.7 288.719 122.7C292.288 114.422 293.301 105.266 291.626 96.4083Z" fill="#CFAAFF"/>
<path d="M268.187 177.666C268.184 177.516 268.124 177.373 268.018 177.267C267.911 177.161 267.768 177.101 267.618 177.099H201.891C201.741 177.101 201.598 177.161 201.492 177.267C201.387 177.373 201.326 177.516 201.324 177.666V243.393C201.325 243.543 201.386 243.687 201.492 243.793C201.598 243.899 201.741 243.959 201.891 243.96C272.312 244.463 267.707 244.052 268.019 243.792C268.125 243.686 268.185 243.543 268.187 243.393C268.164 240.554 268.211 181.086 268.187 177.666Z" fill="#CFAAFF"/>
<path d="M7.62012 189.994C7.60512 190.038 7.51962 189.901 7.42512 190.98C7.18812 193.698 6.90012 204.123 7.59462 244.53C7.60211 244.675 7.66519 244.813 7.77084 244.913C7.87649 245.013 8.01665 245.069 8.16237 245.069C8.3081 245.069 8.44825 245.013 8.55391 244.913C8.65956 244.813 8.72264 244.675 8.73012 244.53V191.257C7.75512 190.278 7.66062 190.245 7.62012 189.994Z" fill="#3C0F34"/>
<path d="M21.6384 177.336C21.6368 177.261 21.6203 177.186 21.5897 177.117C21.5591 177.048 21.5152 176.986 21.4603 176.934C21.4055 176.882 21.3408 176.841 21.2702 176.815C21.1996 176.788 21.1243 176.776 21.0489 176.778C20.6574 176.789 21.3369 176.288 7.76035 189.482C7.66127 189.592 7.60645 189.735 7.60645 189.883C7.60645 190.031 7.66127 190.174 7.76035 190.284C20.7864 203.379 20.5914 203.223 20.7444 203.325C20.8231 203.393 20.9191 203.438 21.0217 203.454C21.1243 203.47 21.2294 203.458 21.3254 203.418C21.4213 203.378 21.5043 203.313 21.5652 203.228C21.626 203.144 21.6622 203.045 21.6699 202.941C21.6909 202.844 21.6399 177.432 21.6384 177.336Z" fill="#FF4848"/>
<path d="M56.0506 149.627C56.1774 149.548 56.2691 149.424 56.3071 149.279C56.345 149.135 56.3262 148.981 56.2546 148.85C56.1785 148.72 56.054 148.625 55.9083 148.587C55.7626 148.549 55.6077 148.57 55.4776 148.646C44.3376 157.228 33.5191 165.966 23.0221 174.861C22.4626 175.334 23.2696 176.133 23.8246 175.664C34.3716 166.732 45.1136 158.053 56.0506 149.627Z" fill="#FFF0B3"/>
<path d="M41.8141 224.51C42.3076 225.05 43.1086 224.246 42.6166 223.707C34.9861 215.33 26.6956 206.856 24.6856 204.912C24.5772 204.816 24.4362 204.765 24.2915 204.77C24.1467 204.774 24.0091 204.833 23.9067 204.936C23.8044 205.038 23.7449 205.176 23.7405 205.321C23.7361 205.465 23.7871 205.606 23.8831 205.715C30.9451 213.021 34.2736 216.23 41.8141 224.51Z" fill="#FFF0B3"/>
<path d="M121.902 97.0025C132.454 88.0665 143.196 79.3875 154.128 70.9655C154.255 70.887 154.347 70.7625 154.385 70.6178C154.423 70.4732 154.404 70.3194 154.332 70.1885C154.294 70.1242 154.244 70.0679 154.185 70.0228C154.126 69.9778 154.058 69.9448 153.986 69.9259C153.914 69.9069 153.839 69.9024 153.765 69.9124C153.692 69.9225 153.621 69.947 153.556 69.9845C142.392 78.5845 131.573 87.323 121.099 96.2C120.541 96.6725 121.35 97.472 121.902 97.0025Z" fill="#FFF0B3"/>
<path d="M107.081 176.505C107.043 176.65 107.064 176.803 107.139 176.932C107.213 177.061 107.336 177.156 107.479 177.195C107.623 177.234 107.777 177.216 107.907 177.143C108.037 177.07 108.133 176.949 108.174 176.805C108.429 175.944 108.669 175.078 108.893 174.207C108.93 174.063 108.91 173.91 108.835 173.781C108.76 173.651 108.638 173.557 108.494 173.518C108.35 173.478 108.197 173.497 108.067 173.57C107.937 173.643 107.841 173.764 107.799 173.907C107.544 174.769 107.305 175.635 107.081 176.505Z" fill="#FF4848"/>
<path d="M113.387 179.537C114.163 178.988 114.8 178.267 115.248 177.429C115.59 176.784 114.606 176.207 114.269 176.856C113.923 177.529 113.425 178.111 112.814 178.556C112.227 178.98 112.791 179.961 113.387 179.537Z" fill="#FF4848"/>
<path d="M102.134 220.52C103.474 220.125 104.816 219.741 106.153 219.335C106.291 219.289 106.406 219.192 106.475 219.063C106.543 218.935 106.56 218.785 106.522 218.645C106.483 218.505 106.392 218.385 106.268 218.309C106.144 218.234 105.995 218.209 105.853 218.24C104.513 218.636 103.171 219.018 101.834 219.425C101.696 219.471 101.581 219.568 101.512 219.696C101.444 219.824 101.427 219.974 101.466 220.114C101.504 220.255 101.595 220.375 101.719 220.45C101.844 220.526 101.992 220.551 102.134 220.52Z" fill="#FF4848"/>
<path d="M112.076 150.774C112.052 150.044 111.79 149.343 111.328 148.777C110.867 148.211 110.233 147.812 109.523 147.642C108.813 147.471 108.066 147.539 107.398 147.834C106.73 148.129 106.178 148.635 105.825 149.274C105.575 149.724 105.432 150.226 105.407 150.74C105.383 151.255 105.478 151.768 105.684 152.24C105.891 152.711 106.205 153.129 106.6 153.459C106.995 153.79 107.461 154.024 107.962 154.144C108.463 154.264 108.985 154.267 109.487 154.152C109.989 154.037 110.457 153.807 110.856 153.481C111.254 153.154 111.572 152.74 111.783 152.271C111.995 151.801 112.095 151.289 112.076 150.774ZM106.737 150.512V150.495C106.876 150.011 107.173 149.587 107.581 149.292C107.989 148.997 108.484 148.847 108.987 148.866C109.519 148.967 109.994 149.262 110.32 149.693C110.646 150.125 110.8 150.663 110.751 151.202C110.642 151.713 110.351 152.167 109.932 152.479C109.513 152.791 108.994 152.94 108.473 152.898C108.202 152.855 107.943 152.76 107.709 152.617C107.475 152.474 107.272 152.286 107.111 152.064C106.95 151.843 106.834 151.592 106.77 151.325C106.706 151.059 106.695 150.782 106.737 150.512Z" fill="#3C0F34"/>
<path d="M46.1769 244.707L52.1889 228.426C52.4889 227.625 51.2049 227.28 50.9124 228.075L44.9004 244.35C44.6049 245.156 45.8844 245.501 46.1769 244.707Z" fill="#3C0F34"/>
<path d="M140.894 228.585L149.004 244.865C149.384 245.628 150.525 244.958 150.147 244.197L142.038 227.916C141.659 227.154 140.516 227.823 140.894 228.585Z" fill="#3C0F34"/>
<path d="M102.166 244.865C102.21 244.94 102.268 245.005 102.337 245.058C102.406 245.111 102.485 245.149 102.569 245.171C102.653 245.193 102.741 245.198 102.827 245.187C102.913 245.175 102.996 245.146 103.071 245.102C103.146 245.059 103.212 245 103.265 244.931C103.317 244.862 103.356 244.783 103.378 244.699C103.4 244.615 103.405 244.527 103.393 244.441C103.381 244.355 103.353 244.272 103.309 244.197C99.073 236.519 97.6945 234.069 97.2775 233.367C96.877 232.694 96.1615 232.587 95.863 233.339C95.5645 234.09 94.7965 236.471 92.1415 244.355C91.8685 245.165 93.1465 245.511 93.418 244.707L96.6565 235.094C98.0215 237.516 101.676 244.05 102.166 244.865Z" fill="#3C0F34"/>
<path d="M183.987 132.45C180.681 124.6 175.168 117.878 168.117 113.1C151.723 103.322 133.533 107.567 115.426 113.726C115.162 113.791 114.905 113.884 114.66 114.002C114.489 113.933 113.13 113.454 111.228 112.68C108.729 111.632 106.143 110.804 103.501 110.204C102.801 110.032 102.072 110.016 101.365 110.157C100.658 110.297 99.9905 110.591 99.4091 111.017C98.8199 111.615 98.4372 112.385 98.3166 113.216C98.1959 114.047 98.3438 114.894 98.7386 115.635C99.7194 117.262 101.209 118.521 102.978 119.216C105.044 120.192 107.188 120.995 109.387 121.616C106.359 122.904 103.433 124.42 100.635 126.15C99.6399 126.705 98.7351 127.407 97.9511 128.234C95.4626 130.958 96.7676 134.904 100.149 134.768C103.494 134.617 106.78 133.823 109.825 132.429C108.853 135.71 108.421 139.127 108.544 142.547C105.301 143.51 101.628 145.623 100.209 148.632C100.108 148.848 100.008 149.337 99.7946 149.439C99.5816 149.541 99.0161 149.375 98.7821 149.361C93.2681 149.042 89.4641 153.275 90.2666 157.911C88.8514 158.299 87.6035 159.143 86.7161 160.311C85.912 161.323 85.3018 162.474 84.9161 163.707C82.3103 163.809 79.7119 164.052 77.1326 164.436C72.6389 164.889 68.2272 165.949 64.0181 167.586C55.9631 170.861 51.2351 177.765 51.0041 183.312C50.9561 183.485 51.2171 195.302 51.0041 226.49C51.0041 227.229 51.8426 227.207 51.9956 227.22C55.0781 227.471 69.9821 227.652 141.045 227.151C141.219 227.149 141.387 227.079 141.51 226.955C141.634 226.832 141.704 226.664 141.706 226.49C141.706 216.821 142.059 192.617 142.063 190.181C152.895 188.459 163.444 185.52 172.021 178.82C178.846 173.489 183.718 166.053 185.882 157.668C188.046 149.283 187.38 140.418 183.987 132.45ZM91.1006 159.15C91.1884 159.15 91.2752 159.132 91.356 159.098C91.4369 159.064 91.5102 159.014 91.5717 158.951C91.6332 158.889 91.6817 158.814 91.7144 158.733C91.7471 158.652 91.7633 158.564 91.7621 158.477C91.49 157.609 91.4216 156.689 91.5624 155.791C91.7031 154.892 92.0491 154.038 92.5736 153.294C93.2987 152.385 94.2386 151.67 95.3088 151.214C96.379 150.758 97.5458 150.575 98.7041 150.683C99.1822 150.767 99.6704 150.777 100.152 150.713C101.085 150.465 101.229 149.39 101.685 148.676C103.451 146.322 105.955 144.627 108.798 143.864C109.657 146.697 112.633 147.948 114.865 146.067C116.945 150.937 117.975 156.191 117.888 161.486C114.039 161.891 110.679 162.159 108.372 162.338L107.337 159.213C107.073 158.14 106.629 157.119 106.023 156.195C105.739 155.779 105.364 155.433 104.928 155.182C104.491 154.932 104.003 154.783 103.501 154.748C101.272 154.748 100.305 157.071 100.462 159.231C100.462 160.449 100.479 161.667 100.506 162.884C98.1656 163.034 88.7156 163.512 86.3336 163.634C87.0506 161.598 88.9931 159.134 91.1006 159.15ZM125.701 140.492C126.457 140.92 127.344 141.058 128.195 140.88C129.046 140.701 129.803 140.218 130.323 139.521C131.545 137.841 131.011 135.668 130.636 133.791C130.291 132.069 129.949 130.347 129.61 128.624C134.253 128.343 138.904 129.041 143.26 130.673C145.769 131.492 148.024 132.944 149.808 134.888C151.592 136.832 152.846 139.203 153.448 141.773C155.239 149.39 150.748 152.733 150.549 153.063C150.573 153.026 150.6 152.99 150.631 152.958C145.813 157.631 130.74 160.074 119.247 161.342C119.309 155.717 118.142 150.147 115.828 145.02C117.724 142.347 117.028 136.958 121.266 131.801C122.649 135.519 122.776 139.107 125.701 140.492ZM122.281 130.781C123.022 130.107 123.9 129.602 124.855 129.3C125.974 128.985 127.123 128.787 128.283 128.711L129.139 133.023C129.654 134.575 129.826 136.221 129.643 137.846C129.578 138.199 129.428 138.531 129.206 138.813C128.983 139.095 128.695 139.319 128.366 139.464C128.038 139.609 127.679 139.672 127.32 139.647C126.962 139.621 126.615 139.509 126.31 139.319C125.641 138.894 125.07 138.331 124.635 137.669C124.2 137.006 123.911 136.259 123.787 135.476C123.376 133.883 122.873 132.315 122.281 130.781ZM117.288 175.542C120.93 174.125 124.761 173.251 128.658 172.947C129.113 172.806 129.604 172.842 130.034 173.048C130.463 173.254 130.8 173.613 130.976 174.056C131.152 174.499 131.154 174.991 130.983 175.436C130.812 175.88 130.48 176.244 130.053 176.454C129.297 177.025 128.47 177.496 127.593 177.854C119.343 181.335 120.339 180.083 119.943 182.079C117.948 192.239 115.215 207.129 111.468 215.856C110.454 218.349 108.355 221.999 105.643 222.635C103.674 223.092 99.3236 222.114 97.0931 221.427C89.3981 219.102 81.9806 214.808 75.2291 210.449L89.4956 187.439C91.9466 188.645 94.3741 189.895 96.7781 191.189C96.866 191.238 96.964 191.267 97.0647 191.273C97.1653 191.28 97.2662 191.263 97.3596 191.225C97.453 191.187 97.5367 191.128 97.6043 191.053C97.6719 190.979 97.7217 190.889 97.7501 190.793C99.1211 186.623 100.569 183.906 101.5 179.693C101.811 178.065 99.3101 176.207 97.9406 175.268C96.6581 174.389 94.6406 172.632 95.6711 170.846C95.77 170.667 95.9048 170.511 96.0669 170.387C96.229 170.263 96.4149 170.174 96.6131 170.126C97.1404 170.115 97.6575 170.272 98.0891 170.576C99.1391 171.113 100.246 171.615 101.257 172.218C101.358 172.276 101.472 172.306 101.588 172.306C101.704 172.306 101.818 172.275 101.919 172.217C102.019 172.16 102.103 172.077 102.162 171.976C102.22 171.876 102.252 171.763 102.253 171.647C101.982 168.056 101.653 160.872 101.812 158.235C101.804 157.816 101.907 157.403 102.112 157.038C102.317 156.672 102.615 156.368 102.976 156.156C103.788 155.829 104.64 156.488 105.061 157.131C105.661 158.198 105.268 157.17 109.642 170.4C109.762 170.759 110.256 171.072 110.616 170.795C113.301 168.732 117.3 165.486 120.804 164.094C122.32 163.55 124.546 163.494 124.677 165.594C124.897 169.098 119.244 172.371 116.641 174.444C116.134 174.842 116.686 175.776 117.288 175.542ZM52.3241 184.2C52.3241 178.698 56.0606 173.898 60.4796 170.964C64.1566 168.688 68.2494 167.166 72.5201 166.485C81.2906 164.796 84.6581 165.192 100.546 164.199C100.61 166.299 100.715 168.394 100.86 170.484C100.216 170.151 99.5606 169.835 98.9246 169.508C98.4941 169.197 97.9995 168.987 97.4772 168.894C96.9549 168.8 96.4182 168.824 95.9066 168.965C95.4818 169.18 95.108 169.483 94.8103 169.855C94.5126 170.227 94.2978 170.658 94.1805 171.119C94.0631 171.581 94.0459 172.062 94.1299 172.531C94.2139 172.999 94.3972 173.445 94.6676 173.837C96.0521 176.246 100.573 177.879 100.134 179.762C99.4091 182.912 97.8836 186.39 96.7451 189.677C90.5926 186.368 84.2754 183.376 77.8181 180.711C77.6488 180.665 77.4684 180.688 77.3159 180.775C77.1634 180.861 77.0512 181.004 77.0036 181.173C76.9607 181.342 76.9848 181.521 77.0709 181.673C77.157 181.825 77.2984 181.938 77.4656 181.988C81.1256 183.503 84.7381 185.126 88.3031 186.858L74.1236 209.727C70.1756 207.138 66.2696 204.429 62.5961 201.464C50.8616 191.99 52.4786 184.599 52.3241 184.2ZM141.231 188.99C141.091 189.028 140.968 189.111 140.88 189.227C140.793 189.342 140.745 189.482 140.745 189.627C140.745 199.296 140.392 223.431 140.389 225.831H52.3391V190.964C55.1636 197.658 60.6716 201.833 66.6086 206.135C76.0226 212.96 92.3576 223.514 104.044 224.046C108.139 224.346 110.473 221.057 112.242 217.364C114.231 212.885 115.756 208.214 116.794 203.424C118.498 196.506 119.902 189.236 121.372 181.743C126.738 179.483 133.101 178.115 132.376 174.08C132.209 173.501 131.886 172.979 131.442 172.572C130.998 172.165 130.451 171.887 129.861 171.77C128.423 171.528 126.952 171.588 125.539 171.947C119.821 172.857 120.081 173.807 122.343 171.765C124.048 170.228 125.887 168.357 126.021 165.915C126.059 165.357 125.956 164.798 125.722 164.29C125.489 163.781 125.131 163.34 124.683 163.005C122.133 161.444 118.915 163.365 116.361 164.973C114.363 166.233 112.501 167.69 110.634 169.133L108.813 163.634C118.611 162.861 143.586 160.688 151.035 154.371L170.613 178.236C162.021 184.608 151.713 187.358 141.231 188.99ZM151.972 153.44C153.254 152.092 154.199 150.459 154.727 148.675C155.256 146.891 155.354 145.007 155.014 143.178C153.832 133.805 146.434 129.135 137.208 127.707C132.954 126.975 128.598 127.093 124.39 128.054C121.174 129.029 118.69 132.489 117.546 135.491C115.249 141.641 116.133 142.637 114.352 144.747C114.039 145.124 113.619 145.395 113.147 145.526C112.676 145.657 112.176 145.641 111.714 145.479C109.584 144.558 109.711 141.708 109.846 139.803C110.056 136.937 110.614 134.106 111.508 131.375C111.539 131.248 111.533 131.116 111.49 130.993C111.448 130.87 111.37 130.762 111.267 130.682C111.164 130.603 111.04 130.555 110.91 130.545C110.78 130.535 110.65 130.562 110.536 130.625C107.734 132.056 104.7 132.978 101.575 133.35C100.632 133.592 99.6341 133.501 98.7506 133.092C98.4919 132.809 98.2933 132.477 98.1668 132.115C98.0403 131.753 97.9885 131.369 98.0146 130.986C98.0406 130.604 98.144 130.231 98.3185 129.889C98.493 129.548 98.7349 129.245 99.0296 129C99.7325 128.321 100.517 127.731 101.365 127.245C104.599 125.226 108.019 123.524 111.579 122.16C111.714 122.117 111.833 122.033 111.917 121.918C112.002 121.803 112.047 121.664 112.047 121.522C112.047 121.379 112.002 121.241 111.917 121.126C111.833 121.011 111.714 120.926 111.579 120.884C109.747 120.38 107.946 119.771 106.155 119.138C104.406 118.564 102.757 117.72 101.269 116.637C100.6 116.224 100.094 115.593 99.8354 114.851C99.5767 114.108 99.5814 113.3 99.8486 112.56C100.068 112.208 100.374 111.917 100.737 111.716C101.101 111.514 101.509 111.409 101.925 111.41C102.306 111.376 102.689 111.393 103.066 111.459C108.207 112.533 112.239 114.663 114.448 115.319C114.886 115.33 115.318 115.226 115.704 115.019C123.966 111.974 132.557 109.907 141.301 108.861C149.452 107.876 157.713 109.283 165.078 112.911C173.133 116.984 179.404 125.034 182.844 133.106C186.047 140.705 186.687 149.142 184.667 157.138C182.646 165.134 178.075 172.253 171.646 177.419L151.972 153.44Z" fill="#3C0F34"/>
<path d="M195.164 157.781C195.328 157.821 195.501 157.797 195.648 157.713C195.794 157.629 195.903 157.492 195.952 157.331C198.105 149.486 197.623 141.151 194.579 133.607C194.529 133.44 194.416 133.299 194.264 133.213C194.113 133.127 193.934 133.103 193.765 133.145C193.681 133.168 193.602 133.207 193.533 133.26C193.465 133.314 193.407 133.38 193.364 133.456C193.321 133.531 193.293 133.615 193.282 133.701C193.272 133.788 193.278 133.875 193.301 133.959C196.242 141.281 196.723 149.359 194.674 156.978C194.653 157.063 194.649 157.151 194.662 157.238C194.676 157.324 194.706 157.407 194.752 157.482C194.797 157.556 194.857 157.621 194.928 157.673C194.999 157.724 195.079 157.761 195.164 157.781Z" fill="#3C0F34"/>
<path d="M198.928 132.75C198.759 132.797 198.615 132.909 198.529 133.062C198.442 133.214 198.42 133.395 198.466 133.564C201.442 140.898 202.052 148.978 200.211 156.675C200.011 157.503 201.288 157.855 201.489 157.027C203.398 149.101 202.787 140.776 199.743 133.212C199.692 133.045 199.58 132.904 199.428 132.818C199.276 132.732 199.097 132.707 198.928 132.75Z" fill="#3C0F34"/>
<path d="M68.1132 107.912L50.2287 92.352C49.5882 91.7955 48.6477 92.7285 49.2927 93.2895L67.1772 108.849C67.8177 109.406 68.7582 108.473 68.1132 107.912Z" fill="#3C0F34"/>
<path d="M181.545 150.53C181.713 150.523 181.872 150.454 181.99 150.335C182.108 150.216 182.177 150.057 182.183 149.889V143.946C182.176 143.771 182.1 143.605 181.971 143.485C181.843 143.365 181.672 143.301 181.496 143.307C181.328 143.312 181.168 143.381 181.049 143.499C180.93 143.618 180.861 143.778 180.857 143.946C180.824 145.927 180.824 147.908 180.857 149.889C180.859 149.977 180.879 150.063 180.915 150.143C180.951 150.223 181.002 150.294 181.067 150.354C181.131 150.414 181.206 150.46 181.288 150.49C181.37 150.52 181.458 150.534 181.545 150.53Z" fill="#3C0F34"/>
<path d="M67.1149 112.563H41.4889C41.3187 112.571 41.1582 112.644 41.0406 112.767C40.923 112.891 40.8574 113.055 40.8574 113.225C40.8574 113.395 40.923 113.559 41.0406 113.683C41.1582 113.806 41.3187 113.879 41.4889 113.887H67.1149C67.2851 113.879 67.4456 113.806 67.5632 113.683C67.6808 113.559 67.7464 113.395 67.7464 113.225C67.7464 113.055 67.6808 112.891 67.5632 112.767C67.4456 112.644 67.2851 112.571 67.1149 112.563Z" fill="#3C0F34"/>
<path d="M66.7786 118.627L49.4251 130.279C48.7216 130.752 49.3831 131.899 50.0941 131.422L67.4476 119.77C68.1511 119.298 67.4881 118.15 66.7786 118.627Z" fill="#3C0F34"/>
<path d="M117.793 127.09L114.92 128.202C114.134 128.502 114.47 129.787 115.273 129.48L118.145 128.367C118.931 128.062 118.589 126.781 117.793 127.09Z" fill="#3C0F34"/>
<path d="M118.352 120.15L114.981 120.549C114.807 120.553 114.641 120.624 114.517 120.747C114.394 120.87 114.323 121.037 114.318 121.211C114.318 121.298 114.335 121.384 114.368 121.465C114.402 121.545 114.451 121.619 114.512 121.68C114.574 121.742 114.647 121.791 114.727 121.824C114.808 121.857 114.894 121.874 114.981 121.874L118.352 121.47C118.526 121.466 118.692 121.395 118.816 121.272C118.939 121.149 119.01 120.983 119.015 120.809C119.014 120.634 118.943 120.466 118.819 120.343C118.695 120.22 118.527 120.15 118.352 120.15Z" fill="#3C0F34"/>
<path d="M291.716 96.3827C286.016 65.8817 253.04 47.5607 219.944 57.5117C199.312 63.6497 182.128 79.7927 177.494 101.612C176.915 104.331 176.911 107.141 177.481 109.862C177.52 110.001 177.603 110.124 177.718 110.211C177.833 110.299 177.973 110.347 178.118 110.348H209.909C210.054 110.346 210.194 110.298 210.309 110.21C210.424 110.123 210.508 110.001 210.548 109.862C215.069 90.2222 235.946 83.9012 250.922 92.4332C256.622 95.7332 260.207 102.32 257.807 108.702C256.419 111.866 254.352 114.686 251.753 116.961C244.93 123.51 236.398 127.725 227.057 141.357C220.7 150.89 218.461 160.734 219.068 168.219C219.072 168.394 219.143 168.56 219.267 168.683C219.39 168.807 219.557 168.878 219.731 168.882H252.451C252.626 168.881 252.794 168.81 252.918 168.686C253.042 168.562 253.112 168.395 253.114 168.219C253.08 167.104 253.155 165.987 253.339 164.886C254.167 161.637 255.868 158.677 258.257 156.324C266.552 147.662 282.2 137.874 288.802 122.754C292.375 114.449 293.39 105.267 291.716 96.3827ZM251.792 167.55H220.351C220.156 159.094 222.517 150.776 227.126 143.684C236.218 129.434 244.927 125.124 252.119 118.427C257.669 113.255 261.637 107.384 259.169 100.269C255.707 90.6137 244.129 86.5952 233.879 87.5792C222.211 88.6967 212.588 96.4127 209.405 109.016H178.666C178.228 106.463 178.309 103.849 178.904 101.328C183.224 82.0262 197.759 67.0412 216.058 60.2117C247.471 48.3707 280.277 63.1922 289.117 91.3472C291.171 97.7622 291.717 104.565 290.712 111.225C289.706 117.886 287.177 124.224 283.321 129.747C269.989 148.092 251.687 153.959 251.792 167.55Z" fill="#3C0F34"/>
<path d="M268.278 243.393V177.666C268.276 177.491 268.205 177.324 268.082 177.2C267.958 177.077 267.791 177.006 267.616 177.004H201.891C201.716 177.007 201.549 177.077 201.425 177.201C201.301 177.324 201.23 177.491 201.228 177.666V243.393C201.23 243.568 201.301 243.735 201.425 243.859C201.548 243.982 201.716 244.053 201.891 244.056H267.616C267.791 244.053 267.957 243.982 268.081 243.858C268.204 243.734 268.275 243.568 268.278 243.393ZM266.95 242.731C266.95 242.731 203.212 242.704 202.552 242.719C202.552 242.719 202.579 178.996 202.563 178.329C202.563 178.329 266.287 178.354 266.955 178.339C266.955 226.95 266.941 241.579 266.95 242.731Z" fill="#3C0F34"/>
<path d="M7.50056 244.53C7.50866 244.701 7.58197 244.861 7.70528 244.979C7.82859 245.096 7.99243 245.162 8.16281 245.162C8.33319 245.162 8.49703 245.096 8.62034 244.979C8.74365 244.861 8.81696 244.701 8.82506 244.53V191.487C21.0996 203.825 20.5341 203.295 20.6841 203.396C20.7761 203.475 20.8884 203.527 21.0084 203.546C21.1284 203.565 21.2514 203.551 21.3635 203.504C21.4757 203.458 21.5727 203.381 21.6437 203.282C21.7147 203.183 21.7569 203.067 21.7656 202.946C21.8001 202.779 21.7341 183.909 21.7341 177.336C21.7304 177.207 21.6895 177.082 21.6162 176.975C21.543 176.869 21.4405 176.786 21.3212 176.736C21.2019 176.687 21.0707 176.673 20.9436 176.696C20.8164 176.719 20.6987 176.778 20.6046 176.867L7.69406 189.413C7.59806 189.522 7.25756 189.249 7.29806 190.692C7.39106 193.991 6.78506 204.798 7.50056 244.53ZM20.4126 178.901C20.4126 185.043 20.4486 199.973 20.4486 201.296L9.10406 189.896L20.4126 178.901Z" fill="#3C0F34"/>
<path d="M56.336 148.8C56.2477 148.65 56.1035 148.541 55.9349 148.496C55.7662 148.452 55.5869 148.476 55.436 148.564C44.4106 157.056 33.5827 165.802 22.961 174.794C22.31 175.345 23.2505 176.278 23.897 175.73C34.4287 166.808 45.1661 158.132 56.1005 149.708C56.2488 149.616 56.356 149.47 56.3998 149.301C56.4437 149.132 56.4208 148.953 56.336 148.8Z" fill="#3C0F34"/>
<path d="M42.6844 223.64C35.0149 215.219 26.7229 206.75 24.7519 204.845C24.6905 204.784 24.6175 204.735 24.5372 204.701C24.4569 204.668 24.3708 204.651 24.2839 204.651C24.197 204.651 24.1109 204.668 24.0306 204.701C23.9503 204.735 23.8774 204.784 23.8159 204.845C23.7545 204.906 23.7057 204.979 23.6725 205.06C23.6392 205.14 23.6221 205.226 23.6221 205.313C23.6221 205.4 23.6392 205.486 23.6725 205.566C23.7057 205.647 23.7545 205.72 23.8159 205.781C30.8119 213.018 34.2889 216.384 41.7484 224.576C42.3229 225.207 43.2574 224.268 42.6844 223.64Z" fill="#3C0F34"/>
<path d="M121.972 97.0699C132.322 88.3099 143.136 79.5499 154.178 71.0464C154.325 70.9547 154.431 70.8107 154.475 70.6435C154.519 70.4764 154.498 70.2987 154.417 70.1464C154.328 69.9963 154.184 69.8872 154.015 69.8429C153.847 69.7985 153.667 69.8224 153.517 69.9094C142.491 78.4018 131.663 87.1477 121.041 96.1399C120.384 96.6844 121.325 97.6174 121.972 97.0699Z" fill="#3C0F34"/>
<path d="M108.496 173.436C108.332 173.397 108.159 173.422 108.013 173.505C107.867 173.589 107.759 173.725 107.71 173.886C107.47 174.753 107.215 175.614 106.991 176.484C106.948 176.652 106.973 176.831 107.06 176.981C107.148 177.131 107.29 177.24 107.457 177.287C107.625 177.333 107.803 177.311 107.955 177.227C108.107 177.143 108.22 177.003 108.269 176.837C108.523 175.974 108.762 175.108 108.986 174.239C109.008 174.154 109.012 174.065 108.999 173.979C108.986 173.892 108.956 173.809 108.91 173.734C108.864 173.659 108.804 173.595 108.733 173.543C108.662 173.492 108.581 173.456 108.496 173.436Z" fill="#3C0F34"/>
<path d="M114.185 176.808C113.849 177.467 113.363 178.038 112.766 178.475C112.08 178.967 112.74 180.117 113.433 179.618C114.224 179.062 114.873 178.329 115.329 177.477C115.725 176.724 114.582 176.054 114.185 176.808Z" fill="#3C0F34"/>
<path d="M105.83 218.148L101.81 219.335C101.648 219.388 101.514 219.502 101.434 219.651C101.354 219.801 101.334 219.976 101.379 220.14C101.425 220.304 101.531 220.444 101.677 220.532C101.822 220.62 101.996 220.648 102.162 220.611C103.512 220.251 104.841 219.821 106.181 219.426C106.345 219.375 106.483 219.262 106.566 219.111C106.649 218.96 106.67 218.783 106.624 218.617C106.578 218.451 106.47 218.309 106.322 218.222C106.174 218.134 105.997 218.108 105.83 218.148Z" fill="#3C0F34"/>
</svg>
