<svg width="308" height="308" viewBox="0 0 308 308" fill="none" xmlns="http://www.w3.org/2000/svg">
<path d="M238.32 15.5145C231.743 15.2539 226.055 21.6469 227.005 27.8867C227.454 30.0613 228.567 32.0431 230.19 33.5588C231.813 35.0745 233.866 36.0495 236.066 36.3494C242.198 37.1466 248.883 32.026 248.653 25.6177C248.461 22.9623 247.305 20.4688 245.401 18.6076C243.497 16.7464 240.979 15.6462 238.32 15.5145ZM242.428 31.7807L237.829 28.7145L231.835 32.4553L233.874 26.7982L230.531 24.6365L235.008 23.9006L237.829 19.378L239.531 22.9501L244.743 22.7201L240.895 26.4455L242.428 31.7807ZM174.129 97.0755C175.156 96.8148 176.413 95.895 176.275 94.7298C176.137 93.5647 174.88 92.9668 173.868 92.9208C172.243 92.9208 170.618 94.4539 170.894 95.665C171.17 96.8762 172.795 97.3974 174.129 97.0755ZM128.933 265.149C130.442 263.893 131.787 262.45 132.934 260.857C134.912 258.082 137.809 254.05 136.721 249.665C136.031 246.844 133.486 243.165 129.837 243.042C126.189 242.919 123.245 246.783 122.371 249.604C121.16 253.452 122.969 256.947 124.18 259.262C125.354 261.523 126.97 263.525 128.933 265.149ZM126.403 251.045C126.403 250.438 126.583 249.845 126.92 249.341C127.257 248.837 127.736 248.444 128.296 248.212C128.856 247.98 129.473 247.919 130.068 248.037C130.662 248.156 131.209 248.448 131.638 248.877C132.066 249.305 132.358 249.852 132.477 250.446C132.595 251.041 132.534 251.658 132.302 252.218C132.07 252.778 131.677 253.257 131.173 253.594C130.669 253.931 130.076 254.111 129.469 254.111C128.656 254.111 127.876 253.788 127.301 253.213C126.726 252.638 126.403 251.858 126.403 251.045ZM234.395 264.72C234.579 258.879 231.329 254.939 228.998 254.939C226.668 254.939 223.418 258.879 223.586 264.72H234.395ZM235.805 261.899L239.531 261.976C239.852 260.628 239.667 259.209 239.009 257.99C237.722 255.736 235.652 254.709 234.257 256.87C235.263 258.355 235.802 260.106 235.805 261.899ZM218.389 261.976L222.115 261.899C222.119 260.108 222.653 258.359 223.648 256.87C222.237 254.709 220.168 255.751 218.895 257.99C218.242 259.211 218.062 260.63 218.389 261.976ZM228.998 253.743C229.717 253.808 230.439 253.651 231.066 253.294C231.694 252.937 232.197 252.397 232.509 251.746C232.821 251.095 232.927 250.364 232.812 249.652C232.697 248.939 232.367 248.279 231.866 247.759C231.365 247.239 230.717 246.884 230.01 246.743C229.302 246.601 228.568 246.68 227.905 246.967C227.243 247.254 226.685 247.737 226.305 248.351C225.925 248.965 225.741 249.68 225.779 250.401C225.804 251.258 226.147 252.076 226.742 252.694C227.338 253.312 228.142 253.686 228.998 253.743ZM220.995 254.724C221.627 254.666 222.213 254.372 222.637 253.9C223.061 253.428 223.29 252.813 223.28 252.179C223.235 251.733 223.062 251.308 222.78 250.959C222.499 250.609 222.122 250.348 221.696 250.209C221.269 250.069 220.811 250.057 220.377 250.173C219.944 250.289 219.553 250.529 219.254 250.863C218.954 251.197 218.757 251.611 218.689 252.054C218.62 252.498 218.682 252.952 218.866 253.361C219.051 253.77 219.35 254.117 219.728 254.359C220.106 254.601 220.547 254.728 220.995 254.724ZM237.001 254.724C237.633 254.666 238.219 254.372 238.643 253.9C239.066 253.428 239.296 252.813 239.285 252.179C239.241 251.733 239.067 251.308 238.786 250.959C238.505 250.609 238.128 250.348 237.701 250.209C237.275 250.069 236.817 250.057 236.383 250.173C235.949 250.289 235.559 250.529 235.259 250.863C234.959 251.197 234.763 251.611 234.694 252.054C234.625 252.498 234.687 252.952 234.872 253.361C235.056 253.77 235.356 254.117 235.734 254.359C236.112 254.601 236.552 254.728 237.001 254.724ZM136.23 101.491C135.152 101.574 134.076 101.305 133.164 100.724C133.571 99.378 134.244 98.1269 135.142 97.0448C135.209 96.9459 135.239 96.8264 135.226 96.7076C135.214 96.5887 135.159 96.4782 135.073 96.3956C134.987 96.3129 134.874 96.2635 134.755 96.2561C134.635 96.2486 134.517 96.2836 134.421 96.3549C133.885 96.9068 131.554 100.28 131.999 101.368C132.444 102.457 136.062 103.055 136.874 102.273C136.978 102.187 137.043 102.064 137.056 101.931C137.069 101.797 137.029 101.663 136.943 101.56C136.858 101.456 136.735 101.391 136.601 101.378C136.467 101.365 136.334 101.405 136.23 101.491ZM145.245 109.248C148.607 109.139 151.839 107.926 154.444 105.799C154.317 106.85 153.97 107.863 153.426 108.772C152.882 109.681 152.153 110.465 151.285 111.073C151.184 111.134 151.111 111.233 151.082 111.348C151.053 111.463 151.071 111.584 151.132 111.686C151.193 111.788 151.292 111.861 151.407 111.89C151.522 111.918 151.644 111.9 151.745 111.839C153.096 111.094 154.202 109.974 154.928 108.613C155.655 107.253 155.971 105.71 155.839 104.174C155.831 104.04 155.785 103.912 155.706 103.804C155.627 103.697 155.518 103.614 155.393 103.567C155.268 103.52 155.132 103.511 155.002 103.539C154.871 103.568 154.752 103.634 154.658 103.729C152.197 106.375 148.82 107.982 145.214 108.221C145.063 108.229 144.92 108.296 144.817 108.408C144.714 108.519 144.658 108.667 144.662 108.819C144.699 108.944 144.776 109.054 144.881 109.132C144.987 109.209 145.114 109.25 145.245 109.248ZM145.966 75.2748C145.795 75.2748 145.631 75.3426 145.51 75.4634C145.39 75.5841 145.322 75.7479 145.322 75.9187C145.322 76.0895 145.39 76.2532 145.51 76.374C145.631 76.4947 145.795 76.5626 145.966 76.5626C147.203 76.6231 148.412 76.9602 149.502 77.5492C150.593 78.1382 151.537 78.964 152.267 79.9661C152.342 80.056 152.447 80.1159 152.563 80.1349C152.679 80.1538 152.798 80.1306 152.898 80.0693C152.998 80.0081 153.073 79.9129 153.109 79.8011C153.145 79.6894 153.14 79.5684 153.094 79.4601C152.377 78.199 151.341 77.1485 150.09 76.414C148.839 75.6794 147.416 75.2866 145.966 75.2748ZM127.645 76.3173C126.625 77.179 125.314 77.6179 123.981 77.5438C123.843 77.5371 123.708 77.582 123.602 77.6697C123.496 77.7575 123.427 77.8817 123.408 78.0181C123.388 78.1544 123.421 78.293 123.498 78.4066C123.576 78.5202 123.694 78.6007 123.828 78.6323C124.652 78.8053 125.506 78.7861 126.322 78.576C127.138 78.366 127.895 77.9708 128.534 77.4211C129.147 76.8385 128.335 75.8114 127.645 76.3173ZM126.235 92.0009C126.235 91.311 125.867 88.4901 125.882 87.8309C125.882 87.6886 125.825 87.5521 125.725 87.4514C125.624 87.3508 125.488 87.2943 125.345 87.2943C125.206 87.2901 125.07 87.3406 124.967 87.4351C124.864 87.5296 124.801 87.6606 124.793 87.8002C124.71 89.2555 124.71 90.7143 124.793 92.1695C124.816 92.3606 124.913 92.535 125.064 92.6544C125.139 92.7134 125.225 92.7572 125.316 92.7832C125.408 92.8092 125.504 92.8168 125.598 92.8058C125.693 92.7947 125.784 92.7651 125.868 92.7187C125.951 92.6722 126.024 92.6098 126.083 92.5351C126.142 92.4604 126.186 92.3747 126.212 92.2831C126.238 92.1914 126.246 92.0955 126.235 92.0009ZM147.867 91.633C147.867 91.127 147.56 89.1033 147.575 88.5668C147.575 88.4244 147.519 88.288 147.418 88.1873C147.318 88.0867 147.181 88.0302 147.039 88.0302C146.896 88.0302 146.76 88.0867 146.659 88.1873C146.559 88.288 146.502 88.4244 146.502 88.5668C146.502 89.1187 146.349 91.2497 146.41 91.8016C146.413 91.9036 146.437 92.0039 146.481 92.0961C146.524 92.1883 146.587 92.2704 146.664 92.3372C146.741 92.4041 146.831 92.4541 146.929 92.4842C147.026 92.5143 147.129 92.5237 147.23 92.512C147.332 92.5003 147.43 92.4676 147.518 92.416C147.606 92.3644 147.682 92.2951 147.742 92.2124C147.802 92.1298 147.844 92.0356 147.865 91.9358C147.887 91.8361 147.887 91.7329 147.867 91.633Z" fill="black"/>
<path d="M76.2701 158.599C76.2537 158.649 76.2537 158.702 76.2701 158.752C82.9708 173.848 93.8906 186.685 107.716 195.721C121.541 204.756 137.682 209.604 154.198 209.682C202.092 209.682 241.339 169.377 239.331 120.041C238.608 102.341 232.206 85.3436 221.071 71.5649C212.399 60.9062 201.288 52.4925 188.677 47.0353C188.839 46.4825 188.962 45.9189 189.045 45.3489C189.904 39.753 187.512 36.0123 183.265 32.2255C181.131 30.3863 178.889 28.6764 176.55 27.105C174.229 25.3657 171.546 24.1711 168.701 23.6095C167.186 23.3039 165.621 23.3598 164.132 23.7727C162.642 24.1856 161.272 24.9438 160.131 25.9858C159.701 26.4304 159.333 27.1356 158.874 27.4116C158.203 27.6146 157.495 27.6618 156.804 27.5496C152.114 27.5489 147.474 28.5074 143.169 30.3661C138.864 32.2248 134.984 34.9445 131.768 38.3579C129.842 38.682 128.023 39.4695 126.469 40.6526C124.915 41.8358 123.671 43.3791 122.846 45.1496C77.006 64.1753 57.505 114.139 76.2701 158.599ZM128.043 171.446C126.256 165.553 125.478 159.401 125.743 153.248C125.973 148.128 126.341 139.573 131.876 135.986C133.602 134.788 135.485 133.833 137.471 133.15C135.708 142.915 139.127 152.743 143.267 161.665C140.645 162.6 130.45 169.929 128.043 171.477V171.446ZM140.308 133.119C140.17 131.586 139.465 126.986 139.357 126.266C139.336 125.946 139.234 125.638 139.059 125.369C138.885 125.101 138.644 124.882 138.361 124.733C137.855 124.472 135.601 123.706 135.003 123.399C127.936 119.934 122.662 111.686 123.336 99.6513C125.201 99.9227 127.101 99.8342 128.932 99.3906C131.339 98.6701 132.842 96.4011 133.378 92.6603C133.725 92.3432 134.135 92.1039 134.582 91.9585C135.029 91.8131 135.502 91.7649 135.969 91.8171C136.921 91.8985 137.843 92.1919 138.667 92.6757C138.842 93.8928 139.299 95.0522 140.002 96.0611C140.704 97.07 141.633 97.9005 142.715 98.4861C145.142 99.6589 147.927 99.8547 150.495 99.033C153.063 98.2113 155.217 96.435 156.513 94.0708C157.168 92.7612 157.579 91.3427 157.724 89.8854C160.333 90.0429 162.951 89.8208 165.497 89.2262C165.497 90.0081 165.497 91.4185 166.002 91.6945C167.689 92.5377 170.602 85.7614 174.695 85.7614C175.978 85.8432 177.187 86.388 178.099 87.2945C178.805 87.8165 179.38 88.4954 179.779 89.2775C180.178 90.0597 180.39 90.9238 180.398 91.8018C180.302 92.575 180.053 93.3214 179.666 93.9978C179.28 94.6741 178.762 95.2669 178.145 95.7419C176.314 97.4646 173.912 98.4525 171.399 98.5168C171.346 98.5228 171.296 98.5416 171.253 98.5717C171.209 98.6017 171.174 98.642 171.15 98.689C171.125 98.7359 171.113 98.7882 171.114 98.841C171.114 98.8939 171.128 98.9457 171.154 98.992C173.662 103.152 175.426 107.717 176.366 112.483C175.538 121.513 175.186 125.361 175.017 127.232C173.607 144.096 167.796 158.108 158.444 172.228C156.349 175.192 154.59 178.38 153.201 181.733C148.035 165.498 135.248 150.29 138.483 133.042C138.752 132.933 139.029 132.846 139.311 132.782C139.311 133.017 139.357 133.216 139.449 133.379C139.46 133.436 139.482 133.489 139.514 133.537C139.546 133.585 139.587 133.626 139.635 133.658C139.682 133.69 139.736 133.713 139.792 133.724C139.848 133.735 139.906 133.735 139.963 133.724C140.019 133.713 140.073 133.691 140.121 133.659C140.168 133.628 140.21 133.587 140.242 133.539C140.274 133.491 140.296 133.438 140.307 133.382C140.319 133.325 140.319 133.267 140.308 133.211V133.119ZM150.549 69.0046C149.747 68.3543 148.847 67.8367 147.881 67.4715C154.014 66.9043 158.751 65.1565 162.936 60.2353C163.396 60.4806 166.002 61.7684 166.401 62.029C170.847 68.9433 168.409 71.7642 166.784 80.2729C166.294 82.8332 165.803 85.5007 165.527 87.8464C162.987 88.4912 160.375 88.8106 157.754 88.7969C157.877 87.5858 157.938 86.2826 158.107 85.0255C158.422 84.8986 158.686 84.6707 158.858 84.3774C159.029 84.0842 159.099 83.7422 159.055 83.4054C159.011 83.0685 158.856 82.7557 158.615 82.5162C158.375 82.2766 158.061 82.1239 157.724 82.0819L139.327 81.6373C139.048 81.6543 138.78 81.7468 138.55 81.9049C138.321 82.063 138.139 82.2807 138.024 82.5345C137.909 82.7883 137.865 83.0687 137.897 83.3456C137.93 83.6224 138.037 83.8852 138.207 84.1056C138.101 86.4945 138.177 88.8881 138.437 91.2652C137.667 90.8795 136.821 90.6686 135.96 90.6474C135.098 90.6262 134.243 90.7953 133.455 91.1426C133.584 89.0189 133.502 86.8876 133.209 84.7802C133.419 84.5869 133.574 84.3429 133.661 84.0719C133.749 83.8009 133.765 83.5119 133.707 83.233C133.65 82.954 133.522 82.6945 133.336 82.4794C133.149 82.2644 132.91 82.1011 132.642 82.0053C132.489 82.0053 132.734 82.0053 122.907 81.76C123.03 78.6938 123.076 70.1851 124.44 66.0304C132.259 71.8715 141.779 73.6959 150.503 69.4952C150.56 69.4473 150.597 69.3792 150.605 69.3051C150.614 69.2309 150.594 69.1563 150.549 69.0966V69.0046ZM157.141 85.1481C156.743 87.5244 156.911 90.0234 156.037 92.2464C155.128 94.5186 153.377 96.3525 151.15 97.3663C148.922 98.3801 146.39 98.4957 144.079 97.6889C142.948 97.3083 141.949 96.6127 141.199 95.6839C140.45 94.7551 139.981 93.6317 139.848 92.4457C139.469 89.9089 139.31 87.3443 139.373 84.7802C141.856 85.0102 154.811 85.1941 157.141 85.2401V85.1481ZM132.167 85.1481C132.581 89.0116 132.796 95.8798 129.361 97.7809C128.341 98.2239 127.239 98.4485 126.127 98.4401C125.154 98.5246 124.174 98.4782 123.214 98.3021C122.222 98.138 121.295 97.7033 120.535 97.0459C119.775 96.3886 119.211 95.5341 118.906 94.5767C118.18 91.3645 117.881 88.0706 118.016 84.7802L132.167 85.1481ZM153.446 199.655C149.813 193.86 137.134 174.237 133.792 169.331C136.764 166.705 140.061 164.474 143.604 162.692C144.631 164.655 151.269 178.284 152.634 183.742C152.669 183.863 152.743 183.97 152.843 184.045C152.944 184.121 153.067 184.162 153.193 184.162C153.32 184.162 153.442 184.121 153.543 184.045C153.644 183.97 153.718 183.863 153.753 183.742C155.899 175.432 161.189 171.676 167.382 158.768C170.87 160.718 174.043 163.183 176.795 166.08C173.929 171.124 158.598 193.661 153.446 199.732V199.655ZM181.594 168.349C172.702 160.055 169.069 158.154 167.949 157.725C172.26 148.707 175.013 139.024 176.09 129.087C180.536 132.536 185.136 135.924 189.244 139.681C188.355 143.866 183.48 162.554 181.594 168.349ZM188.416 47.9858C227.311 65.6165 248.207 107.547 233.444 152.083C225.885 148.818 196.802 139.941 190.149 138.914C188.278 137.136 179.417 130.252 176.244 127.845C176.244 127.109 176.121 129.255 177.347 114.369C177.347 114.2 180.766 97.1983 182.207 93.4882C182.98 91.5261 183.918 89.6335 185.013 87.8311C186.805 84.5903 187.35 80.8062 186.546 77.1914C186.247 76.0438 185.726 74.9658 185.013 74.0178C186.569 72.4932 187.637 70.5399 188.079 68.4067C188.493 65.1718 186.883 62.029 185.32 59.3154C186.471 57.5031 187.127 55.4202 187.221 53.275C187.179 52.4614 186.948 51.6688 186.546 50.96C187.349 50.1047 187.965 49.0919 188.355 47.9858H188.416ZM125.13 44.0151C129.729 37.4994 138.928 39.1398 146.701 40.7036C156.092 42.6186 165.229 45.618 173.929 49.6415C174.026 49.6924 174.14 49.7023 174.245 49.6693C174.35 49.6362 174.437 49.5628 174.488 49.4652C174.539 49.3677 174.549 49.2539 174.516 49.1489C174.483 49.044 174.409 48.9565 174.312 48.9057C165.901 44.7695 157.014 41.6803 147.851 39.7071C143.481 38.7719 138.253 37.6834 133.715 38.174C138.942 33.2576 145.592 30.1232 152.711 29.2207C157.57 28.6074 158.966 29.6039 160.284 27.9635C160.938 27.057 161.787 26.308 162.768 25.7712C165.297 24.4527 168.992 24.2381 173.407 26.7524C175.791 28.1171 178.071 29.6543 180.23 31.3517C182.394 32.9175 184.311 34.7985 185.917 36.9321C187.426 38.9245 188.151 41.401 187.956 43.8924C187.884 46.0805 187.11 48.1874 185.749 49.9022C185.149 49.2098 184.493 48.5688 183.786 47.9858C180.138 44.9196 167.873 36.2729 165.389 34.7551C165.286 34.6901 165.16 34.6689 165.041 34.6962C164.922 34.7235 164.818 34.7971 164.753 34.9008C164.688 35.0045 164.667 35.1298 164.694 35.2491C164.721 35.3684 164.795 35.472 164.899 35.537C168.379 37.714 179.11 45.7475 181.763 48.0011C183.48 49.4269 185.136 50.7147 185.626 52.2325C186.362 54.5781 185.013 56.8318 184.093 59.0088C184.047 59.111 184.034 59.2251 184.056 59.3351C184.078 59.4451 184.134 59.5455 184.216 59.622C185.595 62.1056 187.19 65.5858 186.745 68.4067C186.317 70.154 185.409 71.747 184.124 73.006C177.838 65.5245 162.86 57.1384 152.894 53.3823C141.212 48.921 126.464 48.9057 122.447 50.5767C122.855 48.2208 123.77 45.9818 125.13 44.0151ZM122.064 46.9433C121.579 48.3773 121.24 49.8566 121.052 51.3586C119.871 51.8492 118.814 53.8422 117.986 57.0464C116.989 61.3084 116.115 64.9879 118.246 68.5907C119.209 70.1628 120.554 71.4655 122.156 72.3774C121.972 73.9105 121.497 79.5063 121.543 81.8366L117.511 81.7447H117.403C117.104 81.8039 116.829 81.9511 116.614 82.1674C116.399 82.3838 116.253 82.6594 116.195 82.9591C116.138 83.2587 116.171 83.5688 116.29 83.8495C116.41 84.1302 116.611 84.3689 116.867 84.5349C116.799 87.8311 116.994 91.1274 117.449 94.3927C117.682 95.5682 118.235 96.6566 119.046 97.5384C119.858 98.4201 120.896 99.0611 122.048 99.3906C121.622 104.918 122.742 110.454 125.283 115.381C127.662 119.984 131.659 123.544 136.506 125.377C138.039 125.883 138.039 125.821 138.192 126.649C138.192 126.649 138.836 130.513 139.051 131.678C134.524 132.426 130.409 134.75 127.43 138.239C109.61 141.628 92.5739 148.298 77.19 157.909C72.8089 147.678 70.4965 136.681 70.3862 125.553C70.2758 114.424 72.3696 103.383 76.5469 93.0676C80.7242 82.752 86.9023 73.3653 94.7249 65.4489C102.548 57.5326 111.86 51.2431 122.125 46.9433H122.064ZM74.2771 21.8004C75.1816 21.7085 75.0743 20.344 74.2771 20.4513C70.6896 20.5586 56.9377 21.0186 53.2276 20.9879C53.1258 21.0071 53.0338 21.0612 52.9676 21.141C52.9014 21.2208 52.8652 21.3212 52.8652 21.4248C52.8652 21.5285 52.9014 21.6289 52.9676 21.7087C53.0338 21.7885 53.1258 21.8426 53.2276 21.8618C56.6618 22.0304 70.7816 22.1531 74.2771 21.8004ZM72.744 25.4186C71.3489 25.4186 56.6464 26.5684 53.7029 26.6144C53.585 26.6144 53.4719 26.6612 53.3885 26.7446C53.3051 26.828 53.2583 26.9411 53.2583 27.059C53.2583 27.1769 53.3051 27.29 53.3885 27.3734C53.4719 27.4567 53.585 27.5036 53.7029 27.5036C56.0945 27.5036 71.0729 27.105 72.8973 26.7524C73.0609 26.717 73.2056 26.622 73.3031 26.4859C73.4006 26.3498 73.444 26.1823 73.4248 26.016C73.4057 25.8497 73.3255 25.6964 73.1996 25.586C73.0738 25.4756 72.9114 25.4159 72.744 25.4186ZM75.1816 31.4743C75.1816 31.4743 56.3705 32.1795 54.5768 32.1949C54.4596 32.2155 54.3534 32.2768 54.277 32.3679C54.2005 32.459 54.1586 32.5742 54.1586 32.6931C54.1586 32.8121 54.2005 32.9272 54.277 33.0184C54.3534 33.1095 54.4596 33.1708 54.5768 33.1914C61.4757 33.1914 68.3747 33.452 75.2276 32.9001C75.3984 32.87 75.5525 32.7793 75.6618 32.6447C75.7711 32.5101 75.8282 32.3406 75.8226 32.1673C75.817 31.994 75.7491 31.8285 75.6314 31.7012C75.5136 31.5739 75.354 31.4934 75.1816 31.4743ZM178.528 260.121L177.393 259.538C177.354 259.515 177.309 259.503 177.263 259.503C177.217 259.503 177.172 259.515 177.133 259.538C175.647 260.799 174.455 262.369 173.637 264.138C173.615 264.193 173.613 264.255 173.633 264.311C173.653 264.368 173.692 264.415 173.745 264.444C174.84 265.013 176.052 265.317 177.286 265.333C181.364 265.333 183.94 261.838 186.239 258.588C188.232 255.736 190.731 252.195 189.49 248.761C189.064 247.614 188.326 246.61 187.359 245.863C187.319 245.826 187.267 245.806 187.213 245.806C187.159 245.806 187.107 245.826 187.067 245.863C185.484 247.065 184.229 248.647 183.418 250.462C183.393 250.498 183.38 250.541 183.38 250.585C183.38 250.629 183.393 250.672 183.418 250.708L184.66 251.888C183.227 255.038 181.136 257.845 178.528 260.121ZM174.71 258.097C173.666 259.28 172.727 260.552 171.905 261.899C171.506 262.773 172.671 263.202 172.978 262.666C173.835 261.344 174.777 260.079 175.799 258.879C176.121 258.542 175.462 257.591 174.71 258.097ZM182.437 249.343C182.534 249.346 182.629 249.327 182.717 249.287C182.805 249.247 182.882 249.188 182.943 249.113C183.805 247.795 184.747 246.53 185.764 245.326C186.101 244.974 185.442 244.039 184.66 244.56C183.626 245.738 182.697 247.005 181.885 248.347C181.826 248.446 181.794 248.558 181.793 248.674C181.791 248.789 181.819 248.903 181.875 249.003C181.931 249.104 182.012 249.189 182.111 249.248C182.209 249.308 182.322 249.341 182.437 249.343ZM228.17 229.719C228.267 229.721 228.364 229.699 228.452 229.657C228.539 229.614 228.616 229.552 228.676 229.474C228.735 229.397 228.776 229.307 228.794 229.211C228.813 229.115 228.809 229.016 228.783 228.922L229.136 218.191C229.136 217.363 229.212 216.336 228.262 215.799C227.311 215.262 77.282 214.91 77.4506 214.91C77.3979 214.912 77.3466 214.927 77.3012 214.954C77.2557 214.981 77.2176 215.018 77.19 215.063C76.7185 219.133 76.529 223.231 76.6227 227.328C76.8021 227.699 77.0905 228.006 77.4495 228.209C77.8084 228.412 78.2206 228.5 78.6311 228.462C80.7314 228.462 228.17 229.719 228.17 229.719ZM227.863 218.221C227.863 218.574 227.863 218.359 227.587 228.416C220.412 228.202 79.2443 227.098 78.1865 227.037C77.7112 226.868 77.7112 226.408 77.7419 225.687L78.0332 216.198C85.5607 216.412 226.897 216.78 227.48 216.826C228.062 216.872 227.909 217.501 227.863 218.221ZM90.7426 274.44C90.9215 274.44 91.0931 274.369 91.2196 274.242C91.3461 274.116 91.4172 273.944 91.4172 273.765C91.4172 273.587 91.3461 273.415 91.2196 273.288C91.0931 273.162 90.9215 273.091 90.7426 273.091C87.3084 273.29 73.4032 273.673 69.6931 273.627C69.5913 273.647 69.4993 273.701 69.4331 273.781C69.3669 273.86 69.3307 273.961 69.3307 274.064C69.3307 274.168 69.3669 274.268 69.4331 274.348C69.4993 274.428 69.5913 274.482 69.6931 274.501C73.1119 274.67 87.2011 274.777 90.7426 274.44ZM89.1328 278.058C87.753 278.058 73.0506 279.208 70.0917 279.254C69.9738 279.254 69.8607 279.301 69.7773 279.384C69.694 279.468 69.6471 279.581 69.6471 279.699C69.6471 279.816 69.694 279.93 69.7773 280.013C69.8607 280.096 69.9738 280.143 70.0917 280.143C72.8666 280.143 87.5231 279.729 89.2861 279.392C89.4498 279.357 89.5944 279.262 89.6919 279.125C89.7894 278.989 89.8328 278.822 89.8137 278.656C89.7946 278.489 89.7143 278.336 89.5885 278.226C89.4626 278.115 89.3002 278.055 89.1328 278.058ZM91.6165 284.129C91.6165 284.129 72.836 284.819 70.9963 284.834C70.8791 284.855 70.773 284.916 70.6965 285.007C70.62 285.099 70.5781 285.214 70.5781 285.333C70.5781 285.452 70.62 285.567 70.6965 285.658C70.773 285.749 70.8791 285.81 70.9963 285.831C77.8645 285.831 84.7942 286.092 91.6318 285.54C91.7244 285.539 91.8159 285.519 91.9011 285.483C91.9863 285.447 92.0634 285.394 92.1282 285.328C92.193 285.261 92.2441 285.183 92.2786 285.097C92.3131 285.011 92.3304 284.919 92.3293 284.827C92.3283 284.734 92.3091 284.643 92.2727 284.557C92.2364 284.472 92.1836 284.395 92.1174 284.33C92.0512 284.266 91.9729 284.214 91.8869 284.18C91.801 284.145 91.7091 284.128 91.6165 284.129ZM139.572 274.44C139.751 274.44 139.922 274.369 140.049 274.242C140.175 274.116 140.246 273.944 140.246 273.765C140.246 273.587 140.175 273.415 140.049 273.288C139.922 273.162 139.751 273.091 139.572 273.091C136.107 273.275 122.217 273.673 118.522 273.627C118.42 273.647 118.329 273.701 118.262 273.781C118.196 273.86 118.16 273.961 118.16 274.064C118.16 274.168 118.196 274.268 118.262 274.348C118.329 274.428 118.42 274.482 118.522 274.501C121.957 274.67 136.015 274.777 139.572 274.44ZM137.962 278.058C136.582 278.058 121.88 279.208 118.921 279.254C118.803 279.254 118.69 279.301 118.607 279.384C118.523 279.468 118.476 279.581 118.476 279.699C118.476 279.816 118.523 279.93 118.607 280.013C118.69 280.096 118.803 280.143 118.921 280.143C121.681 280.143 136.337 279.729 138.1 279.392C138.262 279.357 138.406 279.263 138.503 279.129C138.601 278.994 138.645 278.828 138.628 278.663C138.611 278.498 138.534 278.345 138.411 278.233C138.288 278.122 138.128 278.059 137.962 278.058ZM140.461 284.129C140.461 284.129 121.665 284.819 119.841 284.834C119.724 284.855 119.618 284.916 119.541 285.007C119.465 285.099 119.423 285.214 119.423 285.333C119.423 285.452 119.465 285.567 119.541 285.658C119.618 285.749 119.724 285.81 119.841 285.831C126.709 285.831 133.639 286.092 140.476 285.54C140.663 285.538 140.842 285.461 140.973 285.328C141.104 285.194 141.176 285.014 141.174 284.827C141.172 284.64 141.096 284.461 140.962 284.33C140.828 284.2 140.648 284.127 140.461 284.129ZM189.904 274.44C190.082 274.44 190.254 274.369 190.38 274.242C190.507 274.116 190.578 273.944 190.578 273.765C190.578 273.587 190.507 273.415 190.38 273.288C190.254 273.162 190.082 273.091 189.904 273.091C186.439 273.29 172.564 273.673 168.839 273.627C168.737 273.647 168.645 273.701 168.579 273.781C168.513 273.86 168.476 273.961 168.476 274.064C168.476 274.168 168.513 274.268 168.579 274.348C168.645 274.428 168.737 274.482 168.839 274.501C172.288 274.67 186.347 274.777 189.904 274.44ZM188.294 278.058C186.929 278.058 172.212 279.208 169.268 279.254C169.15 279.254 169.037 279.301 168.954 279.384C168.87 279.468 168.823 279.581 168.823 279.699C168.823 279.816 168.87 279.93 168.954 280.013C169.037 280.096 169.15 280.143 169.268 280.143C172.028 280.143 186.684 279.729 188.462 279.392C188.628 279.357 188.774 279.261 188.872 279.123C188.97 278.985 189.013 278.815 188.991 278.647C188.97 278.48 188.887 278.326 188.757 278.217C188.628 278.108 188.463 278.051 188.294 278.058ZM190.793 284.129C190.793 284.129 171.997 284.819 170.173 284.834C170.055 284.855 169.949 284.916 169.873 285.007C169.796 285.099 169.754 285.214 169.754 285.333C169.754 285.452 169.796 285.567 169.873 285.658C169.949 285.749 170.055 285.81 170.173 285.831C177.041 285.831 183.97 286.092 190.808 285.54C190.995 285.538 191.174 285.461 191.304 285.328C191.435 285.194 191.508 285.014 191.506 284.827C191.504 284.64 191.427 284.461 191.294 284.33C191.16 284.2 190.98 284.127 190.793 284.129ZM238.855 274.44C239.034 274.44 239.206 274.369 239.332 274.242C239.459 274.116 239.53 273.944 239.53 273.765C239.53 273.587 239.459 273.415 239.332 273.288C239.206 273.162 239.034 273.091 238.855 273.091C235.421 273.275 221.516 273.673 217.791 273.627C217.689 273.647 217.597 273.701 217.531 273.781C217.464 273.86 217.428 273.961 217.428 274.064C217.428 274.168 217.464 274.268 217.531 274.348C217.597 274.428 217.689 274.482 217.791 274.501C221.24 274.67 235.253 274.777 238.855 274.44ZM237.246 278.058C235.881 278.058 221.163 279.208 218.22 279.254C218.102 279.254 217.989 279.301 217.905 279.384C217.822 279.468 217.775 279.581 217.775 279.699C217.775 279.816 217.822 279.93 217.905 280.013C217.989 280.096 218.102 280.143 218.22 280.143C220.979 280.143 235.636 279.729 237.414 279.392C237.58 279.357 237.726 279.261 237.824 279.123C237.922 278.985 237.965 278.815 237.943 278.647C237.922 278.48 237.839 278.326 237.709 278.217C237.58 278.108 237.415 278.051 237.246 278.058ZM239.745 284.129C239.745 284.129 220.949 284.819 219.124 284.834C219.007 284.855 218.901 284.916 218.825 285.007C218.748 285.099 218.706 285.214 218.706 285.333C218.706 285.452 218.748 285.567 218.825 285.658C218.901 285.749 219.007 285.81 219.124 285.831C225.977 285.831 232.922 286.092 239.76 285.54C239.947 285.538 240.126 285.461 240.256 285.328C240.387 285.194 240.46 285.014 240.457 284.827C240.455 284.64 240.379 284.461 240.245 284.33C240.112 284.2 239.932 284.127 239.745 284.129ZM93.9161 265.993L90.3593 265.916C90.3593 264.107 90.2367 259.446 90.1753 258.005C90.6374 257.619 90.9355 257.072 91.0095 256.474C91.0835 255.876 90.9278 255.273 90.5739 254.786C90.436 254.586 90.5739 254.632 86.2353 254.786V251.719C86.5049 251.337 86.686 250.899 86.7655 250.437C86.8451 249.976 86.8211 249.503 86.6952 249.052C86.6778 248.984 86.638 248.925 86.5823 248.883C86.5265 248.841 86.4582 248.82 86.3886 248.822L80.9307 248.991C80.8388 247.825 80.4402 243.64 80.2868 243.364C80.1824 243.165 80.0075 243.012 79.7963 242.935C81.6973 240.191 78.7078 239.225 79.2903 237.814C79.5356 237.216 78.6464 236.802 78.2938 237.354C77.4317 238.509 76.7685 239.799 76.3314 241.172C76.3449 241.579 76.4582 241.976 76.6614 242.329C76.8645 242.682 77.1514 242.979 77.4966 243.195C77.2741 243.284 77.0865 243.443 76.962 243.647C76.8376 243.852 76.783 244.092 76.8067 244.33V249.098L72.4374 249.236C72.3743 249.237 72.3134 249.258 72.2636 249.297C72.2139 249.336 72.178 249.39 72.1614 249.45C71.9927 249.943 71.952 250.47 72.0432 250.982C72.1344 251.494 72.3545 251.975 72.6827 252.379C72.6827 253.253 72.79 254.448 72.882 255.307C68.4666 255.491 68.6353 255.43 68.4973 255.583C67.3935 256.901 66.6883 259.186 67.9914 260.182V265.747H65.4158C65.2897 265.747 65.1688 265.797 65.0797 265.887C64.9906 265.976 64.9405 266.097 64.9405 266.223C64.9405 266.349 64.9906 266.47 65.0797 266.559C65.1688 266.648 65.2897 266.698 65.4158 266.698C65.5844 266.698 93.7168 267.035 93.9774 267.004C94.1116 266.996 94.2371 266.935 94.3262 266.835C94.4153 266.734 94.4608 266.602 94.4527 266.468C94.4446 266.334 94.3835 266.208 94.2828 266.119C94.1822 266.03 94.0503 265.984 93.9161 265.993ZM79.8269 249.052H77.9105V244.207C78.4075 244.057 78.9246 243.985 79.4436 243.993C79.4743 244.637 79.7503 248.055 79.8269 249.052ZM77.4659 241.08C77.7404 240.467 78.0634 239.878 78.4318 239.317C78.9377 240.298 79.6736 240.85 79.2443 241.816C79.0596 242.151 78.8385 242.464 78.5851 242.751C77.9105 242.276 77.3433 241.724 77.4659 241.049V241.08ZM77.1287 251.888C77.335 252.323 77.6606 252.691 78.0677 252.949C78.4748 253.206 78.9466 253.343 79.4283 253.343C79.91 253.343 80.3818 253.206 80.7889 252.949C81.196 252.691 81.5216 252.323 81.728 251.888C82.1423 252.284 82.6541 252.564 83.2115 252.699C83.7688 252.833 84.3519 252.818 84.9015 252.655V254.908L73.9551 255.338C73.9551 254.586 73.8785 253.804 73.8172 253.099C74.4299 253.214 75.0623 253.159 75.646 252.94C76.2296 252.721 76.7423 252.347 77.1287 251.857V251.888ZM69.1412 265.686V260.519C69.8285 260.571 70.5189 260.473 71.1646 260.232C71.8104 259.991 72.3963 259.613 72.882 259.124C73.4445 259.629 74.1733 259.907 74.9287 259.907C75.6841 259.907 76.4129 259.629 76.9753 259.124C78.7537 261.071 81.4213 260.167 82.8931 258.005C83.184 258.418 83.5641 258.759 84.0052 259.004C84.4463 259.25 84.937 259.392 85.4408 259.422C85.9447 259.451 86.4487 259.367 86.9153 259.175C87.382 258.982 87.7993 258.688 88.1363 258.312C88.461 258.398 88.7988 258.424 89.1328 258.388C89.1328 260.014 89.1328 264.122 89.2401 265.839C84.5335 265.809 72.2227 265.717 69.1412 265.717V265.686Z" fill="black"/>
<path d="M276.555 93.0434C274.132 91.3264 275.849 91.5103 272.323 79.9048C271.127 75.9647 269.794 71.2274 266.191 69.7097C266.191 58.2727 266.191 10.624 266.268 8.9989C266.331 8.89612 266.365 8.77833 266.367 8.65778C266.369 8.53723 266.339 8.41833 266.279 8.31345C266.22 8.20858 266.133 8.12156 266.029 8.06146C265.924 8.00136 265.806 7.97037 265.685 7.97172C236.709 7.97172 56.5855 8.78426 40.6106 8.96824C40.514 8.97023 40.4193 8.99501 40.3341 9.04055C40.2489 9.08609 40.1757 9.15111 40.1204 9.23031C40.0651 9.30951 40.0293 9.40065 40.0159 9.49631C40.0025 9.59197 40.0119 9.68944 40.0433 9.78078C39.6601 29.941 39.1081 140.018 38.9702 181.994C30.8351 189.14 24.447 198.056 20.297 208.057C12.8155 226.346 12.3709 240.252 18.9939 249.19C23.3785 255.169 32.1325 261.884 39.0775 258.802C38.8628 288.023 38.8015 296.562 38.9702 299.031C39.0468 300.181 39.1848 300.012 39.3534 300.012C39.5221 300.012 255.628 299.613 265.21 299.506C265.33 299.506 265.447 299.473 265.55 299.411C265.653 299.349 265.736 299.26 265.792 299.153C265.869 299 266.206 230.639 266.467 212.503C268.337 212.451 270.17 211.969 271.824 211.095C273.478 210.22 274.908 208.976 276.003 207.459C279.757 202.76 282.852 197.572 285.201 192.036C288.666 182.914 291.165 176.337 292.621 166.142C295.841 143.682 291.012 119.152 281.307 98.8079C279.575 95.1438 279.82 95.3584 276.555 93.0434ZM34.4169 248.53C31.5346 247.197 28.913 241.187 29.9709 236.005C30.8049 232.601 32.6937 229.548 35.3674 227.282C36.5886 226.071 37.9292 224.987 39.3688 224.047V229.336C38.221 230.124 37.189 231.068 36.3026 232.142C36.2336 232.25 36.2074 232.381 36.2289 232.508C36.2504 232.635 36.3182 232.749 36.4191 232.829C36.52 232.909 36.647 232.949 36.7755 232.941C36.904 232.933 37.025 232.877 37.1151 232.786C38.6217 231.299 40.3554 230.062 42.251 229.121C43.5848 228.523 43.8607 228.799 43.5388 230.041C43.2616 231.535 42.5278 232.907 41.4384 233.966C40.351 234.841 39.1492 235.563 37.8663 236.112C37.1721 236.41 36.5138 236.786 35.904 237.231C35.823 237.313 35.774 237.42 35.7661 237.535C35.7582 237.649 35.7919 237.762 35.8609 237.854C35.93 237.945 36.0298 238.009 36.142 238.032C36.2541 238.056 36.371 238.038 36.4712 237.983C37.6977 237.17 41.5458 235.974 43.6614 234.487C45.1945 233.429 45.3325 234.227 44.8113 235.806C43.7381 238.979 40.0127 240.62 37.5444 242.613C37.4586 242.699 37.4058 242.813 37.395 242.934C37.3842 243.055 37.4162 243.176 37.4853 243.276C37.5545 243.376 37.6565 243.449 37.7737 243.482C37.8909 243.515 38.0159 243.506 38.127 243.456C38.8168 243.073 39.5067 242.597 40.4879 241.923C41.4691 241.248 44.244 239.853 45.2559 240.39C45.3702 240.442 45.467 240.527 45.5349 240.633C45.6028 240.739 45.639 240.862 45.6391 240.988C45.7925 242.091 44.8726 243.165 43.9374 244.36C39.6447 249.849 36.1033 249.343 34.4169 248.53ZM264.612 298.111C251.274 298.188 50.5451 298.693 40.1047 298.816C40.2273 294.447 40.1047 266.82 40.1813 249.374C42.265 247.79 44.1857 246.003 45.9151 244.038C46.3444 243.441 47.6782 241.371 46.6357 239.746C46.4029 239.397 46.0712 239.126 45.6833 238.968C45.2953 238.809 44.8688 238.771 44.4587 238.857C45.5163 237.757 46.1841 236.34 46.3597 234.825C46.3597 234.349 46.4977 233.291 45.5932 232.847C45.2764 232.743 44.9401 232.714 44.6103 232.762C44.2805 232.81 43.9663 232.933 43.6921 233.123C43.8301 232.908 43.9374 232.694 44.0601 232.464C44.612 231.375 45.3785 228.876 44.7653 227.956C43.9221 226.714 41.7757 227.742 40.4879 228.508C40.5799 85.3166 41.3158 34.0651 41.2391 10.1641C56.0642 10.1641 255.735 9.35151 265.072 9.29019C264.949 17.7989 264.75 76.348 264.75 76.348C262.204 76.7666 259.766 77.6835 257.575 79.0462C256.976 79.3355 256.475 79.7939 256.134 80.3647C256.018 80.5648 255.946 80.7874 255.923 81.0176C255.9 81.2477 255.926 81.4802 256 81.6993C256.074 81.9184 256.194 82.1193 256.352 82.2883C256.51 82.4574 256.702 82.5908 256.916 82.6797C256.287 83.0579 255.761 83.5842 255.383 84.2128C255.229 84.8082 255.301 85.4392 255.584 85.9851C255.867 86.531 256.341 86.9534 256.916 87.1717C255.291 88.6281 255.612 91.1884 258.893 91.6637C260.891 91.9439 262.922 91.8556 264.888 91.403C265.792 104.94 264.458 289.449 264.612 298.111ZM266.451 94.6839C266.36 93.5647 266.252 92.3842 266.114 91.1271C267.097 90.829 268.051 90.4442 268.966 89.9772C269.61 89.6553 269.088 88.6894 268.445 89.0114C266.005 90.1453 263.328 90.6713 260.641 90.5445C259.645 90.5445 257.973 90.5445 257.575 89.5786C257.176 88.6128 258.142 87.8922 258.801 87.7083C261.694 88.1411 264.649 87.6019 267.203 86.1751C267.325 86.1101 267.416 85.9992 267.456 85.867C267.496 85.7347 267.482 85.5919 267.417 85.4699C267.352 85.3479 267.241 85.2568 267.109 85.2166C266.977 85.1763 266.834 85.1902 266.712 85.2553C264.406 86.3627 261.826 86.7678 259.292 86.4204C257.483 86.1751 256.64 85.6692 256.67 84.8873C256.67 84.5194 258.203 83.3542 258.817 83.0936C261.532 83.479 264.288 83.479 267.003 83.0936C267.693 83.0016 267.601 81.9438 266.911 82.0358C264.857 82.2964 258.265 82.1278 257.636 81.5759C257.57 81.5327 257.515 81.4737 257.477 81.404C257.44 81.3344 257.42 81.2565 257.42 81.1772C257.42 81.098 257.44 81.0201 257.477 80.9505C257.515 80.8808 257.57 80.8218 257.636 80.7786C259.261 79.0922 265.056 77.3905 266.605 77.1452C266.727 77.131 266.838 77.0689 266.914 76.9725C266.991 76.8762 267.025 76.7536 267.011 76.6316C266.997 76.5096 266.935 76.3983 266.838 76.3221C266.742 76.2459 266.619 76.2111 266.497 76.2253H266.237V70.9975C268.996 72.6379 270.07 76.394 270.928 79.4295C274.792 92.9055 272.584 92.0163 276.524 94.6685C277.153 95.0666 277.739 95.529 278.272 96.0483C274.362 98.4706 269.932 97.5814 266.451 94.7299V94.6839Z" fill="black"/>
<path d="M165.421 168.702C165.066 168.702 164.719 168.807 164.424 169.004C164.129 169.202 163.899 169.482 163.763 169.809C163.628 170.137 163.592 170.498 163.661 170.846C163.731 171.194 163.901 171.513 164.152 171.764C164.403 172.015 164.723 172.186 165.071 172.255C165.419 172.324 165.779 172.289 166.107 172.153C166.435 172.017 166.715 171.787 166.912 171.492C167.109 171.197 167.214 170.851 167.214 170.496C167.214 170.02 167.025 169.564 166.689 169.228C166.353 168.891 165.896 168.702 165.421 168.702ZM160.131 177.471C159.737 177.471 159.352 177.588 159.024 177.807C158.696 178.026 158.441 178.338 158.29 178.702C158.139 179.066 158.1 179.467 158.177 179.853C158.254 180.24 158.443 180.595 158.722 180.874C159.001 181.153 159.356 181.342 159.743 181.419C160.129 181.496 160.53 181.457 160.894 181.306C161.258 181.155 161.57 180.9 161.789 180.572C162.008 180.244 162.124 179.859 162.124 179.465C162.124 178.936 161.914 178.429 161.541 178.055C161.167 177.681 160.66 177.471 160.131 177.471ZM155.379 185.168C155.076 185.168 154.779 185.258 154.527 185.426C154.275 185.594 154.078 185.834 153.962 186.114C153.846 186.394 153.816 186.702 153.875 187C153.934 187.297 154.08 187.57 154.295 187.785C154.509 187.999 154.782 188.145 155.08 188.204C155.377 188.264 155.685 188.233 155.965 188.117C156.246 188.001 156.485 187.805 156.654 187.552C156.822 187.3 156.912 187.004 156.912 186.701C156.912 186.294 156.75 185.904 156.463 185.617C156.175 185.329 155.785 185.168 155.379 185.168Z" fill="black"/>
</svg>
