<svg width="306" height="291" viewBox="0 0 306 291" fill="none" xmlns="http://www.w3.org/2000/svg">
<path d="M111.62 272.346C78.1234 274.053 22.7741 278.143 22.6563 280.709C22.54 283.23 32.0658 279.104 96.4054 275.274C100.636 275.022 104.932 274.799 109.268 274.597C109.908 273.956 110.673 273.227 111.62 272.346Z" fill="#3C0F34"/>
<path d="M184.954 271.033C185.383 271.555 185.826 272.103 186.305 272.713C186.405 272.84 186.487 272.953 186.585 273.079C236.752 273.134 277.811 274.77 278.769 274.32C284.149 271.792 231.38 270.983 184.954 271.035V271.033Z" fill="#3C0F34"/>
<path d="M252.475 75.7088C252.198 75.6843 251.841 75.6476 251.44 75.6048C251.827 80.6155 252.143 86.4112 252.426 92.1334C252.101 111.864 254.814 199.295 248.763 200.178C232.335 202.577 173.624 205.054 166.305 205.453C133.508 207.242 71.3851 207.404 38.2652 204.563C28.0172 203.683 29.0898 204.283 28.8495 197.887C24.6589 86.4433 30.2893 65.8709 30.3183 64.2981C30.352 62.4514 30.785 58.6983 31.4582 56.9357C31.7229 56.2426 32.1283 55.6918 33.0035 55.574C35.2633 55.2711 32.953 54.6499 51.541 53.1949C93.0575 49.9405 157.535 46.1798 208.031 49.3377C207.021 45.0094 206.919 40.4821 207.716 36.0543C144.897 32.7235 40.0155 35.9686 23.2482 45.1914C20.0735 46.9372 19.3788 49.379 18.3966 52.0871C10.2356 74.6072 13.4853 206.597 18.5572 228.781C19.7017 233.789 20.3412 236.491 23.2329 238.6C26.729 241.152 36.8132 242.458 38.7242 242.536C40.0629 242.589 44.76 243.594 50.4118 244.324C54.9651 244.912 62.4208 245.283 62.632 245.311C76.7691 247.061 93.5685 247.135 119.946 247.494C120.728 247.505 120.648 247.412 120.373 251.068C119.329 264.9 120.255 265.126 118.579 265.975C107.337 276.234 108.608 274.923 103.315 281.795C101.785 283.783 99.8415 286.671 99.9701 288.968C100.042 290.247 100.174 294.39 100.701 295.477C102.738 299.664 139.553 298.143 144.768 297.79C156.046 297.025 182.428 296.903 192.277 294.663C193.208 294.45 193.765 293.918 194.077 293.038C194.648 291.434 195.145 286.549 194.356 285.042C192.837 282.137 190.718 278.35 186.302 272.713C175.385 258.783 177.726 268.922 176.21 257.761C174.634 246.152 174.737 246.758 175.275 246.769C174.93 246.78 229.523 244.237 251.182 239.021C254.848 238.138 258.328 237.231 260.34 233.411C267.944 218.969 268.899 116.939 266.082 74.0931C262.606 75.0341 261.948 75.0555 252.471 75.7088H252.475ZM177.301 273.527C177.743 274.767 178.043 274.799 178.525 274.757C179.826 274.647 178.744 272.014 177.557 266.186C182.84 270.801 188.589 279.38 192.078 284.364C193.354 286.188 189.954 285.954 168.721 287.28C168.427 287.299 112.664 289.884 104.077 288.731C100.308 288.224 100.148 288.908 109.297 277.331C111.925 274.003 117.972 268.487 119.219 267.678C119.8 267.302 119.247 268.293 118.933 275.053C118.89 275.989 119.706 276.769 119.952 276.137C121.901 271.134 122.686 252.849 122.435 252.849C122.435 247.459 122.242 247.5 122.899 247.499C145.754 247.442 124.424 248.337 162.679 247.269C172.22 247.003 168.932 247.197 172.22 246.94C172.668 246.905 172.523 247.193 172.697 248.995C173.701 259.366 176.299 270.707 177.303 273.526L177.301 273.527ZM258.94 231.432C257.218 235.843 254.341 236.446 241.538 239.11C233.59 240.764 184.347 244.199 184.31 244.202C179.37 244.638 140.719 245.657 140.717 245.602C71.893 245.602 58.1965 242.555 44.0271 240.894C27.9927 239.014 23.3676 239.11 21.504 231.936C20.6181 228.524 19.1631 222.75 19.082 219.226C19.0392 217.294 18.6628 216.564 19.2442 216.798C26.0864 219.543 125.412 220.308 170.751 218.727C194.275 217.907 188.713 217.52 208.56 216.691C250.1 214.954 256.91 212.379 262.155 212.37C262.285 217.523 260.516 227.392 258.937 231.434L258.94 231.432Z" fill="#3C0F34"/>
<path d="M180.411 94.8265C179.754 87.9706 177.362 75.6495 168.753 69.274C169.282 68.1617 168.831 66.8137 167.731 66.2476C163.837 64.2464 150.107 57.9673 137.004 61.1741C124.622 64.2035 116.396 71.6485 113.434 74.7085C112.513 75.6617 112.588 77.1871 113.587 78.047C113.726 78.1663 113.873 78.2918 114.023 78.4203C110.102 85.1646 109.374 93.705 111.701 105.246C111.857 106.018 111.906 106.271 112.201 106.425C112.538 106.603 112.917 106.402 113.416 106.185C114.107 105.885 114.078 105.607 113.889 104.846C112.074 97.53 112.118 86.3809 115.771 79.8784C116.886 80.778 118.182 80.5715 118.964 79.7545C121.502 77.1015 128.612 70.7259 139.773 68.8027C150.985 66.8719 160.878 70.7657 164.61 72.5283C165.748 73.0638 167.078 72.6063 167.641 71.4848L167.671 71.4236C173.972 76.6057 177.792 86.9133 177.873 94.2344C177.889 95.4752 178.586 95.3727 180.061 95.2427C180.271 95.2243 180.428 95.0376 180.408 94.825L180.411 94.8265ZM165.266 71.1467C161.403 69.3214 151.162 65.2914 139.516 67.2972C127.906 69.2969 120.504 75.9371 117.86 78.6988C117.588 78.9833 117.137 79.0139 116.831 78.7661C116.138 78.2092 115.273 77.4763 114.586 76.8857C114.251 76.5981 114.227 76.0886 114.536 75.7704C122.07 67.9872 133.941 61.803 144.773 61.803C154.805 61.803 163.998 66.0472 167.033 67.6063C167.405 67.7975 167.555 68.2565 167.367 68.6283L166.279 70.7963C166.091 71.1696 165.649 71.3226 165.268 71.1436L165.266 71.1467Z" fill="#3C0F34"/>
<path d="M74.0428 143.408C73.8148 144.54 72.9779 144.372 72.7239 143.572C71.5749 139.955 72.0859 138.624 68.7735 136.158C68.417 135.893 66.734 134.612 66.5305 134.164C66.275 133.602 66.8931 133.043 67.3536 133.257C71.8962 135.379 75.0296 138.491 74.0428 143.408Z" fill="#3C0F34"/>
<path d="M170.223 103.036C169.848 110.965 169.899 111.757 162.607 113.445C153.863 115.467 154.415 114.269 152.722 109.976C151.219 106.165 151.808 105.074 150.931 104.74C150.306 104.503 150.42 103.904 148.626 103.752C144.934 103.441 143.953 104.425 141.67 106.552C141.406 106.798 141.519 108.492 141.542 108.714C141.854 111.743 141.615 113.067 141.504 114.846C141.321 117.729 138.15 118.312 135.079 118.641C129.443 119.245 127.013 120.807 124.626 114.147C123.772 111.766 121.355 105.481 123.538 104.206C126.669 102.38 135.844 100.351 136.216 100.291C142.712 99.2646 140.436 104.081 141.686 103.056C146.592 99.0351 149.545 101.667 150.134 101.353C150.439 101.191 149.397 98.4414 152.259 97.3551C153.945 96.7156 154.954 96.4968 162.074 95.4564C170.094 94.2844 169.874 95.5758 170.223 103.036ZM167.643 102.932C167.386 96.6085 168.191 97.3735 163.268 97.8386C163.231 97.8417 154.654 98.9861 153.489 99.4512C152.685 99.7725 152.878 100.303 153.301 101.985C154.534 106.873 155.602 112.117 157.422 111.782C164.92 110.401 164.345 110.33 165.915 109.832C167.278 109.399 167.154 108.269 167.643 102.932ZM138.906 110.125C138.852 108.051 139.167 108.741 138.362 103.135C138.235 102.248 137.507 101.993 125.829 105.574C124.929 105.85 124.563 105.946 124.969 107.325C127.729 116.702 128.241 117.26 131.753 116.535C139.415 114.95 139.085 117.062 138.906 110.125Z" fill="#3C0F34"/>
<path d="M156.563 137.873C155.087 140.723 151.853 141.349 150.722 140.647C149.92 140.148 150.581 139.639 151.492 139.484C155.479 138.808 156.487 133.956 156.166 129.925C155.095 130.821 152.238 134.415 147.097 133.542C146.305 133.407 145.488 132.027 147.876 132.096C150.561 132.174 153.442 130.735 154.721 128.277C155.422 126.929 155.454 126.168 156.493 126.018C159.115 125.639 158.531 134.072 156.563 137.873Z" fill="#3C0F34"/>
<path d="M146.306 107.781C147.501 108.012 146.115 109.999 145.95 115.801C145.913 117.112 146.107 118.425 146.501 119.67C148.023 124.494 153.73 119.112 155.48 119.398C158.76 119.933 146.551 129.175 144.144 120.177C143.288 116.974 144.876 107.505 146.308 107.782L146.306 107.781Z" fill="#3C0F34"/>
<path d="M159.381 88.4307C159.94 89.4895 158.584 90.0403 157.766 89.8154C155.634 89.2279 153.676 88.7627 151.749 89.0565C150.912 89.1835 149.972 88.316 150.644 87.45C151.947 85.7685 158.388 86.5488 159.381 88.4307Z" fill="#3C0F34"/>
<path d="M132.428 89.8748C133.964 89.7891 134.16 90.8984 133.245 91.6006C131.684 92.7986 130.702 92.615 128.465 95.0661C127.902 95.6842 127.441 96.2029 126.709 95.7653C124.686 94.5566 129.017 90.0645 132.428 89.8748Z" fill="#3C0F34"/>
<path d="M160.685 105.066C160.668 103.175 158.742 102.487 157.735 103.977C157.085 104.932 157.644 106.96 159.108 106.96C160.015 106.96 160.811 106.107 160.685 105.066Z" fill="#3C0F34"/>
<path d="M132.917 108.349C132.601 109.083 132.856 110.433 133.405 110.925C134.025 111.482 135.073 111.453 135.492 110.651C136.875 108.012 133.782 106.326 132.917 108.349Z" fill="#3C0F34"/>
<path d="M237.77 186.547L236.63 188.037C243.261 193.612 245.891 197.13 247.008 196.513C248.351 195.773 242.773 190.719 237.77 186.547Z" fill="#3C0F34"/>
<path d="M217.629 172.538C196.319 161.023 176.118 158.857 175.547 153.673C175.543 153.635 174.974 150.737 174.864 148.791C174.611 144.305 175.15 144.392 176.153 135.79C176.185 135.518 177.139 127.435 177.315 127.226C177.325 127.213 179.928 126.633 180.476 126.491C181.533 126.217 182.552 125.795 183.672 125.775C183.959 125.769 184.253 125.602 184.525 125.472C190.73 122.516 190.003 120.114 189.754 112.369C189.754 112.333 189.056 105.622 188.898 104.932C188.294 102.3 187.791 99.7697 186.216 97.8281C184.152 95.2807 182.812 94.7743 181.473 94.4881C180.356 94.2495 177.11 93.7782 176.008 94.0766C174.002 94.6197 176.242 88.8302 170.098 80.6554C163.542 71.9329 154.406 71.5825 148.072 70.7731C147.689 70.7242 147.289 70.8634 146.894 70.8802C146.195 70.9124 145.824 70.4411 145.746 70.0326C144.446 63.1568 145.114 63.088 144.879 60.1641C144.781 58.9478 143.584 59.0763 142.699 59.9163C139.819 62.6473 140.192 62.4652 138.532 65.1733C137.643 66.6238 137.677 66.1036 137.775 58.9998C137.795 57.5692 136.666 57.277 135.924 57.9043C135.013 58.6739 134.037 59.3716 133.173 60.1886C131.347 61.9114 128.991 64.7602 128.612 67.834C128.39 69.6364 127.943 72.1088 128.832 74.7205C129.293 76.0731 129.017 74.9485 125.055 77.8647C122.542 79.7145 119.622 83.3559 119.225 83.9281C110.734 96.1711 117.291 103.064 115.64 103.63C112.923 104.563 111.808 104.963 110.296 105.734C105.585 108.134 105.2 114.334 106.34 119.579C107.222 123.641 108.43 129.277 110.177 132.682C113.691 139.53 124.164 134.244 125.104 136.141C127.72 141.422 129.64 144.452 134.351 147.995C135.03 148.506 135.625 149.143 136.456 149.444C136.687 149.528 136.695 149.72 136.608 149.974C134.417 156.369 135.664 155.945 134.059 156.224C119.439 158.765 90.2532 168.003 80.1904 174.298C73.8822 178.245 73.9923 178.335 74.0443 177.872C74.3641 175.075 76.4082 163.335 78.0866 158.318C78.16 158.098 80.2883 151.848 80.9431 151.24C88.4508 144.271 87.8281 145.954 92.3952 134.234C94.5815 128.624 95.1782 127.885 95.0574 126.552C94.8891 124.695 92.8159 125.051 91.546 126.415C88.6207 129.554 88.1555 131.607 86.8734 133.655C86.5628 134.15 86.2216 134.117 85.1399 134.274C84.505 134.368 84.837 133.753 84.6779 132.743C83.3942 124.58 87.0616 121.809 89.274 111.092C89.5999 109.517 87.4074 107.259 85.3832 110.232C80.2531 117.762 78.8501 126.008 77.7959 124.862C77.6812 124.736 77.5618 124.559 77.5572 124.401C77.5052 122.386 78.131 116.866 78.1386 116.828C78.3957 115.645 78.8072 107.201 77.9107 105.686C76.8259 103.85 74.9547 104.566 74.2953 106.444C71.6744 113.911 72.5587 112.239 70.9247 121.99C70.8635 122.356 70.7472 122.444 70.2882 122.498C69.9807 122.533 69.7297 122.49 69.6471 122.144C67.45 113.059 68.7261 109.855 66.3209 108.067C65.3279 107.329 63.8974 107.59 63.5179 108.82C62.1945 113.107 63.1339 115.979 63.7123 122.239C63.9678 125.012 63.9586 124.987 63.6434 125.139C62.9258 125.483 62.9411 124.987 57.2235 115.969C55.8419 113.791 54.214 114.046 53.6709 115.259C52.6136 117.614 56.8885 126.315 58.3006 128.261C59.1008 129.364 58.9769 130.035 59.312 133.675C60.3203 144.668 64.4926 147.61 64.0703 148.56C63.7383 149.307 63.6174 150.134 63.1217 150.821C58.394 157.368 60.2851 156.016 50.5313 165.223C46.3774 169.144 37.1163 177.041 33.1046 184.149C32.5967 185.047 33.2852 185.612 34.1251 184.972C34.22 184.9 35.8907 183.24 36.5762 182.475C52.5907 164.608 58.1859 164.475 65.66 149.238C66.3117 147.908 65.7303 146.728 64.8842 145.5C61.9375 141.222 61.7539 136.559 61.4892 134.727C60.4916 127.83 58.4108 126.002 55.031 117.201C54.5996 116.076 55.2774 115.542 55.5543 115.867C56.6834 117.199 55.7119 115.77 59.1743 121.479C62.7346 127.348 62.4775 127.38 64.8521 126.28C66.9819 125.293 63.4277 113.95 64.7894 109.328C64.9485 108.791 65.0923 108.752 65.5559 109.026C67.4577 110.148 67.0385 119.355 68.4262 123.255C68.671 123.944 69.3916 124.127 70.0985 124.068C70.5743 124.028 71.0364 123.821 71.5015 123.677C71.8442 123.572 72.0844 123.344 72.1885 122.997C73.2074 119.591 74.4574 106.012 76.2368 106.664C78.0208 107.317 76.7387 113.87 76.0639 121.855C75.7197 125.934 75.5896 126.055 78.5563 126.572C79.5493 126.745 79.892 124.089 85.8713 112.149C86.5429 110.807 87.5359 110.328 87.5252 111.831C87.5053 114.626 82.4211 123.742 82.545 130.241C82.5481 130.437 82.5282 130.246 83.2259 134.293C83.4018 135.309 82.8571 134.198 78.6894 137.705C76.6821 139.394 76.7632 140.881 77.6077 140.354C78.5165 139.79 79.4483 139.253 80.299 138.61C85.6494 134.57 87.0998 137.151 88.3973 134.545C90.3878 130.547 90.9554 129.831 93.0684 127.242C93.1418 127.152 93.3315 127.155 93.4662 127.115C93.7247 128.007 92.028 131.239 90.8958 134.34C85.8131 148.257 80.2057 147.362 78.4859 152.342C76.6698 157.602 75.5667 160.208 72.7683 174.567C72.7591 174.61 67.447 203.216 67.4302 203.814C67.398 204.905 68.2242 205.211 68.6985 204.093C69.387 202.466 70.888 195.673 71.1756 194.37C72.828 186.874 73.0468 180.906 73.9755 180.145C83.1371 172.642 110.359 164.424 121.82 160.898C122.874 160.573 122.233 161.184 124.095 163.93C134.213 178.854 143.47 183.112 153.398 187.887C154.27 188.306 155.737 188.927 157.213 188.005C160.111 186.193 166.579 180.257 171.565 176.201C184.19 165.933 183.967 161.054 185.229 161.473C196.675 165.267 206.343 168.812 216.001 174.059L217.627 172.536L217.629 172.538ZM182.071 96.647C188.728 99.8538 187.393 116.269 187.985 116.33C187.567 120.064 187.839 122.143 184.723 123.171C184.198 123.344 185.271 122.917 183.898 110.825C183.289 105.458 183.477 102.98 182.357 99.0843C181.871 97.3936 180.673 95.9738 182.071 96.647ZM177.296 96.1926C180.245 96.3134 181.107 99.0598 182.54 118.287C182.61 119.24 182.497 120.22 182.587 120.22C182.587 123.834 182.604 123.635 177.754 124.833C177.484 124.898 177.416 124.785 177.425 124.568C178.765 93.9878 171.566 95.9585 177.296 96.1926ZM111.269 130.073C109.081 124.294 105.21 109.877 110.624 107.828C110.636 108.139 110.673 107.837 110.469 108.98C109.605 113.838 116.003 134.166 116.005 134.202C113.284 134.111 112.371 132.984 111.269 130.073ZM120.547 133.887C117.247 134.363 117.031 131.07 115.143 123.257C111.303 107.357 111.122 106.909 116.921 105.519C117.879 105.29 117.568 105.261 117.897 107.481C120.474 124.856 122.236 127.369 123.8 133.079C123.974 133.717 123.745 133.425 120.547 133.887ZM182.405 161.069C173.207 172.553 167.605 177.644 155.783 186.403C155.468 186.637 155.209 186.674 154.86 186.508C139.121 179.109 134.008 173.987 126.109 163.404C123.645 160.104 123.751 160.371 124.565 160.168C131.728 158.372 135.319 158.291 135.841 157.487C136.679 156.201 137.804 153.627 138.219 152.544C138.541 151.699 138.696 150.789 138.895 149.902C139.019 149.346 138.832 148.909 138.353 148.549C127.265 140.243 124.75 131.159 120.255 111.34C117.897 100.94 119.984 94.5677 124.251 89.3244C126.705 86.3103 128.466 84.6242 131.62 82.6352C133.71 81.3164 133.878 80.9415 134.449 81.1006C138.347 82.1869 143.346 80.4626 146.862 78.4583C148.213 77.6887 153.099 78.4231 154.597 78.8393C166.774 82.2206 171.88 90.6188 174.256 101.567C177.024 114.318 175.503 122.17 174.707 129.181C173.465 140.114 171.883 141.675 172.487 149.675C173.064 157.313 174.642 157.639 178.17 158.996C182.5 160.662 182.962 160.373 182.403 161.068L182.405 161.069Z" fill="#3C0F34"/>
<path d="M91.9635 175.652C80.0463 178.915 77.0307 194.042 86.8028 201.258C94.7925 207.157 106.74 203.51 109.895 194.325C113.914 182.624 103.272 172.555 91.9635 175.652ZM97.4439 202.194C80.054 203.577 77.173 180.688 93.1033 176.99C98.6955 175.691 105.588 178.253 108.439 185.092C111.681 192.869 105.561 201.548 97.4439 202.194Z" fill="#3C0F34"/>
<path d="M185.472 172.714C178.352 173.736 172.523 180.321 173.081 188.298C174.068 202.404 193.256 206.432 200.67 194.392C206.851 184.357 199.267 170.734 185.472 172.714ZM191.022 199.333C181.724 201.596 173.62 193.753 174.671 185.577C175.667 177.819 183.3 172.74 190.861 174.411C204.78 177.486 204.708 196.002 191.022 199.333Z" fill="#3C0F34"/>
<path d="M236.544 177.671C228.218 164.181 206.221 172.18 209.162 188.243C212.168 204.665 237.932 203.952 238.681 184.926C238.454 182.806 238.392 180.667 236.544 177.671ZM225.803 197.957C217.818 199.327 210.266 192.598 210.416 185.907C210.731 171.794 228.845 167.778 235.375 178.895C240.273 187.234 234.768 196.421 225.803 197.957Z" fill="#3C0F34"/>
<path d="M84.482 190.32C84.5998 192.459 84.7069 193.944 86.7342 194.663C88.867 195.421 91.9714 194.715 92.6094 192.633C93.125 190.952 92.1412 190.543 92.9812 190.184C93.6482 189.897 94.479 189.438 96.621 189.389C99.2572 189.689 99.5785 189.546 99.5831 190.543C99.5908 192.137 99.3077 192.953 100.49 193.69C101.572 194.365 103.549 194.578 105.601 193.655C107.668 192.726 108.772 188.341 105.472 185.884C98.2153 180.48 84.1592 184.471 84.4835 190.318L84.482 190.32ZM106.02 190.442C105.763 192.251 103.824 192.289 102.118 192.199C100.083 192.091 104.109 187.742 96.5828 187.619C95.0161 187.593 92.0922 188.091 91.1895 189.536C90.8453 190.087 90.9386 191.149 90.9662 191.773C91.0289 193.237 88.613 193.296 87.2253 192.827C86.09 192.445 85.2883 190.558 86.8061 188.016C86.9239 187.818 88.8808 186.282 90.1032 185.945C92.8664 185.187 95.3175 184.731 99.7025 185.096C102.873 185.361 106.464 187.315 106.02 190.442Z" fill="#3C0F34"/>
<path d="M194.108 184.703C193.439 184.455 192.914 185.393 192.942 185.896C193.109 188.949 193.185 187.988 192.83 189.778C192.283 192.544 188.155 191.668 187.116 191.915C186.065 192.166 185.133 191.85 184.184 191.515C181.947 190.725 182.748 185.431 181.871 185.105C181.267 184.882 180.639 185.358 180.659 186.053C180.67 186.446 180.754 186.837 180.8 187.229C181.221 190.901 180.967 193.485 186.236 193.813C186.846 193.851 186.851 193.782 186.874 194.336C186.902 195.014 187.036 195.369 186.539 195.367C185.208 195.363 184.372 195.269 183.294 195.702C182.82 195.892 182.719 196.72 183.343 196.888C184.082 197.087 183.907 197.044 187.914 197.044C187.914 196.863 191.914 197.384 192.806 196.706C193.583 196.115 192.781 195.321 192 195.333C190.629 195.356 189.322 195.389 189.31 195.208C189.21 193.692 189.307 193.742 189.599 193.675C193.508 192.78 195.072 192.22 194.643 185.385C194.622 185.032 194.395 184.807 194.111 184.702L194.108 184.703Z" fill="#3C0F34"/>
<path d="M186.112 190.503C193.499 192.841 190.976 184.057 191.528 184.056C191.528 180.522 191.617 180.294 191.135 178.69C190.552 176.752 187.639 176.201 186.126 177C184.131 178.052 184.214 179.388 184.172 184.971C184.152 187.711 184.08 189.861 186.114 190.505L186.112 190.503ZM187.209 178.276C189.761 177.875 189.699 179.331 190.058 183.188C189.749 188.718 190.061 189.031 187.996 189.09C185.061 189.172 186.277 187.677 185.794 182.555C185.643 180.955 185.621 178.525 187.209 178.276Z" fill="#3C0F34"/>
<path d="M233.683 181.316C232.829 180.5 232.115 181.342 229.847 183.064C229.105 183.627 229.725 181.617 227.994 181.004C227.73 180.909 227.892 180.762 227.945 180.65C228.355 179.783 228.602 178.927 228.369 177.925C227.22 172.965 220.155 175.809 222.24 180.388C222.413 180.769 222.399 180.776 222.027 180.821C221.083 180.938 221.071 180.933 221.359 180.046C221.91 178.343 221.07 176.404 219.032 175.855C217.099 175.335 215.066 177.065 215.026 179.22C214.992 181.097 216.32 181.285 215.471 181.617C214.806 181.877 214.286 182.202 214.151 182.898C213.724 185.087 214.048 189.786 214.368 190.632C214.644 191.357 215.113 191.951 215.92 192.027C217.373 192.166 218.828 192.394 220.3 192.091C220.959 191.955 228.886 192.812 229.264 190.958C229.723 188.704 229.599 188.842 230.08 189.094C234.758 191.553 234.22 191.629 234.22 186.412C234.257 186.412 234.411 182.012 233.683 181.316ZM225.184 176.573C226.117 176.563 227.03 177.512 227.037 178.497C227.043 179.454 226.161 180.419 225.266 180.362C222.242 180.17 223.253 176.593 225.184 176.573ZM219.965 179.011C219.996 180.967 216.512 181.409 216.51 178.972C216.51 176.629 219.924 176.424 219.965 179.011ZM227.797 188.351C227.766 190.031 227.93 190.037 226.668 190.289C226.256 190.372 218.348 190.514 216.688 190.376C215.696 190.294 215.705 188.796 215.629 186.873C215.494 183.479 215.458 183.176 216.484 182.832C217.939 182.344 222.95 182.423 222.95 182.46C227.843 182.46 227.442 182.28 227.714 183.257C228.16 184.859 227.857 185.095 227.797 188.349V188.351ZM232.753 186.891C232.753 189.165 233.141 189.054 230.338 187.531C229.638 187.15 229.535 186.813 229.558 185.988C229.578 185.301 229.814 184.859 230.396 184.504C231.761 183.673 232.488 182.54 232.56 183.611C232.78 186.888 232.812 186.886 232.753 186.891Z" fill="#3C0F34"/>
<path d="M279.621 16.1949C268.891 8.15173 249.127 6.02962 236.071 8.81269C201.191 16.2515 197.275 57.5141 223.789 70.9536C226.613 72.3857 226.746 72.1868 226.561 72.6795C225.644 75.129 221.209 85.1735 219.376 87.4883C216.103 91.6224 232.865 88.795 243.053 76.7034C244.047 75.5222 249.822 76.3683 251.809 76.5397C262.178 75.8252 261.977 75.8711 266.479 74.6348C293.506 67.2143 302.261 33.1642 279.62 16.1934L279.621 16.1949ZM266.518 71.4891C259.917 73.2349 262.469 72.9809 254.659 73.8102C244.304 74.9102 244.231 73.0268 242.204 74.9408C237.458 79.4191 235.853 80.6554 229.431 84.0856C227.308 85.2209 223.473 86.6652 222.268 86.6774C222.663 85.6937 223.547 85.3861 227.049 77.0446C229.936 70.1687 229.089 71.509 224.754 68.6693C219.267 65.0738 214.736 61.8134 211.463 54.4403C205.123 40.1609 209.72 13.8311 244.15 11.0526C246.01 10.9027 247.875 10.8308 249.739 10.7237C249.753 11.1092 254.13 10.5217 259.402 11.6447C262.28 12.2567 260.859 11.6049 264.063 12.4832C268.047 13.5756 273.53 14.8501 279.075 19.5013C298.742 36.0023 290.218 65.2238 266.52 71.4907L266.518 71.4891Z" fill="#3C0F34"/>
<path d="M248.697 40.17C246.082 40.1592 244.474 42.673 244.496 44.5381C244.555 50.0293 252.796 50.3184 252.944 44.2596C253.004 41.8147 251.102 40.1791 248.699 40.17H248.697Z" fill="#3C0F34"/>
<path d="M232.412 39.9314C230.083 39.8075 228.11 42.2984 228.08 44.2965C228.048 46.4829 229.998 48.5484 232.189 48.4505C237.279 48.7963 238.581 40.2604 232.413 39.9314H232.412Z" fill="#3C0F34"/>
<path d="M264.471 39.7297C262.217 39.5246 260.31 42.0675 260.311 44.0963C260.314 46.3071 262.302 48.2334 264.476 48.2395C269.825 48.2518 270.579 39.6287 264.47 39.7312L264.471 39.7297Z" fill="#3C0F34"/>
</svg>
