<svg width="314" height="285" viewBox="0 0 314 285" fill="none" xmlns="http://www.w3.org/2000/svg">
<path fill-rule="evenodd" clip-rule="evenodd" d="M23.2111 235.906C19.0517 238.067 14.7691 240.587 10.2557 243.596C7.85984 245.195 7.85042 247.593 7.91479 247.851C8.25234 249.704 10.2729 250.883 11.62 251.555C19.8926 255.432 23.5636 256.207 39.4796 259.565V259.566C42.3392 260.169 45.5945 260.855 49.3424 261.659C61.973 264.521 137.752 280.688 163.012 285.74C167.568 286.65 172.132 287.578 176.704 288.508C197.477 292.729 218.403 296.983 239.466 299.885C240.058 299.967 240.655 300.071 241.237 300.171C243.316 300.532 245.186 300.856 245.807 300.006C264.29 292.26 281.428 280.662 296.555 267.722C297.162 267.19 297.807 266.677 298.457 266.16C300.692 264.385 302.979 262.567 303.963 259.807C304.383 258.635 305.579 254.187 304.436 253.884H304.434C298.575 252.314 292.198 250.752 285.428 249.207L285.309 250.779C291.43 252.183 297.245 253.605 302.671 255.038C277.581 278.658 254.581 289.038 246.754 292.571C245.128 293.306 244.156 293.745 243.958 293.945C177.806 282.947 111.267 268.407 46.8948 254.338L46.4379 254.239C44.4207 253.798 42.5152 253.39 40.6931 252.999H40.6873C29.8559 250.677 21.9737 248.989 11.1647 244.876C15.8833 241.733 20.3459 239.13 24.6811 236.914C24.1144 236.614 23.6095 236.278 23.2111 235.906ZM87.1715 218.786C89.3537 219.052 92.1707 219.401 95.5403 219.826C95.4773 219.286 95.4147 218.748 95.3522 218.208C91.9925 217.789 89.1847 217.448 87.0112 217.19C87.0637 217.723 87.1171 218.253 87.1715 218.786ZM170.236 228.532C170.217 229.06 170.196 229.582 170.174 230.097C175.859 230.947 181.665 231.832 187.542 232.749C187.521 232.223 187.502 231.699 187.482 231.173C181.649 230.261 175.884 229.38 170.236 228.532Z" fill="#3C0F34"/>
<path fill-rule="evenodd" clip-rule="evenodd" d="M84.389 93.2459C87.4682 144.488 92.2567 195.631 98.8188 246.548C96.6128 247.806 94.5002 249.016 92.6489 250.219C92.5547 250.613 92.1857 250.95 91.7807 250.95C69.3217 249.669 47.2866 244.05 32.9358 240.389C31.5687 240.04 30.2712 239.709 29.0498 239.401C21.9917 237.624 21.667 235.916 21.1651 233.272C21.1362 233.121 21.107 232.968 21.0757 232.809C20.0243 227.504 19.1891 221.417 18.2923 214.881C17.9167 212.145 17.5305 209.33 17.1131 206.46C10.6399 164.172 7.70718 113.873 8.16562 107.213C7.58943 106.966 7.88302 106.36 8.2033 106.33C13.6913 104.258 19.3718 102.597 24.8635 100.991L24.8846 100.985C30.7755 99.2615 35.3798 97.849 39.1113 96.7043C50.8594 93.1004 53.9544 92.151 61.3085 92.5192C61.3085 92.5192 72.4295 92.868 84.389 93.2459ZM31.0482 238.039C31.2853 238.103 31.5186 238.167 31.7498 238.23C34.1028 238.875 36.2661 239.469 40.3836 240.499C40.3679 240.342 31.028 124.828 30.9338 116.036C26.6963 115.568 22.8404 115.058 19.1368 114.476C20.2369 123.032 31.0088 237.618 31.0482 238.039ZM32.0076 116.152C32.3876 119.024 41.5721 232.823 41.952 240.879V240.88C46.1722 241.917 50.4002 242.884 54.6361 243.757C54.6203 243.595 44.9664 127.04 44.9052 117.327C40.4888 116.984 36.4115 116.625 32.0076 116.152ZM46.7963 125.72C46.8647 127.312 46.9327 128.896 47.0482 130.461H47.0498L56.3411 244.089C60.2315 244.871 64.1251 245.594 68.0172 246.237C67.8225 244.311 57.999 125.213 57.9268 118.197C53.9374 117.97 50.0218 117.711 46.1895 117.421C46.5586 120.182 46.678 122.964 46.7963 125.72ZM59.1184 118.261C59.4434 120.558 69.102 236.613 69.5573 246.487C73.9314 247.187 78.3038 247.803 82.6684 248.327C80.607 240.422 79.2646 231.892 78.577 222.271C77.8125 213.525 75.7337 191.644 73.6671 169.89C71.6374 148.527 69.6195 127.287 68.8697 118.73C65.5821 118.598 62.3353 118.437 59.1184 118.261ZM80.5599 224.758C81.2334 233.167 82.5679 241.147 84.4943 248.537C86.54 248.771 88.5842 248.997 90.6252 249.192C84.8666 220.216 83.8216 190.114 82.7956 160.564C82.2079 143.636 81.6265 126.889 80.169 110.639C70.868 110.241 62.8305 109.925 55.5109 109.637C38.677 108.975 25.6405 108.462 9.76545 107.456C10.0182 109.362 10.1705 111.373 10.1705 113.469C10.2537 114.636 11.348 134.503 11.348 134.503C13.455 168.929 16.837 192.422 21.4127 224.204C21.7909 226.832 22.1774 229.517 22.5719 232.267C23.0957 235.916 24.8348 236.376 29.338 237.568L29.3543 237.571C18.678 122.514 17.5632 113.576 18.3474 113.406C18.4565 113.382 18.6025 113.529 18.7647 113.582C21.8041 113.82 25.3249 114.164 29.2605 114.548C40.0796 115.604 54.0314 116.966 69.7206 117.275C70.0252 117.275 70.4569 117.558 70.4569 118.016C71.3848 126.974 80.5599 224.758 80.5599 224.758Z" fill="#3C0F34"/>
<path d="M48.3293 84.4365C47.3229 84.4365 47.4203 84.6376 47.4203 96.6293C47.4203 97.6137 49.2383 98.1757 49.2383 96.6293C49.2383 84.713 49.3357 84.4365 48.3293 84.4365Z" fill="#3C0F34"/>
<path d="M55.9736 97.6384C55.9736 96.3683 55.6376 97.629 55.6376 76.2519C55.6376 75.4386 54.3376 75.4323 54.3251 76.2409C53.2857 89.2672 54.1571 97.2585 54.1571 98.144C54.1571 102.576 56.7994 102.474 55.9752 97.6384H55.9736Z" fill="#3C0F34"/>
<path d="M179.412 40.8783C178.256 14.4818 178.377 15.1899 178.037 14.0893C177.467 12.232 176.517 13.3012 176.333 14.7566C176.069 16.873 176.785 19.0019 177.258 40.7197C177.288 42.0683 177.258 43.4625 177.787 44.6981C178.156 45.436 179.195 45.257 179.242 44.6306C179.545 43.5536 179.605 42.2144 179.412 40.8783Z" fill="#3C0F34"/>
<path d="M186.485 27.0795C186.485 25.9397 184.835 25.9397 184.835 27.0795C184.835 32.6247 185.345 38.2877 185.678 43.7513C185.678 45.1125 187.882 45.0277 187.664 43.7372C187.337 38.3615 187.16 32.631 186.485 27.081V27.0795Z" fill="#3C0F34"/>
<path fill-rule="evenodd" clip-rule="evenodd" d="M223.19 40.6383C223.237 40.2521 223.016 39.7748 222.479 39.6429C191.859 36.6631 162.795 35.4322 150.904 35.4322C141.483 34.7373 136.099 36.6109 130.613 38.5199C130.261 38.6425 129.908 38.7654 129.553 38.8877C120.615 41.9678 109.849 44.876 99.1278 47.7721C93.4214 49.3133 87.7278 50.8515 82.3294 52.4102C81.9636 52.5153 81.7155 52.8529 81.7218 53.2328C82.1159 75.8612 86.3376 145.455 94.5047 216.702C97.6865 244.463 99.04 251.234 99.3637 252.856C99.4402 253.238 99.4593 253.333 99.4314 253.351C99.4223 253.355 99.4078 253.352 99.3887 253.348C99.379 253.346 99.3681 253.343 99.356 253.341C98.8662 253.341 98.4235 254.076 99.2948 254.31C105.689 256.032 112.327 257.227 118.747 258.383C119.707 258.557 127.461 260.069 136.535 261.838H136.537L136.54 261.84C149.788 264.422 165.849 267.554 167.686 267.868C167.777 267.884 167.852 267.898 167.918 267.911C168.084 267.942 168.182 267.961 168.277 267.953C168.411 267.942 168.541 267.879 168.852 267.729C168.943 267.685 169.048 267.635 169.175 267.573C170.662 266.872 172.201 266.16 173.791 265.424H173.793C178.363 263.311 183.362 261 188.764 258.145C188.224 248.507 187.714 238.276 187.372 228.009C180.065 244.637 173.639 259.262 172.086 262.782C171.659 264.075 169.847 263.066 170.304 261.926C171.284 259.642 178.779 242.59 187.229 223.383C186.747 206.277 186.786 189.32 187.978 175.116C187.978 175.116 204.135 170.945 211.157 169.015C211.325 168.632 211.484 168.272 211.631 167.936C212.435 166.646 212.643 165.011 212.129 163.559C211.517 161.831 206.618 153.637 205.961 152.56L205.703 152.138C198.082 139.647 189.706 125.919 176.969 109.234C176.755 109.029 176.719 108.553 176.966 108.277C179.826 103.397 208.785 56.8451 210.132 54.7397C212.803 50.5651 215.44 46.9243 218.58 42.7386C218.7 42.5816 219.136 42.4843 219.324 42.679L219.326 42.6805C219.675 43.041 219.147 43.8526 215.844 48.9373C211.102 56.235 200.643 72.3349 178.845 108.536C193.06 127.239 206.089 148.1 210.369 156.127C211.093 157.485 211.743 158.595 212.299 159.546C214.406 163.146 215.186 164.479 213.625 168.316C214.721 167.987 215.932 167.571 217.192 167.122C217.616 161.655 218.057 156.171 218.5 150.671C220.248 128.949 222.014 106.983 222.86 84.8479C223.719 60.2162 223.369 48.6126 223.218 43.6478C223.168 41.9621 223.14 41.0418 223.19 40.6367V40.6383ZM161.668 264.67C159.655 264.268 108.137 254.768 104.882 254.211C104.481 250.102 104.008 245.717 103.523 241.378C104.787 241.552 107.097 241.719 110 241.927C114.46 242.248 120.32 242.67 125.936 243.372C138.504 244.68 153.868 247.215 156.893 247.914C158.699 248.33 160.748 248.768 162.749 248.995C162.669 250.878 162.439 253.902 162.205 256.962C161.99 259.792 161.771 262.654 161.668 264.67ZM149.402 245.03H149.4C144.28 244.194 134.496 242.601 115.883 241.05C112.122 240.632 108.015 240.422 103.411 240.389C103.116 237.762 102.317 230.826 101.795 226.295L101.795 226.293C101.599 224.591 101.442 223.229 101.366 222.563C103.792 222.933 106.01 223.069 109.088 223.254C116.676 223.712 129.487 224.486 163.514 229.898C163.308 235.762 163.062 241.626 162.817 247.363C159.63 246.587 156.058 246.033 151.934 245.432V245.43C151.252 245.331 150.419 245.196 149.402 245.03ZM99.7297 81.0972C121.988 81.6848 141.527 83.4401 153.109 84.4807C158.173 84.9355 161.715 85.2538 163.299 85.2781C163.326 86.0725 163.894 105.263 163.944 107.646C152.65 106.084 103.471 103.135 90.6049 103.446C90.3832 100.123 90.2423 98.1648 90.1251 96.5363C89.8764 93.0782 89.7343 91.1047 89.1526 80.7015C89.1514 80.6788 89.1471 80.6596 89.1437 80.6436C89.1391 80.6231 89.1357 80.6078 89.1413 80.5971C89.1575 80.5662 89.2495 80.5748 89.6095 80.6088C90.4837 80.6912 92.9388 80.9224 99.7281 81.0972H99.7297ZM89.0867 79.5445C88.5764 70.1778 87.9249 61.5366 87.6721 58.7278C89.6056 58.8844 89.9904 58.8933 92.9487 58.9619C96.1283 59.0357 102.281 59.1786 116.524 59.6479C129.052 60.0598 145.103 61.2174 155.099 61.9383C158.474 62.1818 161.161 62.3756 162.786 62.4739C162.808 69.5498 163.013 76.6792 163.246 83.672C152.745 82.27 102.22 79.1771 89.0882 79.5445H89.0867ZM147.839 107.809C152.355 108.092 155.186 108.418 157.448 108.678C159.821 108.952 161.569 109.153 163.979 109.156C164.126 116.45 164.239 123.779 164.337 131.037C158.399 130.224 107.209 126.67 92.2989 127.024C91.7337 119.559 91.1842 112.025 90.6786 104.522C93.3814 104.767 97.0368 104.894 101.95 105.064C111.611 105.4 126.136 105.906 147.841 107.809H147.839ZM102.207 128.587C123.594 129.142 156.045 131.858 163.02 132.442C163.808 132.508 164.271 132.547 164.356 132.552C164.39 135.133 164.555 150.89 164.569 156.079C152.733 154.498 107.548 151.433 94.3524 151.783C93.9647 147.431 92.6474 131.651 92.3758 128.087C95.6634 128.401 98.9839 128.5 102.206 128.587H102.207ZM158.517 157.154H158.518C161.82 157.455 163.971 157.653 164.575 157.667C164.59 165.071 164.557 172.502 164.472 179.909C161.85 179.51 159.12 179.284 156.474 179.066L156.432 179.061C153.25 178.801 151.8 178.649 150.589 178.521C148.803 178.335 147.537 178.201 142.007 177.853L141.826 177.84C139.184 177.65 108.454 175.447 96.4814 175.676L94.4639 153.002C97.6322 153.319 100.807 153.418 103.884 153.506L103.882 153.507C125.229 154.112 147.862 156.181 158.517 157.154ZM105.055 177.419C121.386 177.882 140.685 179.558 152.987 180.625H152.988C158.543 181.109 162.671 181.467 164.455 181.533C164.37 188.455 164.276 195.881 164.152 203.422C153.471 201.834 110.17 198.967 98.7861 199.266C98.0451 192.318 96.6399 177.487 96.5975 177.002C99.444 177.248 102.289 177.341 105.055 177.419ZM107.493 200.994C121.231 201.401 144.722 203.365 156.703 204.367C160.853 204.714 163.622 204.944 164.126 204.955C164.034 210.384 163.652 225.964 163.572 228.334C158.041 227.086 119.666 221.728 101.267 221.69C101.102 220.241 99.5272 206.155 98.9243 200.537C101.731 200.815 104.652 200.913 107.493 200.996V200.994ZM163.476 265.035C164.946 265.338 166.39 265.644 167.825 265.969C167.825 263.65 168.047 258.251 168.353 250.759C169.048 233.788 170.182 206.086 170.182 179.143C170.182 160.127 168.591 95.8023 167.938 69.3895V69.3858C167.77 62.5952 167.665 58.3113 167.664 57.9491C160.865 57.5778 157.253 57.2453 153.546 56.9043C147.017 56.3033 140.2 55.6759 115.172 54.7636C96.0134 54.0649 89.9456 54.0172 86.9077 53.9933C85.1662 53.9797 84.4205 53.9737 82.7753 53.8577C83.3948 61.6158 83.8936 69.8015 84.4756 79.3509C85.7872 100.874 87.5209 129.324 92.01 175.416C94.3871 198.614 96.644 217.402 98.323 231.38C99.5016 241.193 100.395 248.633 100.846 253.563C101.728 253.691 102.611 253.836 103.493 253.98C103.416 253.407 103.297 252.596 103.139 251.518C102.006 243.785 98.8659 222.354 94.6821 176.791C94.2834 176.617 94.3525 175.926 94.588 175.771C91.7368 144.475 87.3063 90.6993 86.8321 58.6619C86.8102 58.059 87.1132 57.7952 87.4036 57.7795C97.3529 57.2214 103.56 57.5001 129.213 58.6522L133.381 58.8393C143.156 59.2773 153.257 59.8331 163.37 60.8615C163.954 61.0043 164.282 61.6779 163.955 62.1818C163.991 63.2136 164.078 64.1476 164.162 65.076C164.194 65.4245 164.225 65.7723 164.255 66.1241C167.017 99.4505 167.064 197.082 165.597 226.398C165.177 234.825 164.96 240.841 164.787 245.604C164.491 253.848 164.329 258.331 163.476 265.035ZM168.31 56.2708C134.493 53.3019 93.31 52.3772 86.245 52.6582C115.156 45.4557 125.424 41.9094 131.228 39.9053C134.901 38.6364 136.785 37.9856 140.477 37.4167C143.104 37.0414 145.522 36.9284 147.685 37.0822C158.776 37.0822 189.267 38.2645 218.78 40.957C202.067 44.2273 183.568 49.6893 168.31 56.2708Z" fill="#3C0F34"/>
<path fill-rule="evenodd" clip-rule="evenodd" d="M234.302 162.504C228.389 162.429 225.439 163.46 220.448 165.206C217.376 166.28 213.529 167.626 207.742 169.15C205.552 169.751 203.266 170.337 200.933 170.934C196.522 172.063 191.95 173.232 187.574 174.636C187.362 174.703 187.215 174.896 187.202 175.119C186.218 194.944 185.519 212.729 187.023 245.336C187.248 250.493 188.034 264.366 188.825 269.707C188.596 269.778 188.274 270.024 188.246 270.327C188.212 270.688 188.543 270.94 189.232 271.073C190.611 271.338 198.527 272.891 208.144 274.777C224.45 277.973 245.648 282.129 248.173 282.605C248.606 282.686 248.985 282.501 249.172 282.121C255.037 279.636 261.619 276.582 267.189 273.488C274.045 269.88 278.733 267.321 284.928 262.667C285.542 262.053 285.845 256.819 286.14 251.699C286.26 249.663 286.376 247.645 286.511 245.944C288.243 224.077 288.64 213.688 288.845 205.847C288.979 205.659 288.957 205.536 288.856 205.364C289.189 192.221 289.004 185.211 288.767 176.251C288.693 173.432 288.613 170.419 288.542 166.96L288.546 166.962C288.896 166.491 288.64 165.767 287.987 165.607C273.91 164.235 261.276 163.52 251.955 163.123C252.018 163.635 252.081 164.147 252.147 164.658C262.176 165.118 270.721 165.757 281.768 166.718C271.841 168.835 256.693 173.359 248.479 177.339C231.639 175.641 197.143 174.493 191.312 174.84C208.085 170.803 213.837 168.932 221.692 166.376C222.017 166.271 222.343 166.164 222.676 166.056H222.675L222.722 166.04C226.253 164.892 229.22 163.928 234.412 164.057C234.445 164.057 234.478 164.059 234.511 164.059C234.437 163.541 234.368 163.022 234.302 162.504ZM285.412 192.199C286.701 191.275 286.801 191.204 287.159 191.072H287.161C287.139 187.874 287.101 184.682 287.043 181.489C286.34 181.884 285.712 182.197 284.599 182.646C284.195 182.806 284.112 182.847 284.027 182.889C283.941 182.932 283.853 182.976 283.443 183.14C283.421 191.991 282.912 193.713 283.08 193.782C283.124 193.799 283.211 193.71 283.361 193.603L283.423 193.561C283.823 193.281 284.233 192.995 284.641 192.75C284.938 192.538 285.192 192.356 285.412 192.199ZM285.818 180.712C286.198 180.5 286.585 180.286 287.018 180.112C286.972 177.718 286.924 175.339 286.869 172.961C286.263 173.216 285.187 173.629 283.204 174.342C283.354 176.807 283.429 179.35 283.443 181.939C283.823 181.693 284.225 181.464 284.676 181.283C285.079 181.121 285.446 180.917 285.818 180.712ZM286.839 171.734L286.743 167.616C285.42 167.858 284.073 168.123 282.696 168.414C282.868 169.965 283.007 171.565 283.12 173.194C283.474 173.042 283.803 172.901 284.109 172.767C285.316 172.243 286.167 171.874 286.839 171.734ZM264.116 252.662C265.944 251.632 265.949 251.629 267.032 251.115V251.114C277.644 228.044 282.691 203.21 282 176.842C279.845 177.625 257.216 184.588 257.216 184.588C256.987 184.677 252.048 186.582 249.886 187.182C249.988 189.285 250.137 193.619 250.137 193.619C251.103 205.186 252.016 231.87 250.643 255.948C250.511 257.477 250.407 258.973 250.316 260.491C251.357 259.816 252.428 259.182 253.494 258.591C259.618 255.199 262.542 253.55 264.116 252.662ZM249.239 178.787C249.515 181.165 249.696 183.572 249.829 185.976V185.974C251.8 185.213 280.325 175.831 281.967 175.433C281.898 173.18 281.815 170.912 281.716 168.623C266.27 171.962 257.186 175.631 252.299 177.606C250.993 178.134 249.986 178.54 249.239 178.787ZM201.004 271.858C201.937 272.023 202.844 272.185 203.186 272.246V262.088L198.632 261.483V271.436C199.051 271.511 200.04 271.687 201.004 271.858ZM204.756 272.532L209.311 273.357V262.903L204.756 262.298V272.532ZM217.208 265.181C217.417 267.595 217.712 271.882 217.503 274.854H217.505C234.517 277.97 237.007 278.414 239.491 278.896C240.127 279.02 240.761 279.146 241.64 279.32C241.047 275.695 241.177 270.247 241.422 269.024C241.43 268.982 241.446 268.952 241.463 268.917C241.513 268.818 241.584 268.679 241.585 268.103C241.469 267.815 241.177 267.792 240.81 267.792C232.346 266.628 229.647 266.374 224.576 265.895C222.624 265.711 220.323 265.495 217.208 265.181ZM243.446 279.686C244.842 279.972 246.242 280.265 247.635 280.586L247.639 280.59C247.489 274.775 247.744 271.064 248.025 266.991C248.121 265.616 248.219 264.198 248.305 262.644C248.148 262.625 204.197 256.744 197.415 255.247C196.993 255.729 196.12 255.502 196.12 254.761C196.088 253.779 196.01 251.95 195.905 249.512C195.517 240.566 194.773 223.419 194.773 209.797C194.773 196.511 194.839 194.415 194.887 192.854C194.917 191.926 194.941 191.188 194.941 188.409C194.787 186.433 194.903 184.09 195.277 181.652C195.288 181.462 195.419 181.363 195.55 181.363C195.567 181.363 195.584 181.373 195.6 181.384C195.609 181.39 195.619 181.395 195.628 181.399C195.98 180.98 203.613 181.709 204.838 181.826C204.896 181.833 204.94 181.836 204.968 181.839C213.021 182.597 221.295 183.34 228.432 183.982C239.241 184.952 247.443 185.689 248.319 185.891C248.131 183.111 247.92 180.404 247.809 179.01C212.584 176.416 204.102 176.369 198.407 176.336C195.432 176.32 193.22 176.308 188.354 175.939C188.552 180.732 188.485 185.648 188.413 190.408C187.854 228.309 188.934 244.479 189.651 255.2C190.027 260.813 190.301 264.933 190.19 269.897C191.83 270.18 196.388 271.026 197.062 271.151C197.062 260.926 196.974 260.334 197.225 260.086C197.255 260.058 197.289 260.033 197.329 259.998C197.365 259.965 197.393 259.937 197.424 259.913C197.726 259.683 198.351 259.873 210.199 261.438C210.589 261.49 210.881 261.823 210.881 262.217V273.645L216.143 274.606C216.2 273.07 216.093 270.85 215.985 268.583C215.919 267.203 215.851 265.806 215.82 264.537C215.809 264.068 216.252 263.777 216.561 263.785C224.849 263.983 240.59 266.08 242.215 266.487C243.531 267.048 243.268 268.586 243.094 269.605C242.794 271.354 242.788 275.772 243.446 279.686ZM223.816 185.148C223.943 186.679 226.056 252.059 226.056 252.059V252.06C226.358 254.004 226.377 256.069 226.143 258.062L237.018 259.444C236.704 256.668 236.699 254.02 236.699 251.222C236.699 243.07 236.577 234.468 236.459 226.125C236.236 210.349 236.026 195.498 236.677 186.382L223.816 185.148ZM210.601 217.302C210.65 222.003 210.691 226.008 210.732 228.316C210.732 237.367 210.908 243.227 211.035 247.47C211.149 251.275 211.223 253.776 211.097 256.108C217.437 256.841 219.703 257.172 221.624 257.453C222.588 257.593 223.466 257.722 224.727 257.882C224.598 257.048 222.317 188.053 222.441 185.017L209.933 183.811C210.286 186.963 210.469 204.649 210.601 217.302ZM195.812 182.271C198.071 182.71 199.833 182.872 204.147 183.268C205.5 183.392 207.105 183.538 209.056 183.724C208.939 185.382 208.942 185.687 209.006 191.215C209.088 198.098 209.264 213.08 209.419 248.862C209.419 248.958 209.419 249.054 209.421 249.15C209.425 250.426 209.432 251.834 209.587 253.073C209.587 254.071 209.611 254.987 209.678 255.93C209.386 255.891 208.716 255.808 207.923 255.709C206.493 255.532 204.667 255.305 203.965 255.197C201.875 254.875 199.72 254.55 197.586 254.528C196.289 230.209 196.193 210.347 196.132 197.426C196.095 189.752 196.069 184.525 195.812 182.271ZM246.758 260.755C247.289 260.755 247.85 260.804 248.402 260.892H248.404C249.919 235.387 249.727 228.818 249.139 208.546C249.091 206.975 249.044 205.321 248.994 203.571C248.994 198.884 248.653 191.157 248.413 187.368C247.545 187.438 247.54 187.438 246.397 187.307C245.267 187.177 243.022 186.921 237.729 186.48C237.886 188.138 237.883 195.325 237.879 204.114C237.875 212.655 237.871 222.709 238.012 230.672C238.012 247.325 238.34 252.404 238.513 255.057C238.624 256.773 238.67 257.474 238.518 259.634C241.749 260.044 242.614 260.149 243.477 260.268C244.168 260.366 244.857 260.472 246.758 260.755ZM248.911 280.666C249.307 280.427 249.61 280.258 249.914 280.101H249.916C250.613 279.074 251.344 278.036 252.115 276.943C255.715 271.836 260.173 265.512 265.93 253.517C265.278 253.88 254.392 259.68 254.392 259.68C253.937 259.932 253.448 260.234 252.946 260.543C252.045 261.099 251.093 261.686 250.187 262.085C250.212 262.13 250.164 263.086 250.106 264.234C250.051 265.317 249.988 266.572 249.969 267.398C249.884 271.255 249.638 275.392 248.911 280.666ZM281.357 263.041C282.247 262.429 283.005 261.907 283.69 261.472L283.688 261.471C283.708 255.731 283.961 253.178 284.259 250.161C284.299 249.754 284.341 249.338 284.382 248.906C283.112 249.793 281.771 250.602 280.311 251.266C276.902 253.183 274.763 254.444 273.09 255.428C270.159 257.152 268.665 258.033 264.297 260.125C260.129 268.09 255.638 275.182 253.103 278.631C269.87 270.935 277.121 265.952 281.357 263.041ZM279.765 249.836C281.132 248.768 282.685 247.956 284.548 247.099V247.098C284.817 244.229 284.966 242.047 285.098 240.113C285.167 239.102 285.233 238.158 285.307 237.221C282.316 239.26 279.512 240.899 274.584 243.016C274.53 243.039 274.39 243.1 274.196 243.188C273.554 243.477 272.299 244.039 271.44 244.386C269.514 249.255 267.384 254.035 265.024 258.687C267.859 256.648 270.968 254.74 274.547 252.864L274.609 252.828C276.237 251.851 277.931 250.836 279.765 249.836ZM284.964 235.536C285.117 235.434 285.286 235.407 285.445 235.445V235.443C285.771 231.214 286.052 227.174 286.29 223.301L286.1 223.406C283.01 225.121 282.303 225.513 279.798 226.516C278.986 226.841 278.253 226.992 277.648 227.116C277.499 227.146 277.359 227.174 277.227 227.204C275.738 232.55 273.995 237.825 271.999 242.998C272.163 242.906 272.566 242.697 273.122 242.408C274.416 241.738 276.541 240.635 278.414 239.566C280.838 238.354 282.895 236.968 284.964 235.536ZM286.393 221.585C286.687 216.559 286.907 211.806 287.053 207.262H287.054C287.057 207.136 287.065 207.089 287.051 207.081C287.034 207.072 286.982 207.127 286.842 207.161C286.249 207.46 285.735 207.723 285.277 207.959C283.57 208.837 282.62 209.326 281.13 209.75C280.201 215.238 279.006 220.69 277.545 226.074C278.118 225.758 278.667 225.485 279.286 225.238C280.163 224.887 280.65 224.694 281.124 224.474C282.01 224.062 282.853 223.555 286.137 221.729C286.216 221.656 286.304 221.615 286.393 221.585ZM286.14 205.896C286.403 205.643 286.732 205.475 287.079 205.347V205.348C287.162 201.219 287.184 197.06 287.167 192.889C287.032 192.97 285.393 193.997 285.393 193.997C284.467 194.462 283.691 194.92 282.942 195.369C282.586 199.745 282.054 204.119 281.35 208.471C282.657 207.628 283.815 207.052 285.347 206.292C285.6 206.164 285.864 206.034 286.14 205.896Z" fill="#3C0F34"/>
<path d="M263.275 153.547C263.275 153.004 262.9 152.651 262.049 152.883C258.673 153.221 250.789 152.486 246.521 152.475C245.402 152.32 236.9 154.216 233.892 155.028C233.784 155.017 233.677 155.009 233.569 154.996C233.106 154.996 232.818 155.273 232.828 155.747C232.899 159.03 233.707 163.785 234.704 167.869C234.728 167.968 234.814 168.042 234.918 168.048C236.114 168.126 249.426 169.335 249.649 169.373C250.815 169.571 252.456 169.866 253.437 169.207C253.608 169.034 253.239 169.155 254.084 168.924C261.593 166.877 262.378 166.665 263.542 165.5C263.926 165.115 263.273 165.5 263.273 153.546L263.275 153.547ZM250.431 157.92C250.506 158.647 250.594 159.374 250.682 160.102C251.478 166.625 251.271 166.539 251.745 167.971C250.757 167.944 250.709 168.024 249.135 167.706C248.569 167.591 248.892 167.644 244.19 167.122C243.52 167.087 242.873 167.059 242.215 167.026C242.243 166.647 242.235 166.578 242.235 163.602C242.235 163.032 241.869 162.581 241.232 162.368C240.347 162.072 240.08 162.286 239.183 162.107C237.59 161.788 237.142 162.501 237.554 163.6C237.554 166.847 237.525 166.555 237.535 166.848C236.831 166.83 236.136 166.8 235.418 166.793C235.197 163.492 234.6 160.176 234.506 156.884C239.843 157.43 245.215 157.373 250.428 157.918L250.431 157.92ZM238.844 166.883C238.882 166.374 238.869 166.07 238.868 163.316C239.086 163.336 240.398 163.468 240.587 163.485V166.947C240.011 166.921 239.42 166.905 238.844 166.885V166.883Z" fill="#3C0F34"/>
</svg>
